<?xml version="1.0" encoding="iso-8859-1"?>
<!-- Generator: Adobe Illustrator 16.0.0, SVG Export Plug-In . SVG Version: 6.00 Build 0)  -->
<!DOCTYPE svg PUBLIC "-//W3C//DTD SVG 1.1//EN" "http://www.w3.org/Graphics/SVG/1.1/DTD/svg11.dtd">
<svg version="1.1" id="Capa_1" xmlns="http://www.w3.org/2000/svg" xmlns:xlink="http://www.w3.org/1999/xlink" x="0px" y="0px"
	 width="314.125px" height="314.125px" viewBox="0 0 314.125 314.125" style="enable-background:new 0 0 314.125 314.125;"
	 xml:space="preserve">
<g>
	<g>
		<path d="M157.219,47.063l2.123-0.01c13.176,0,43.12,1.188,64.33,10.903C219.1,25.217,191.061,0,157.066,0
			c-33.999,0-62.039,25.222-66.613,57.966c21.269-9.719,51.45-10.913,64.737-10.913L157.219,47.063z"/>
		<path d="M229.824,67.468c-1.724-1.209-3.614-2.296-5.582-3.319c-20.199-10.563-51.651-11.793-64.899-11.793
			c-0.748,0-1.442,0.005-2.069,0.011c-0.631-0.005-1.33-0.011-2.083-0.011c-13.357,0-45.06,1.225-65.304,11.799
			c-1.968,1.022-3.86,2.11-5.584,3.319c0,0-19.607,68.639,64.748,180.952h-3.314h-3.301h-8.288c-5.75,0-10.406,4.66-10.406,10.398
			c0,3.422,1.67,6.431,4.223,8.326c-15.713,9.756-26.212,27.123-26.212,46.976h110.628c0-19.858-10.496-37.22-26.212-46.976
			c2.548-1.896,4.226-4.904,4.226-8.326c0-5.748-4.661-10.398-10.403-10.398h-8.29h-3.304h-3.314
			C249.428,136.106,229.824,67.468,229.824,67.468z M149.755,226.978c-40.623-50.145-48.167-93.253-47.414-120.495
			c0.541-19.482,5.313-30.872,5.313-30.872c2.4-1.686,4.963-3.031,7.56-4.23c-0.72,1.214-1.29,2.499-1.761,3.84
			c-0.401,1.149-0.72,2.343-0.971,3.578c-0.143,0.091-0.301,0.16-0.445,0.248c-1.336,3.941-4.792,16.073-4.389,33.928
			c9.585,10.374,22.359,17.74,36.804,20.481v-0.152c0.486,0.143,0.981,0.254,1.473,0.38c0.394,0.101,0.779,0.212,1.178,0.303
			c0.875,0.196,1.761,0.35,2.651,0.492V226.978z M164.487,226.978v-92.515c0.891-0.147,1.776-0.308,2.651-0.502
			c0.357-0.08,0.709-0.186,1.062-0.271c0.533-0.132,1.066-0.254,1.589-0.409v0.166c14.391-2.758,27.107-10.108,36.667-20.441
			c0.445-17.971-2.952-30.043-4.262-33.953c-0.177-0.111-0.368-0.194-0.544-0.306c-0.254-1.238-0.574-2.434-0.979-3.586
			c-0.466-1.336-1.041-2.618-1.761-3.829c2.641,1.217,5.24,2.573,7.68,4.285c0,0,4.748,11.333,5.308,30.724
			C212.679,133.572,205.187,176.744,164.487,226.978z"/>
	</g>
</g>
<g>
</g>
<g>
</g>
<g>
</g>
<g>
</g>
<g>
</g>
<g>
</g>
<g>
</g>
<g>
</g>
<g>
</g>
<g>
</g>
<g>
</g>
<g>
</g>
<g>
</g>
<g>
</g>
<g>
</g>
</svg>
