<?xml version="1.0" encoding="iso-8859-1"?>
<!-- Generator: Adobe Illustrator 16.0.0, SVG Export Plug-In . SVG Version: 6.00 Build 0)  -->
<!DOCTYPE svg PUBLIC "-//W3C//DTD SVG 1.1//EN" "http://www.w3.org/Graphics/SVG/1.1/DTD/svg11.dtd">
<svg version="1.1" id="Capa_1" xmlns="http://www.w3.org/2000/svg" xmlns:xlink="http://www.w3.org/1999/xlink" x="0px" y="0px"
	 width="481.065px" height="481.065px" viewBox="0 0 481.065 481.065" style="enable-background:new 0 0 481.065 481.065;"
	 xml:space="preserve">
<g>
	<g>
		<path d="M339.673,120.489c0-17.589,1.187-35.432,8.492-42.247C333.43,32.847,290.843,0,240.537,0
			c-50.307,0-92.9,32.847-107.635,78.243c7.302,6.823,8.494,24.658,8.494,42.247c0,46.622,38.213,63.461,68.818,69.469
			c-0.417-2.036-0.629-4.126-0.629-6.246c0-17.066,13.888-30.954,30.953-30.954c17.067,0,30.949,13.888,30.949,30.954
			c0,2.12-0.208,4.209-0.629,6.246C301.454,183.951,339.673,167.111,339.673,120.489z"/>
		<path d="M355.494,83.164c-1.694,0-3.273,1.659-4.584,5.213c-2.024,5.512-3.387,15.677-3.387,32.112
			c0,62.101-60.636,76.271-90.604,79.491c4.147-4.178,6.708-9.924,6.708-16.268c0-12.756-10.335-23.103-23.099-23.103
			c-12.756,0-23.103,10.339-23.103,23.103c0,6.352,2.564,12.09,6.712,16.268c-29.976-3.212-90.6-17.39-90.6-79.491
			c0-16.435-1.362-26.6-3.395-32.112c-1.31-3.554-2.889-5.213-4.584-5.213c-8.854-0.008-20.488,43.28-9.041,74.045
			c3.775,10.159,10.8,20.18,19.43,29.621c-1.587-0.008-3.174-0.008-4.839,0.102c-0.102,0.008-0.172,0.062-0.274,0.08
			c-1.553,0.138-2.863,0.617-3.987,1.312c-7.113,4.316-5.776,17.495,4.27,16.849c5.364-0.345,9.836,0.192,13.708,1.323
			c7.177,2.106,12.002,6.528,15.214,12.551c17.216,32.271-11.092,109.724,35.155,115.526c1.349,0.172,2.691,0.349,4.166,0.385
			c1.22,0.04,2.544-0.036,3.849-0.093c1.86,9.277,6.939,14.367,6.939,14.367h7.293v46.281c-9.542,2.753-15.803,7.117-15.803,12.083
			c0,0.176,0.119,0.344,0.134,0.528h-12.295c-8.053,0-14.585,6.532-14.585,14.583v43.766c0,8.059,6.532,14.591,14.585,14.591
			h102.126c8.055,0,14.595-6.532,14.595-14.591v-43.766c0-8.051-6.532-14.583-14.595-14.583h-12.299
			c0.016-0.185,0.14-0.353,0.14-0.528c0-4.962-6.264-9.33-15.81-12.083v-46.281h7.298c0,0,5.077-5.098,6.941-14.375
			c1.31,0.056,2.628,0.124,3.847,0.092c1.471-0.036,2.821-0.192,4.164-0.353c46.727-5.586,17.969-83.723,35.562-115.864
			c3.162-5.761,7.831-10.009,14.675-12.121c3.947-1.216,8.532-1.797,14.082-1.445c10.119,0.651,11.418-12.75,4.132-16.963
			c-1.149-0.667-2.468-1.13-4.047-1.249c-0.028,0-0.053-0.024-0.085-0.024c-1.738-0.11-3.41-0.118-5.064-0.102
			c8.623-9.434,15.637-19.454,19.416-29.613C375.988,126.444,364.351,83.164,355.494,83.164z M216.216,294.527
			c-6.382,8.127-10.017,15.469-11.918,21.969c-1.418,0.049-2.729-0.06-3.979-0.252c-1.325-0.205-2.621-0.453-3.759-0.91
			c-21.297-8.359-11.838-56.673-12.842-75.828c-0.072-1.343-0.207-2.645-0.329-3.958c-0.167-1.725-0.373-3.422-0.621-5.085
			c-0.285-1.867-0.621-3.699-1.02-5.47c18.967,12.842,34.476,20.905,34.476,20.905S242.964,260.488,216.216,294.527z
			 M284.543,315.438c-1.142,0.433-2.444,0.661-3.779,0.846c-1.25,0.185-2.576,0.244-3.995,0.2
			c-1.907-6.504-5.534-13.83-11.922-21.94c-26.744-34.039,0-48.639,0-48.639s15.665-8.133,34.752-21.085
			c-0.396,1.781-0.741,3.611-1.033,5.484c-0.261,1.671-0.47,3.37-0.638,5.104c-0.12,1.36-0.269,2.709-0.337,4.105
			C296.577,258.733,306.131,307.327,284.543,315.438z"/>
	</g>
</g>
<g>
</g>
<g>
</g>
<g>
</g>
<g>
</g>
<g>
</g>
<g>
</g>
<g>
</g>
<g>
</g>
<g>
</g>
<g>
</g>
<g>
</g>
<g>
</g>
<g>
</g>
<g>
</g>
<g>
</g>
</svg>
