<?xml version="1.0" encoding="iso-8859-1"?>
<!-- Generator: Adobe Illustrator 16.0.0, SVG Export Plug-In . SVG Version: 6.00 Build 0)  -->
<!DOCTYPE svg PUBLIC "-//W3C//DTD SVG 1.1//EN" "http://www.w3.org/Graphics/SVG/1.1/DTD/svg11.dtd">
<svg version="1.1" id="Capa_1" xmlns="http://www.w3.org/2000/svg" xmlns:xlink="http://www.w3.org/1999/xlink" x="0px" y="0px"
	 width="980px" height="980px" viewBox="0 0 980 980" style="enable-background:new 0 0 980 980;" xml:space="preserve">
<g>
	<g>
		<path d="M953,175.1H27c-14.9,0-27,12.1-27,27V777.9c0,14.898,12.1,27,27,27h926c14.9,0,27-12.102,27-27V202.1
			C980,187.2,967.9,175.1,953,175.1z M30,205.1h445v569.699H30C30,774.9,30,205.1,30,205.1z M950,774.9H505V205.1h445V774.9z"/>
		<path d="M120,308.299c-8.3,0-15,6.7-15,15v333.5c0,8.301,6.7,15,15,15c8.3,0,15-6.699,15-15v-333.5
			C135,315,128.3,308.299,120,308.299z"/>
		<path d="M375.9,308.299c-8.3,0-15,6.7-15,15v333.5c0,8.301,6.7,15,15,15s15-6.699,15-15v-333.5
			C390.9,315,384.2,308.299,375.9,308.299z"/>
		<path d="M342.3,263.899H153.6c-8.3,0-15,6.7-15,15c0,8.3,6.7,15,15,15h188.7c8.3,0,15-6.7,15-15
			C357.3,270.6,350.6,263.899,342.3,263.899z"/>
		<path d="M342.3,686.1H153.6c-8.3,0-15,6.699-15,15s6.7,15,15,15h188.7c8.3,0,15-6.699,15-15S350.6,686.1,342.3,686.1z"/>
		<path d="M637,293.899h188.699c8.301,0,15-6.7,15-15c0-8.3-6.699-15-15-15H637c-8.301,0-15,6.7-15,15
			C622,287.2,628.699,293.899,637,293.899z"/>
		<path d="M861.699,461.799c8.301,0,15-6.7,15-15V319.7c0-8.3-6.699-15-15-15c-8.299,0-15,6.7-15,15v127.1
			C846.699,455.099,853.4,461.799,861.699,461.799z"/>
		<path d="M861.699,675.9c8.301,0,15-6.701,15-15V533.799c0-8.299-6.699-15-15-15c-8.299,0-15,6.701-15,15V660.9
			C846.699,669.199,853.4,675.9,861.699,675.9z"/>
		<path d="M637,718.5h188.699c8.301,0,15-6.701,15-15c0-8.301-6.699-15-15-15H637c-8.301,0-15,6.699-15,15
			C622,711.799,628.699,718.5,637,718.5z"/>
		<path d="M637,506.199h188.699c8.301,0,15-6.699,15-15c0-8.299-6.699-15-15-15H637c-8.301,0-15,6.7-15,15
			C622,499.5,628.699,506.199,637,506.199z"/>
	</g>
</g>
<g>
</g>
<g>
</g>
<g>
</g>
<g>
</g>
<g>
</g>
<g>
</g>
<g>
</g>
<g>
</g>
<g>
</g>
<g>
</g>
<g>
</g>
<g>
</g>
<g>
</g>
<g>
</g>
<g>
</g>
</svg>
