<?xml version="1.0" encoding="UTF-8" standalone="no"?>
<!-- Created with Inkscape (http://www.inkscape.org/) -->
<svg
   xmlns:svg="http://www.w3.org/2000/svg"
   xmlns="http://www.w3.org/2000/svg"
   version="1.0"
   width="755.43304"
   height="734.63385"
   id="svg2483"
   xml:space="preserve"><defs
     id="defs2486"><clipPath
       id="clipPath2498"><path
         d="M 0,841 L 595,841 L 595,0 L 0,0 L 0,841 z"
         id="path2500" /></clipPath><clipPath
       id="clipPath2504"><path
         d="M 0.36,841.68 L 595.8,841.68 L 595.8,0 L 0.36,0 L 0.36,841.68 z"
         id="path2506" /></clipPath><clipPath
       id="clipPath2594"><path
         d="M 399.685,682.251 L 467.716,682.251 L 467.716,612.251 L 399.685,612.251 L 399.685,682.251 z"
         id="path2596" /></clipPath><clipPath
       id="clipPath2600"><path
         d="M 0,841 L 595,841 L 595,0 L 0,0 L 0,841 z"
         id="path2602" /></clipPath><clipPath
       id="clipPath2606"><path
         d="M 0.36,841.68 L 595.8,841.68 L 595.8,0 L 0.36,0 L 0.36,841.68 z"
         id="path2608" /></clipPath><clipPath
       id="clipPath2698"><path
         d="M 484.724,682.251 L 552.756,682.251 L 552.756,612.251 L 484.724,612.251 L 484.724,682.251 z"
         id="path2700" /></clipPath><clipPath
       id="clipPath2704"><path
         d="M 0,841 L 595,841 L 595,0 L 0,0 L 0,841 z"
         id="path2706" /></clipPath><clipPath
       id="clipPath2710"><path
         d="M 0.36,841.68 L 595.8,841.68 L 595.8,0 L 0.36,0 L 0.36,841.68 z"
         id="path2712" /></clipPath><radialGradient
       cx="0"
       cy="0"
       r="1"
       fx="0"
       fy="0"
       id="radialGradient2750"
       gradientUnits="userSpaceOnUse"
       gradientTransform="matrix(15.4865,-15.4865,-15.4865,-15.4865,511.748,669.5154)"
       spreadMethod="pad"><stop
         id="stop2752"
         style="stop-color:#ffffff;stop-opacity:1"
         offset="0" /><stop
         id="stop2754"
         style="stop-color:#696a6c;stop-opacity:1"
         offset="1" /></radialGradient><clipPath
       id="clipPath2762"><path
         d="M 484.724,682.251 L 552.756,682.251 L 552.756,612.251 L 484.724,612.251 L 484.724,682.251 z"
         id="path2764" /></clipPath><clipPath
       id="clipPath2768"><path
         d="M 0,841 L 595,841 L 595,0 L 0,0 L 0,841 z"
         id="path2770" /></clipPath><clipPath
       id="clipPath2774"><path
         d="M 0.36,841.68 L 595.8,841.68 L 595.8,0 L 0.36,0 L 0.36,841.68 z"
         id="path2776" /></clipPath><clipPath
       id="clipPath2800"><path
         d="M 147.567,682.251 L 215.598,682.251 L 215.598,612.251 L 147.567,612.251 L 147.567,682.251 z"
         id="path2802" /></clipPath><clipPath
       id="clipPath2806"><path
         d="M 0,841 L 595,841 L 595,0 L 0,0 L 0,841 z"
         id="path2808" /></clipPath><clipPath
       id="clipPath2812"><path
         d="M 0.36,841.68 L 595.8,841.68 L 595.8,0 L 0.36,0 L 0.36,841.68 z"
         id="path2814" /></clipPath><clipPath
       id="clipPath2876"><path
         d="M 229.606,682.251 L 297.638,682.251 L 297.638,612.251 L 229.606,612.251 L 229.606,682.251 z"
         id="path2878" /></clipPath><clipPath
       id="clipPath2882"><path
         d="M 0,841 L 595,841 L 595,0 L 0,0 L 0,841 z"
         id="path2884" /></clipPath><clipPath
       id="clipPath2888"><path
         d="M 0.36,841.68 L 595.8,841.68 L 595.8,0 L 0.36,0 L 0.36,841.68 z"
         id="path2890" /></clipPath><clipPath
       id="clipPath3012"><path
         d="M 314.646,682.251 L 382.677,682.251 L 382.677,612.251 L 314.646,612.251 L 314.646,682.251 z"
         id="path3014" /></clipPath><clipPath
       id="clipPath3018"><path
         d="M 0,841 L 595,841 L 595,0 L 0,0 L 0,841 z"
         id="path3020" /></clipPath><clipPath
       id="clipPath3024"><path
         d="M 0.36,841.68 L 595.8,841.68 L 595.8,0 L 0.36,0 L 0.36,841.68 z"
         id="path3026" /></clipPath><clipPath
       id="clipPath3124"><path
         d="M 399.685,574.543 L 467.716,574.543 L 467.716,504.544 L 399.685,504.544 L 399.685,574.543 z"
         id="path3126" /></clipPath><clipPath
       id="clipPath3130"><path
         d="M 0,841 L 595,841 L 595,0 L 0,0 L 0,841 z"
         id="path3132" /></clipPath><clipPath
       id="clipPath3136"><path
         d="M 0.36,841.68 L 595.8,841.68 L 595.8,0 L 0.36,0 L 0.36,841.68 z"
         id="path3138" /></clipPath><clipPath
       id="clipPath3146"><path
         d="M 455.345,545.226 C 455.621,547.816 457.943,549.692 460.532,549.416 C 463.12,549.141 464.995,546.819 464.719,544.229 C 464.444,541.639 462.122,539.763 459.534,540.038 C 456.945,540.314 455.07,542.636 455.345,545.226"
         id="path3148" /></clipPath><clipPath
       id="clipPath3668"><path
         d="M 399.685,574.543 L 467.716,574.543 L 467.716,504.544 L 399.685,504.544 L 399.685,574.543 z"
         id="path3670" /></clipPath><clipPath
       id="clipPath3674"><path
         d="M 0,841 L 595,841 L 595,0 L 0,0 L 0,841 z"
         id="path3676" /></clipPath><clipPath
       id="clipPath3680"><path
         d="M 0.36,841.68 L 595.8,841.68 L 595.8,0 L 0.36,0 L 0.36,841.68 z"
         id="path3682" /></clipPath><clipPath
       id="clipPath3728"><path
         d="M 484.724,574.543 L 552.756,574.543 L 552.756,504.544 L 484.724,504.544 L 484.724,574.543 z"
         id="path3730" /></clipPath><clipPath
       id="clipPath3734"><path
         d="M 0,841 L 595,841 L 595,0 L 0,0 L 0,841 z"
         id="path3736" /></clipPath><clipPath
       id="clipPath3740"><path
         d="M 0.36,841.68 L 595.8,841.68 L 595.8,0 L 0.36,0 L 0.36,841.68 z"
         id="path3742" /></clipPath><clipPath
       id="clipPath3812"><path
         d="M 149.105,574.543 L 215.598,574.543 L 215.598,504.544 L 149.105,504.544 L 149.105,574.543 z"
         id="path3814" /></clipPath><clipPath
       id="clipPath3818"><path
         d="M 0,841 L 595,841 L 595,0 L 0,0 L 0,841 z"
         id="path3820" /></clipPath><clipPath
       id="clipPath3824"><path
         d="M 0.36,841.68 L 595.8,841.68 L 595.8,0 L 0.36,0 L 0.36,841.68 z"
         id="path3826" /></clipPath><clipPath
       id="clipPath4492"><path
         d="M 229.606,574.543 L 297.638,574.543 L 297.638,504.544 L 229.606,504.544 L 229.606,574.543 z"
         id="path4494" /></clipPath><clipPath
       id="clipPath4498"><path
         d="M 0,841 L 595,841 L 595,0 L 0,0 L 0,841 z"
         id="path4500" /></clipPath><clipPath
       id="clipPath4504"><path
         d="M 0.36,841.68 L 595.8,841.68 L 595.8,0 L 0.36,0 L 0.36,841.68 z"
         id="path4506" /></clipPath><clipPath
       id="clipPath4642"><path
         d="M 269.913,547.204 C 266.697,547.204 264.09,544.596 264.09,541.38 C 264.09,538.165 266.697,535.557 269.913,535.557 C 273.129,535.557 275.736,538.165 275.736,541.38 C 275.736,544.596 273.129,547.204 269.913,547.204"
         id="path4644" /></clipPath><clipPath
       id="clipPath4858"><path
         d="M 229.606,574.543 L 297.638,574.543 L 297.638,504.544 L 229.606,504.544 L 229.606,574.543 z"
         id="path4860" /></clipPath><clipPath
       id="clipPath4864"><path
         d="M 0,841 L 595,841 L 595,0 L 0,0 L 0,841 z"
         id="path4866" /></clipPath><clipPath
       id="clipPath4870"><path
         d="M 0.36,841.68 L 595.8,841.68 L 595.8,0 L 0.36,0 L 0.36,841.68 z"
         id="path4872" /></clipPath><clipPath
       id="clipPath4896"><path
         d="M 314.646,574.543 L 382.677,574.543 L 382.677,504.544 L 314.646,504.544 L 314.646,574.543 z"
         id="path4898" /></clipPath><clipPath
       id="clipPath4902"><path
         d="M 0,841 L 595,841 L 595,0 L 0,0 L 0,841 z"
         id="path4904" /></clipPath><clipPath
       id="clipPath4908"><path
         d="M 0.36,841.68 L 595.8,841.68 L 595.8,0 L 0.36,0 L 0.36,841.68 z"
         id="path4910" /></clipPath><clipPath
       id="clipPath5008"><path
         d="M 337.923,562.831 L 339.952,562.831 L 339.952,562.729 L 340.256,562.731 L 340.561,562.729 L 340.561,562.628 L 340.763,562.632 L 340.967,562.628 L 340.967,562.526 L 341.271,562.526 L 341.271,562.425 L 341.423,562.427 L 341.576,562.425 L 341.576,562.323 L 341.725,562.33 L 341.88,562.323 L 341.88,562.222 L 342.083,562.222 L 342.083,562.12 L 342.286,562.12 L 342.286,562.019 L 342.489,562.019 L 342.489,561.917 L 342.692,561.917 L 342.692,561.816 L 342.895,561.816 L 342.895,561.714 L 343.061,561.667 L 343.199,561.613 L 343.199,561.511 L 343.402,561.511 L 343.504,561.309 L 343.707,561.309 L 343.707,561.207 L 343.857,561.107 L 344.011,561.004 L 344.011,560.903 L 344.214,560.903 L 344.214,560.801 L 344.379,560.688 L 344.656,560.409 L 344.823,560.294 L 344.823,560.193 L 344.924,560.193 L 345.025,559.99 L 345.127,559.99 L 345.127,559.786 L 345.33,559.786 L 345.33,559.584 L 345.44,559.535 L 345.533,559.482 L 345.533,559.279 L 345.736,559.178 L 345.784,558.974 L 345.837,558.772 L 345.938,558.72 L 346.04,558.671 L 346.04,558.468 L 346.15,558.421 L 346.243,558.366 L 346.257,558.297 L 346.25,558.215 L 346.243,558.062 L 346.345,558.062 L 346.386,557.856 L 346.446,557.656 L 346.547,557.656 L 346.551,557.504 L 346.547,557.352 L 346.649,557.352 L 346.649,557.047 L 346.75,557.047 L 346.747,556.899 L 346.75,556.743 L 346.852,556.743 L 346.85,556.49 L 346.852,556.235 L 346.953,556.235 L 346.953,555.829 L 347.055,555.829 L 347.055,554.713 L 347.157,554.713 L 347.055,553.191 L 346.953,553.191 L 346.956,552.939 L 346.953,552.684 L 346.852,552.684 L 346.852,552.278 L 346.75,552.278 L 346.753,552.077 L 346.75,551.872 L 346.649,551.872 L 346.649,551.67 L 346.547,551.67 L 346.498,551.365 L 346.446,551.061 L 346.345,551.061 L 346.289,550.866 L 346.243,550.655 L 346.142,550.655 L 346.142,550.452 L 346.037,550.4 L 345.938,550.35 L 345.884,550.146 L 345.837,549.945 L 345.634,549.843 L 345.634,549.64 L 345.33,549.437 L 345.33,549.234 L 345.229,549.234 L 345.229,549.133 L 345.024,548.982 L 344.823,548.828 L 344.823,548.727 L 344.721,548.727 L 344.721,548.626 L 344.526,548.49 L 344.365,548.322 L 344.204,548.154 L 344.011,548.017 L 344.011,547.915 L 343.808,547.915 L 343.605,547.611 L 343.402,547.611 L 343.301,547.408 L 343.096,547.358 L 342.895,547.306 L 342.793,547.103 L 342.59,547.103 L 342.59,547.002 L 342.378,546.957 L 342.185,546.901 L 342.185,546.799 L 342.032,546.806 L 341.88,546.799 L 341.88,546.698 L 341.677,546.698 L 341.677,546.596 L 341.473,546.598 L 341.271,546.596 L 341.271,546.495 L 340.967,546.495 L 340.967,546.393 L 340.761,546.398 L 340.561,546.393 L 340.561,546.292 L 340.155,546.292 L 340.155,546.19 L 340.063,546.207 L 340.055,546.252 L 340.056,546.275 L 340.046,546.292 L 339.952,546.292 L 339.952,546.19 L 339.596,546.188 L 339.242,546.19 L 339.242,546.089 L 338.025,546.089 L 338.025,546.19 L 337.92,546.182 L 337.914,546.164 L 337.922,546.142 L 337.929,546.12 L 337.924,546.101 L 337.822,546.089 L 337.822,546.19 L 336.908,546.19 L 336.908,546.292 L 336.704,546.289 L 336.503,546.292 L 336.503,546.393 L 336.193,546.439 L 335.894,546.495 L 335.894,546.596 L 335.742,546.592 L 335.59,546.596 L 335.59,546.698 L 335.385,546.75 L 335.183,546.799 L 335.082,547.002 L 334.879,547.002 L 334.879,547.103 L 334.676,547.103 L 334.676,547.205 L 334.466,547.252 L 334.27,547.306 L 334.27,547.408 L 334.067,547.408 L 333.965,547.561 L 333.865,547.712 L 333.715,547.765 L 333.56,547.814 L 333.56,547.915 L 333.357,547.915 L 333.357,548.118 L 333.154,548.118 L 333.053,548.321 L 332.951,548.321 L 332.951,548.423 L 332.747,548.576 L 332.545,548.727 L 332.545,548.828 L 332.444,548.828 L 332.444,549.031 L 332.347,549.082 L 332.241,549.133 L 332.038,549.437 L 331.937,549.437 L 331.937,549.64 L 331.835,549.64 L 331.789,549.694 L 331.772,549.774 L 331.734,549.945 L 331.642,550.004 L 331.531,550.046 L 331.531,550.249 L 331.429,550.249 L 331.429,550.452 L 331.226,550.553 L 331.174,550.694 L 331.167,550.796 L 331.165,550.903 L 331.125,551.061 L 331.024,551.061 L 331.024,551.264 L 330.922,551.264 L 330.925,551.416 L 330.922,551.568 L 330.821,551.568 L 330.823,551.72 L 330.821,551.872 L 330.719,551.872 L 330.673,552.181 L 330.618,552.481 L 330.516,552.481 L 330.508,552.735 L 330.516,552.989 L 330.415,552.989 L 330.415,553.8 L 330.313,553.8 L 330.313,553.902 L 330.387,553.936 L 330.418,553.958 L 330.415,554.104 L 330.313,554.104 L 330.313,554.713 L 330.415,554.713 L 330.415,555.829 L 330.516,555.829 L 330.508,556.086 L 330.516,556.337 L 330.618,556.337 L 330.618,556.641 L 330.719,556.641 L 330.722,556.797 L 330.719,556.946 L 330.821,556.946 L 330.864,557.257 L 330.922,557.554 L 331.024,557.554 L 331.02,557.709 L 331.024,557.859 L 331.125,557.859 L 331.166,558.066 L 331.226,558.265 L 331.328,558.265 L 331.328,558.468 L 331.531,558.569 L 331.531,558.772 L 331.632,558.772 L 331.632,558.975 L 331.734,558.975 L 331.734,559.178 L 331.883,559.281 L 332.038,559.381 L 332.038,559.584 L 332.14,559.584 L 332.444,559.99 L 332.545,559.99 L 332.545,560.193 L 332.647,560.193 L 332.647,560.294 L 332.849,560.447 L 333.053,560.598 L 333.053,560.7 L 333.256,560.7 L 333.256,560.801 L 333.458,560.955 L 333.662,561.106 L 333.662,561.207 L 333.823,561.255 L 333.895,561.269 L 333.966,561.309 L 334.067,561.511 L 334.217,561.516 L 334.372,561.511 L 334.473,561.714 L 334.669,561.772 L 334.879,561.816 L 334.879,561.917 L 335.084,561.961 L 335.285,562.019 L 335.285,562.12 L 335.437,562.127 L 335.59,562.12 L 335.59,562.222 L 335.792,562.222 L 335.792,562.323 L 335.943,562.328 L 336.097,562.323 L 336.097,562.425 L 336.401,562.425 L 336.401,562.526 L 336.79,562.592 L 337.213,562.628 L 337.213,562.729 L 337.521,562.715 L 337.675,562.706 L 337.822,562.729 L 337.906,562.766 L 337.919,562.779 L 337.917,562.79 L 337.826,562.808 L 337.776,562.811 L 337.758,562.813 L 337.923,562.831"
         id="path5010" /></clipPath><clipPath
       id="clipPath5020"><path
         d="M 399.685,468.15 L 467.716,468.15 L 467.716,398.15 L 399.685,398.15 L 399.685,468.15 z"
         id="path5022" /></clipPath><clipPath
       id="clipPath5026"><path
         d="M 0,841 L 595,841 L 595,0 L 0,0 L 0,841 z"
         id="path5028" /></clipPath><clipPath
       id="clipPath5032"><path
         d="M 0.36,841.68 L 595.8,841.68 L 595.8,0 L 0.36,0 L 0.36,841.68 z"
         id="path5034" /></clipPath><clipPath
       id="clipPath5088"><path
         d="M 457.87,446.123 C 457.422,442.625 456.655,438.31 455.342,433.732 C 453.482,427.243 450.905,421.506 447.682,416.677 C 443.819,410.886 439.006,406.397 433.373,403.315 C 431.568,404.548 425.634,408.885 420.025,416.094 C 416.117,421.117 413.128,426.535 411.142,432.197 C 409.564,436.69 408.62,441.35 408.312,446.123 L 457.87,446.123"
         id="path5090" /></clipPath><clipPath
       id="clipPath5108"><path
         d="M 399.685,468.15 L 467.716,468.15 L 467.716,398.15 L 399.685,398.15 L 399.685,468.15 z"
         id="path5110" /></clipPath><clipPath
       id="clipPath5114"><path
         d="M 0,841 L 595,841 L 595,0 L 0,0 L 0,841 z"
         id="path5116" /></clipPath><clipPath
       id="clipPath5120"><path
         d="M 0.36,841.68 L 595.8,841.68 L 595.8,0 L 0.36,0 L 0.36,841.68 z"
         id="path5122" /></clipPath><clipPath
       id="clipPath5132"><path
         d="M 484.724,468.15 L 552.756,468.15 L 552.756,398.15 L 484.724,398.15 L 484.724,468.15 z"
         id="path5134" /></clipPath><clipPath
       id="clipPath5138"><path
         d="M 0,841 L 595,841 L 595,0 L 0,0 L 0,841 z"
         id="path5140" /></clipPath><clipPath
       id="clipPath5144"><path
         d="M 0.36,841.68 L 595.8,841.68 L 595.8,0 L 0.36,0 L 0.36,841.68 z"
         id="path5146" /></clipPath><clipPath
       id="clipPath5260"><path
         d="M 149.105,468.15 L 215.598,468.15 L 215.598,398.15 L 149.105,398.15 L 149.105,468.15 z"
         id="path5262" /></clipPath><clipPath
       id="clipPath5266"><path
         d="M 0,841 L 595,841 L 595,0 L 0,0 L 0,841 z"
         id="path5268" /></clipPath><clipPath
       id="clipPath5272"><path
         d="M 0.36,841.68 L 595.8,841.68 L 595.8,0 L 0.36,0 L 0.36,841.68 z"
         id="path5274" /></clipPath><clipPath
       id="clipPath5352"><path
         d="M 229.606,468.15 L 297.638,468.15 L 297.638,398.15 L 229.606,398.15 L 229.606,468.15 z"
         id="path5354" /></clipPath><clipPath
       id="clipPath5358"><path
         d="M 0,841 L 595,841 L 595,0 L 0,0 L 0,841 z"
         id="path5360" /></clipPath><clipPath
       id="clipPath5364"><path
         d="M 0.36,841.68 L 595.8,841.68 L 595.8,0 L 0.36,0 L 0.36,841.68 z"
         id="path5366" /></clipPath><linearGradient
       x1="0"
       y1="0"
       x2="1"
       y2="0"
       id="linearGradient5466"
       gradientUnits="userSpaceOnUse"
       gradientTransform="matrix(0,-31.3668,-55.4292,0,377.1228,452.6494)"
       spreadMethod="pad"><stop
         id="stop5468"
         style="stop-color:#ffffff;stop-opacity:1"
         offset="0" /><stop
         id="stop5470"
         style="stop-color:#231f20;stop-opacity:1"
         offset="1" /></linearGradient><clipPath
       id="clipPath5478"><path
         d="M 314.646,468.15 L 382.677,468.15 L 382.677,398.15 L 314.646,398.15 L 314.646,468.15 z"
         id="path5480" /></clipPath><clipPath
       id="clipPath5484"><path
         d="M 0,841 L 595,841 L 595,0 L 0,0 L 0,841 z"
         id="path5486" /></clipPath><clipPath
       id="clipPath5490"><path
         d="M 0.36,841.68 L 595.8,841.68 L 595.8,0 L 0.36,0 L 0.36,841.68 z"
         id="path5492" /></clipPath><clipPath
       id="clipPath5568"><path
         d="M 399.685,361.567 L 467.716,361.567 L 467.716,291.567 L 399.685,291.567 L 399.685,361.567 z"
         id="path5570" /></clipPath><clipPath
       id="clipPath5574"><path
         d="M 0,841 L 595,841 L 595,0 L 0,0 L 0,841 z"
         id="path5576" /></clipPath><clipPath
       id="clipPath5580"><path
         d="M 0.36,841.68 L 595.8,841.68 L 595.8,0 L 0.36,0 L 0.36,841.68 z"
         id="path5582" /></clipPath><clipPath
       id="clipPath5650"><path
         d="M 484.724,361.567 L 552.756,361.567 L 552.756,291.567 L 484.724,291.567 L 484.724,361.567 z"
         id="path5652" /></clipPath><clipPath
       id="clipPath5656"><path
         d="M 0,841 L 595,841 L 595,0 L 0,0 L 0,841 z"
         id="path5658" /></clipPath><clipPath
       id="clipPath5662"><path
         d="M 0.36,841.68 L 595.8,841.68 L 595.8,0 L 0.36,0 L 0.36,841.68 z"
         id="path5664" /></clipPath><radialGradient
       cx="0"
       cy="0"
       r="1"
       fx="0"
       fy="0"
       id="radialGradient5678"
       gradientUnits="userSpaceOnUse"
       gradientTransform="matrix(16.8629,0,0,-16.8629,518.789,332.9843)"
       spreadMethod="pad"><stop
         id="stop5680"
         style="stop-color:#ffffff;stop-opacity:1"
         offset="0" /><stop
         id="stop5682"
         style="stop-color:#231f20;stop-opacity:1"
         offset="1" /></radialGradient><clipPath
       id="clipPath5690"><path
         d="M 484.724,361.567 L 552.756,361.567 L 552.756,291.567 L 484.724,291.567 L 484.724,361.567 z"
         id="path5692" /></clipPath><clipPath
       id="clipPath5696"><path
         d="M 0,841 L 595,841 L 595,0 L 0,0 L 0,841 z"
         id="path5698" /></clipPath><clipPath
       id="clipPath5702"><path
         d="M 0.36,841.68 L 595.8,841.68 L 595.8,0 L 0.36,0 L 0.36,841.68 z"
         id="path5704" /></clipPath><clipPath
       id="clipPath5788"><path
         d="M 147.567,361.567 L 215.598,361.567 L 215.598,291.567 L 147.567,291.567 L 147.567,361.567 z"
         id="path5790" /></clipPath><clipPath
       id="clipPath5794"><path
         d="M 0,841 L 595,841 L 595,0 L 0,0 L 0,841 z"
         id="path5796" /></clipPath><clipPath
       id="clipPath5800"><path
         d="M 0.36,841.68 L 595.8,841.68 L 595.8,0 L 0.36,0 L 0.36,841.68 z"
         id="path5802" /></clipPath><clipPath
       id="clipPath5998"><path
         d="M 229.606,361.567 L 297.638,361.567 L 297.638,291.567 L 229.606,291.567 L 229.606,361.567 z"
         id="path6000" /></clipPath><clipPath
       id="clipPath6004"><path
         d="M 0,841 L 595,841 L 595,0 L 0,0 L 0,841 z"
         id="path6006" /></clipPath><clipPath
       id="clipPath6010"><path
         d="M 0.36,841.68 L 595.8,841.68 L 595.8,0 L 0.36,0 L 0.36,841.68 z"
         id="path6012" /></clipPath><clipPath
       id="clipPath6104"><path
         d="M 314.646,361.567 L 382.677,361.567 L 382.677,291.567 L 314.646,291.567 L 314.646,361.567 z"
         id="path6106" /></clipPath><clipPath
       id="clipPath6110"><path
         d="M 0,841 L 595,841 L 595,0 L 0,0 L 0,841 z"
         id="path6112" /></clipPath><clipPath
       id="clipPath6116"><path
         d="M 0.36,841.68 L 595.8,841.68 L 595.8,0 L 0.36,0 L 0.36,841.68 z"
         id="path6118" /></clipPath><clipPath
       id="clipPath6254"><path
         d="M 0,841 L 595,841 L 595,0 L 0,0 L 0,841 z"
         id="path6256" /></clipPath><clipPath
       id="clipPath6260"><path
         d="M 0.36,841.68 L 595.8,841.68 L 595.8,0 L 0.36,0 L 0.36,841.68 z"
         id="path6262" /></clipPath></defs><g
     transform="matrix(1.25,0,0,-1.25,-1.9883428,1048.0628)"
     id="g2492"><g
       transform="matrix(9.9621243,0,0,9.9621243,-4852.5485,-3778.2732)"
       id="g5128"><g
         clip-path="url(#clipPath5132)"
         id="g5130"><g
           clip-path="url(#clipPath5138)"
           id="g5136"><g
             clip-path="url(#clipPath5144)"
             id="g5142"><path
               d="M 518.17,404.86 L 526.6,409.184 C 535.683,409.378 541.409,414.48 541.409,414.48 C 547.864,419.621 545.267,429.402 545.267,429.402 L 547.679,431.336 C 543.219,433.355 546.288,436.821 546.288,436.821 C 539.396,438.094 541.4,445.037 541.4,445.037 C 542.954,451.458 546.792,456.105 546.792,456.105 L 544.658,458.918 C 535.586,456.648 530.867,462.147 530.867,462.147 L 526.345,462.147 C 526.345,462.147 524.014,460.157 518.17,460.13 C 512.992,460.106 509.843,462.147 509.843,462.147 L 505.376,462.147 C 505.376,462.147 500.683,456.693 491.599,458.918 L 489.48,456.105 C 489.48,456.105 493.295,451.74 494.93,444.896 C 494.93,444.896 496.974,438.403 490.085,436.821 C 490.085,436.821 493.416,434.303 488.723,431.336 L 491.145,429.402 C 491.145,429.402 488.556,418.87 495.081,414.34 C 495.081,414.34 500.834,409.149 509.919,409.001 L 518.17,404.86"
               id="path5148"
               style="fill:#000000;fill-opacity:1;fill-rule:nonzero;stroke:none" /><path
               d="M 518.047,459.559 C 513.051,459.48 509.539,461.523 509.539,461.523 L 505.455,461.523 C 505.455,461.523 500.636,456.187 491.9,458.249 L 490.311,456.128 C 490.311,456.128 494.383,450.936 495.741,444.547 C 495.741,444.547 497.154,438.328 491.058,436.474 C 491.058,436.474 492.883,434.096 490.439,431.92 L 518.047,431.92 L 518.047,459.559"
               id="path5150"
               style="fill:#f3f3f3;fill-opacity:1;fill-rule:evenodd;stroke:none" /><path
               d="M 545.711,431.92 L 518.047,431.92 L 518.047,405.729 L 526.285,409.78 C 534.837,409.968 540.47,414.678 540.47,414.678 C 547.156,419.718 544.466,429.631 544.466,429.631 L 546.671,431.268 C 546.124,431.505 545.798,431.816 545.711,431.92"
               id="path5152"
               style="fill:#f3f3f3;fill-opacity:1;fill-rule:evenodd;stroke:none" /><path
               d="M 545.711,431.92 C 543.633,433.878 545.306,436.474 545.306,436.474 C 538.698,438.091 540.704,445.158 540.704,445.158 C 542.125,451.496 545.844,456.069 545.844,456.069 L 544.198,458.205 C 535.307,456.276 530.424,461.523 530.424,461.523 L 526.409,461.523 C 526.409,461.523 523.629,459.552 518.106,459.558 C 518.086,459.558 518.067,459.559 518.047,459.559 L 518.047,431.92 L 545.711,431.92"
               id="path5154"
               style="fill:#808080;fill-opacity:1;fill-rule:evenodd;stroke:none" /><path
               d="M 490.439,431.92 C 490.214,431.72 489.954,431.522 489.652,431.327 L 491.814,429.631 C 491.814,429.631 489.248,419.072 495.52,414.898 C 495.52,414.898 501.542,409.742 510.095,409.598 L 518.047,405.729 L 518.047,431.92 L 490.439,431.92"
               id="path5156"
               style="fill:#808080;fill-opacity:1;fill-rule:evenodd;stroke:none" /><path
               d="M 516.502,445.509 C 515.752,445.732 515.619,445.8 514.16,446.738 C 512.701,447.677 512.674,448.269 511.941,448.337 C 511.207,448.405 510.209,448 509.469,448.026 C 508.728,448.052 507.71,448.15 507.71,448.15 C 507.71,448.15 507.18,448.703 506.605,448.981 C 506.031,449.259 505.368,449.68 505.368,449.68 C 505.368,449.68 504.889,449.989 504.706,450.261 C 504.523,450.533 504.173,450.792 504.173,450.792 C 504.173,450.792 504.307,450.725 504.545,450.79 C 504.783,450.855 504.824,450.978 504.824,450.978 L 506.679,449.424 C 506.679,449.424 505.828,450.611 506.102,450.644 C 506.249,450.661 506.304,450.504 506.436,450.609 C 506.054,450.307 507.343,450.21 507.346,450.179 C 507.305,450.686 507.746,451.097 506.92,452.616 C 506.095,454.134 505.71,454.966 505.71,454.966 L 510.171,458.305 L 504.57,455.956 C 504.57,455.956 503.963,457.044 503.631,457.039 C 503.299,457.034 503.016,455.695 503.016,455.695 C 503.016,455.695 500.647,454.124 500.528,451.951 C 500.408,449.777 501.085,448.607 501.756,446.3 C 502.427,443.993 500.255,440.838 498.004,439.857 C 495.752,438.876 497.106,439.433 496.331,439.249 C 495.556,439.064 494.842,438.499 494.496,437.28 C 494.15,436.061 494.227,435.525 494.227,435.525 L 494.556,435.639 C 494.556,435.639 494.498,434.781 494.611,434.087 C 494.724,433.393 495.349,432.671 495.349,432.671 L 495.397,432.836 C 495.397,432.836 495.521,432.705 495.657,432.528 C 495.793,432.351 496.108,432.251 496.108,432.251 C 496.108,432.251 496.109,432.381 496.119,432.444 C 496.129,432.507 496.248,432.225 496.79,431.996 C 497.331,431.767 497.643,431.646 497.643,431.646 L 498.606,430.21 C 498.606,430.21 499.789,428.605 499.607,427.877 C 499.425,427.15 499.353,426.968 499.353,426.968 L 501.304,426.374 C 501.304,426.374 501.343,426.736 500.948,427.351 C 500.553,427.966 500.496,427.998 500.496,427.998 C 500.496,427.998 500.147,429.018 499.721,429.573 C 499.296,430.128 499.015,431.309 499.015,431.309 C 499.015,431.309 499.798,431.666 500.111,431.436 C 500.408,431.217 501.055,431.764 501.055,431.764 C 501.055,431.764 501.896,431.719 502.077,431.187 C 502.258,430.654 502.912,430.731 502.469,431.181 C 502.026,431.63 501.126,432.946 501.126,432.946 L 501.141,433.16 L 500.437,433.288 L 501.638,434.547 C 501.638,434.547 503.185,433.636 503.41,432.617 C 503.635,431.599 502.904,430.428 502.783,429.82 C 502.662,429.212 503.812,428.786 503.812,428.786 C 503.812,428.786 504.666,428.065 504.88,427.484 C 505.094,426.901 504.912,426.674 504.912,426.674 L 506.76,426.338 C 506.76,426.338 506.7,426.848 506.213,427.285 C 505.726,427.721 505.158,428.541 505.158,428.541 C 505.158,428.541 504.028,429.594 504.121,430.533 C 504.214,431.471 505.922,433.42 505.586,433.894 C 505.25,434.368 504.169,436.216 504.169,436.216 C 504.169,436.216 503.236,437.711 503.774,438.59 C 504.313,439.47 506.596,439.011 507.752,441.256 C 508.908,443.501 508.924,444.475 509.185,444.928 C 509.446,445.38 510.933,446.369 511.264,446.244 C 511.595,446.118 512.173,445.231 512.084,444.813 C 511.994,444.395 511.546,443.434 510.867,443.21 C 510.189,442.985 509.624,442.697 509.624,442.697 L 510.208,441.092 C 510.208,441.092 510.677,441.18 510.952,441.587 C 511.225,441.993 510.794,442.137 511.721,443.119 C 512.649,444.102 513.323,444.175 513.355,444.495 C 513.387,444.815 513.097,445.063 512.744,445.932 C 512.391,446.8 512.558,446.813 512.558,446.813 C 512.558,446.813 513.16,446.573 513.978,446.141 C 514.797,445.71 515.449,445.526 515.61,444.867 C 515.77,444.208 515.448,444.136 515.448,444.136 L 517.182,443.864 C 517.182,443.864 517.251,445.286 516.502,445.509 z M 497.203,435.505 C 497.076,435.641 496.892,435.627 496.892,435.627 L 496.95,435.725 C 496.95,435.725 496.601,436.379 496.562,436.513 C 496.529,436.629 496.479,437.136 496.479,437.136 L 496.603,437.135 C 496.603,437.135 496.591,438.149 496.643,438.258 C 496.769,438.517 497.476,438.41 497.476,438.41 C 497.476,438.41 497.292,437.423 497.673,436.724 C 498.054,436.024 498.608,434.49 498.608,434.49 C 498.608,434.49 497.573,435.113 497.203,435.505"
               id="path5158"
               style="fill:#000000;fill-opacity:1;fill-rule:nonzero;stroke:none" /><path
               d="M 503.423,438.387 C 503.423,438.387 503.325,437.036 504.039,435.972 C 504.753,434.908 504.966,434.566 505.095,433.847 C 505.225,433.128 504.067,431.253 503.993,430.55 C 503.918,429.846 504.654,429.039 505,428.629 C 505.346,428.218 505.761,427.599 505.761,427.599 C 505.761,427.599 506.199,427.368 506.447,426.866 C 506.696,426.365 506.592,426.493 506.592,426.493 L 505.571,426.7 C 505.571,426.7 505.06,427.988 504.476,428.463 C 503.892,428.938 503.492,429.272 503.365,429.751 C 503.237,430.231 503.835,431.6 503.908,432.542 C 503.98,433.485 501.753,434.781 501.753,434.781 C 501.753,434.781 502.153,435.077 502.383,435.969 C 502.613,436.862 502.553,436.873 502.7,437.389 C 502.847,437.905 503.423,438.387 503.423,438.387 z"
               id="path5160"
               style="fill:#cccccc;fill-opacity:1;fill-rule:nonzero;stroke:#000000;stroke-width:0.06;stroke-linecap:butt;stroke-linejoin:miter;stroke-miterlimit:4;stroke-dasharray:none;stroke-opacity:1" /><path
               d="M 505.553,454.821 C 505.553,454.821 506.404,453.506 507.153,452.283 C 508.041,450.831 507.961,450.953 508.004,450.337 C 508.002,450.374 507.428,449.505 507.428,449.505 C 507.428,449.505 507.29,449.846 507.228,449.89 C 506.982,450.068 506.658,450.437 506.602,450.39 C 506.517,450.317 506.564,450.402 506.452,450.363 C 506.167,450.265 506.89,449.943 506.928,449.68 C 506.961,449.443 507.228,449.514 507.203,449.483 C 507.09,449.338 506.752,449.207 506.752,449.207 L 506.402,449.68 L 505.225,450.942 C 505.225,450.942 504.778,450.894 504.456,450.963 C 503.817,451.101 503.942,450.731 503.942,450.731 C 503.942,450.731 504.142,451.064 504.642,450.212 C 505.143,449.361 505.117,449.453 505.117,449.453 C 505.117,449.453 505.881,449.314 506.573,448.993 C 507.264,448.671 507.73,448.109 507.73,448.109 C 507.73,448.109 508.872,448.01 509.784,448.017 C 510.696,448.025 511.358,448.274 511.849,448.12 C 512.341,447.965 514.179,446.566 515.296,446.059 C 516.412,445.552 516.381,445.492 516.647,444.966 C 516.911,444.44 516.712,444.107 516.712,444.107 L 515.556,444.252 C 515.556,444.252 515.713,445.306 515.252,445.546 C 514.414,445.98 513.779,446.27 513.779,446.27 L 512.449,446.929 C 512.449,446.929 512.446,447.599 511.615,447.706 C 510.996,447.84 510.502,447.725 509.748,447.671 C 508.994,447.618 507.81,447.851 507.81,447.851 L 509.697,447.48 C 509.697,447.48 511.398,447.6 511.894,447.519 C 512.187,447.472 512.608,446.02 512.69,445.816 C 512.924,445.23 513.194,444.986 513.152,444.602 C 513.109,444.219 512.266,443.873 511.922,443.544 C 511.578,443.216 511.134,442.406 511.134,442.406 C 511.134,442.406 510.971,442.044 510.725,441.807 C 510.346,441.44 510.336,441.704 510.336,441.704 L 509.933,442.776 C 509.933,442.776 510.528,442.972 511.087,443.37 C 511.814,443.89 511.953,444.234 512.121,444.877 C 512.289,445.52 511.223,446.583 511.223,446.583 C 510.996,446.646 509.591,445.782 509.192,445.116 C 508.992,444.783 508.696,443.707 508.214,442.731 C 507.732,441.754 507.742,441.285 506.813,440.541 C 505.883,439.798 503.588,439.303 503.027,439.036 C 502.465,438.768 502.187,436.581 501.951,435.777 C 501.715,434.973 500.857,433.912 500.183,433.339 C 499.51,432.767 498.991,431.753 498.991,431.753 C 498.991,431.753 499.553,432.405 499.748,432.644 C 499.943,432.884 500.465,433.288 500.465,433.288 L 501.124,433.147 L 501.069,432.94 L 501.511,432.359 L 502.526,431.11 C 502.526,431.11 502.419,430.457 502.115,431.25 C 501.9,431.813 501.037,432.12 501.037,432.12 C 501.037,432.12 500.521,431.482 500.146,431.608 C 499.166,431.938 499.052,431.373 499.052,431.373 C 499.052,431.373 499.125,430.686 499.43,430.022 C 499.734,429.359 499.868,429.421 500.033,429.044 C 500.199,428.666 500.47,428.052 500.47,428.052 C 500.47,428.052 500.793,427.624 501.041,427.122 C 501.289,426.621 501.232,426.523 501.232,426.523 L 499.462,427.084 C 499.462,427.084 499.686,427.564 499.733,428.099 C 499.78,428.633 499.325,429.39 498.839,430.456 C 498.081,431.506 498.062,431.64 498.075,432.224 C 498.089,432.808 499.103,433.688 499.158,434.395 C 499.212,435.102 498.819,435.478 498.238,436.474 C 497.658,437.47 497.691,438.55 497.691,438.55 C 497.691,438.55 497.3,438.687 496.807,438.581 C 496.403,438.494 496.541,437.347 496.541,437.347 C 496.541,437.347 496.345,437.422 496.346,437.296 C 496.356,436.599 496.497,436.204 496.497,436.204 L 496.823,435.797 L 496.632,435.767 L 498.574,434.371 C 498.574,434.371 498.758,434.229 498.558,433.896 C 498.358,433.563 498.135,433.212 497.807,432.729 C 497.479,432.245 497.611,431.917 497.611,431.917 L 496.124,432.687 L 496.036,432.529 L 495.393,433.073 L 495.335,432.918 C 495.335,432.918 495.156,433.292 494.772,434.15 C 494.561,434.623 494.615,435.829 494.615,435.829 C 494.615,435.829 494.465,435.689 494.478,435.876 C 494.505,436.288 494.615,437.09 494.992,437.738 C 495.54,438.681 495.965,438.995 496.69,439.254 C 497.416,439.513 498.923,439.999 500.183,440.987 C 502.346,442.809 502.866,443.374 502.552,445.813 C 502.237,448.253 500.872,449.776 500.938,452.211 C 501.003,454.647 503.147,455.902 503.147,455.902 C 503.147,455.902 503.466,456.879 503.637,456.913 C 503.808,456.947 504.932,455.352 504.932,455.352 L 509.731,457.995 L 505.553,454.821 z"
               id="path5162"
               style="fill:#cccccc;fill-opacity:1;fill-rule:nonzero;stroke:#000000;stroke-width:0.06;stroke-linecap:butt;stroke-linejoin:miter;stroke-miterlimit:4;stroke-dasharray:none;stroke-opacity:1" /><path
               d="M 504.591,454.069 L 504.721,454.189 C 504.721,454.189 505.07,454.231 505.298,453.938 C 505.527,453.645 505.552,453.021 505.552,453.021 C 505.552,453.021 505.35,453.42 505.164,453.732 C 504.978,454.044 504.591,454.069 504.591,454.069 z"
               id="path5164"
               style="fill:#000000;fill-opacity:1;fill-rule:nonzero;stroke:#000000;stroke-width:0.107;stroke-linecap:butt;stroke-linejoin:miter;stroke-miterlimit:4;stroke-dasharray:none;stroke-opacity:1" /><path
               d="M 537.536,434.487 C 537.536,434.487 538.089,436.022 538.47,436.721 C 538.852,437.42 538.668,438.408 538.668,438.408 C 538.668,438.408 539.375,438.515 539.5,438.255 C 539.553,438.146 539.541,437.133 539.541,437.133 L 539.665,437.134 C 539.665,437.134 539.614,436.627 539.581,436.51 C 539.543,436.377 539.194,435.723 539.194,435.723 L 539.251,435.625 C 539.251,435.625 539.068,435.638 538.941,435.503 C 538.571,435.11 537.536,434.487 537.536,434.487 z M 518.961,443.862 L 520.696,444.134 C 520.696,444.134 520.373,444.205 520.534,444.865 C 520.694,445.524 521.347,445.707 522.165,446.139 C 522.984,446.57 523.586,446.81 523.586,446.81 C 523.586,446.81 523.753,446.797 523.4,445.929 C 523.046,445.061 522.756,444.812 522.788,444.493 C 522.821,444.173 523.495,444.1 524.422,443.117 C 525.35,442.134 524.919,441.991 525.192,441.584 C 525.466,441.178 525.936,441.089 525.936,441.089 L 526.52,442.695 C 526.52,442.695 525.955,442.983 525.276,443.207 C 524.598,443.431 524.15,444.392 524.06,444.811 C 523.971,445.229 524.548,446.116 524.879,446.241 C 525.21,446.367 526.698,445.377 526.958,444.925 C 527.219,444.473 527.235,443.498 528.392,441.253 C 529.548,439.009 531.831,439.468 532.369,438.588 C 532.907,437.708 531.975,436.213 531.975,436.213 C 531.975,436.213 530.893,434.365 530.558,433.892 C 530.222,433.418 531.93,431.469 532.023,430.53 C 532.115,429.591 530.986,428.538 530.986,428.538 C 530.986,428.538 530.417,427.718 529.931,427.282 C 529.444,426.846 529.383,426.335 529.383,426.335 L 531.231,426.671 C 531.231,426.671 531.049,426.899 531.263,427.481 C 531.478,428.063 532.331,428.783 532.331,428.783 C 532.331,428.783 533.482,429.209 533.361,429.818 C 533.24,430.426 532.509,431.596 532.734,432.615 C 532.959,433.633 534.505,434.544 534.505,434.544 L 535.706,433.286 L 535.003,433.158 L 535.018,432.943 C 535.018,432.943 534.117,431.628 533.674,431.178 C 533.232,430.728 533.885,430.651 534.066,431.184 C 534.248,431.717 535.089,431.761 535.089,431.761 C 535.089,431.761 535.736,431.215 536.032,431.433 C 536.346,431.664 537.129,431.307 537.129,431.307 C 537.129,431.307 536.848,430.126 536.422,429.57 C 535.997,429.015 535.648,427.996 535.648,427.996 C 535.648,427.996 535.591,427.964 535.196,427.349 C 534.8,426.734 534.84,426.371 534.84,426.371 L 536.79,426.965 C 536.79,426.965 536.718,427.148 536.536,427.875 C 536.354,428.602 537.538,430.208 537.538,430.208 L 538.501,431.643 C 538.501,431.643 538.812,431.765 539.354,431.994 C 539.895,432.222 540.014,432.505 540.025,432.441 C 540.035,432.378 540.036,432.248 540.036,432.248 C 540.036,432.248 540.35,432.349 540.487,432.526 C 540.623,432.702 540.746,432.833 540.746,432.833 L 540.794,432.668 C 540.794,432.668 541.42,433.39 541.533,434.084 C 541.646,434.779 541.587,435.637 541.587,435.637 L 541.917,435.523 C 541.917,435.523 541.994,436.058 541.648,437.277 C 541.302,438.496 540.588,439.061 539.813,439.246 C 539.037,439.431 540.391,438.874 538.14,439.854 C 535.888,440.835 533.716,443.991 534.387,446.298 C 535.058,448.605 535.735,449.775 535.616,451.948 C 535.496,454.121 533.128,455.692 533.128,455.692 C 533.128,455.692 532.844,457.032 532.513,457.036 C 532.181,457.041 531.574,455.953 531.574,455.953 L 525.973,458.302 L 530.434,454.964 C 530.434,454.964 530.049,454.132 529.223,452.613 C 528.398,451.094 528.838,450.684 528.798,450.177 C 528.8,450.207 530.089,450.305 529.707,450.606 C 529.84,450.502 529.895,450.659 530.041,450.641 C 530.316,450.608 529.465,449.422 529.465,449.422 L 531.319,450.975 C 531.319,450.975 531.36,450.853 531.599,450.787 C 531.837,450.722 531.971,450.79 531.971,450.79 C 531.971,450.79 531.62,450.53 531.438,450.258 C 531.255,449.986 530.776,449.677 530.776,449.677 C 530.776,449.677 530.113,449.257 529.538,448.979 C 528.964,448.7 528.434,448.148 528.434,448.148 C 528.434,448.148 527.416,448.049 526.675,448.024 C 525.935,447.997 524.937,448.402 524.203,448.334 C 523.469,448.266 523.443,447.675 521.984,446.736 C 520.525,445.797 520.391,445.729 519.642,445.506 C 518.892,445.283 518.961,443.862 518.961,443.862"
               id="path5166"
               style="fill:#000000;fill-opacity:1;fill-rule:nonzero;stroke:none" /><path
               d="M 532.72,438.385 C 532.72,438.385 532.819,437.034 532.105,435.97 C 531.391,434.906 531.178,434.563 531.049,433.844 C 530.919,433.126 532.076,431.251 532.151,430.547 C 532.226,429.844 531.49,429.037 531.143,428.626 C 530.798,428.215 530.382,427.597 530.382,427.597 C 530.382,427.597 529.945,427.365 529.697,426.864 C 529.448,426.362 529.551,426.49 529.551,426.49 L 530.572,426.697 C 530.572,426.697 531.084,427.985 531.667,428.46 C 532.251,428.936 532.651,429.27 532.779,429.749 C 532.907,430.228 532.309,431.597 532.236,432.54 C 532.163,433.482 534.391,434.778 534.391,434.778 C 534.391,434.778 533.991,435.074 533.76,435.967 C 533.531,436.859 533.591,436.87 533.444,437.387 C 533.296,437.903 532.72,438.385 532.72,438.385 z"
               id="path5168"
               style="fill:#cccccc;fill-opacity:1;fill-rule:nonzero;stroke:#000000;stroke-width:0.06;stroke-linecap:butt;stroke-linejoin:miter;stroke-miterlimit:4;stroke-dasharray:none;stroke-opacity:1" /><path
               d="M 530.591,454.818 C 530.591,454.818 529.74,453.504 528.991,452.28 C 528.103,450.828 528.139,450.335 528.139,450.335 L 528.715,449.502 C 528.715,449.502 528.854,449.843 528.916,449.888 C 529.161,450.066 529.486,450.434 529.542,450.387 C 529.627,450.314 529.58,450.4 529.692,450.361 C 529.977,450.263 529.254,449.94 529.216,449.677 C 529.182,449.44 528.916,449.512 528.941,449.48 C 529.053,449.336 529.391,449.204 529.391,449.204 L 529.742,449.677 L 530.919,450.939 C 530.919,450.939 531.366,450.891 531.688,450.961 C 532.327,451.099 532.202,450.728 532.202,450.728 C 532.202,450.728 532.027,451.044 531.501,450.21 C 531.057,449.505 531.026,449.45 531.026,449.45 C 531.026,449.45 530.263,449.311 529.571,448.99 C 528.879,448.669 528.414,448.106 528.414,448.106 C 528.414,448.106 527.271,448.007 526.36,448.015 C 525.448,448.023 524.786,448.272 524.294,448.117 C 523.803,447.963 521.964,446.564 520.848,446.057 C 519.732,445.55 519.762,445.49 519.497,444.964 C 519.232,444.438 519.432,444.105 519.432,444.105 L 520.587,444.25 C 520.587,444.25 520.43,445.304 520.891,445.543 C 521.73,445.978 522.365,446.267 522.365,446.267 L 523.694,446.926 C 523.694,446.926 523.697,447.596 524.528,447.703 C 525.147,447.838 525.642,447.723 526.396,447.669 C 527.149,447.616 528.334,447.848 528.334,447.848 L 526.446,447.477 C 526.446,447.477 524.746,447.598 524.25,447.517 C 523.956,447.469 523.535,446.018 523.454,445.813 C 523.219,445.228 522.949,444.983 522.992,444.6 C 523.034,444.216 523.878,443.87 524.222,443.542 C 524.565,443.213 525.009,442.403 525.009,442.403 C 525.009,442.403 525.172,442.042 525.418,441.804 C 525.798,441.438 525.808,441.701 525.808,441.701 L 526.21,442.774 C 526.21,442.774 525.615,442.969 525.057,443.368 C 524.33,443.887 524.19,444.231 524.022,444.874 C 523.854,445.517 524.92,446.58 524.92,446.58 C 525.148,446.643 526.552,445.78 526.952,445.114 C 527.151,444.781 527.448,443.705 527.93,442.728 C 528.412,441.751 528.401,441.282 529.331,440.539 C 530.26,439.795 532.556,439.3 533.117,439.033 C 533.678,438.766 533.956,436.579 534.193,435.775 C 534.429,434.97 535.286,433.91 535.96,433.337 C 536.634,432.764 537.153,431.751 537.153,431.751 C 537.153,431.751 536.591,432.402 536.396,432.642 C 536.201,432.881 535.679,433.286 535.679,433.286 L 535.02,433.144 L 535.074,432.937 L 534.632,432.357 L 533.617,431.108 C 533.617,431.108 533.725,430.454 534.029,431.248 C 534.244,431.81 535.106,432.117 535.106,432.117 C 535.106,432.117 535.622,431.479 535.997,431.606 C 536.977,431.936 537.091,431.37 537.091,431.37 C 537.091,431.37 537.018,430.683 536.714,430.02 C 536.41,429.356 536.275,429.419 536.11,429.041 C 535.945,428.663 535.673,428.049 535.673,428.049 C 535.673,428.049 535.351,427.621 535.103,427.12 C 534.854,426.618 534.912,426.52 534.912,426.52 L 536.682,427.081 C 536.682,427.081 536.457,427.562 536.411,428.096 C 536.364,428.631 536.818,429.387 537.305,430.453 C 538.063,431.503 538.082,431.637 538.068,432.221 C 538.055,432.805 537.04,433.685 536.986,434.392 C 536.931,435.099 537.325,435.475 537.905,436.471 C 538.486,437.468 538.452,438.548 538.452,438.548 C 538.452,438.548 538.844,438.684 539.337,438.578 C 539.741,438.492 539.602,437.345 539.602,437.345 C 539.602,437.345 539.799,437.419 539.797,437.293 C 539.788,436.597 539.646,436.201 539.646,436.201 L 539.32,435.795 L 539.512,435.764 L 537.569,434.368 C 537.569,434.368 537.386,434.226 537.586,433.893 C 537.785,433.56 538.009,433.21 538.337,432.726 C 538.665,432.243 538.532,431.915 538.532,431.915 L 540.019,432.685 L 540.108,432.527 L 540.751,433.071 L 540.809,432.915 C 540.809,432.915 540.988,433.289 541.371,434.147 C 541.583,434.62 541.529,435.827 541.529,435.827 C 541.529,435.827 541.678,435.686 541.666,435.874 C 541.639,436.285 541.529,437.087 541.152,437.735 C 540.603,438.678 540.179,438.992 539.454,439.251 C 538.728,439.51 537.22,439.997 535.961,440.984 C 533.798,442.807 533.278,443.371 533.592,445.811 C 533.906,448.25 535.272,449.773 535.206,452.209 C 535.14,454.645 532.997,455.9 532.997,455.9 C 532.997,455.9 532.677,456.876 532.506,456.91 C 532.335,456.944 531.212,455.35 531.212,455.35 L 526.413,457.992 L 530.591,454.818 z"
               id="path5170"
               style="fill:#cccccc;fill-opacity:1;fill-rule:nonzero;stroke:#000000;stroke-width:0.06;stroke-linecap:butt;stroke-linejoin:miter;stroke-miterlimit:4;stroke-dasharray:none;stroke-opacity:1" /><path
               d="M 531.552,454.066 L 531.423,454.187 C 531.423,454.187 531.073,454.229 530.845,453.935 C 530.617,453.642 530.592,453.018 530.592,453.018 C 530.592,453.018 530.793,453.417 530.979,453.73 C 531.166,454.042 531.552,454.066 531.552,454.066 z"
               id="path5172"
               style="fill:#000000;fill-opacity:1;fill-rule:nonzero;stroke:#000000;stroke-width:0.107;stroke-linecap:butt;stroke-linejoin:miter;stroke-miterlimit:4;stroke-dasharray:none;stroke-opacity:1" /><path
               d="M 528.733,426.277 C 528.182,425.73 527.675,425.321 527.214,425.05 C 526.41,424.571 525.532,424.333 524.579,424.333 C 524.052,424.333 523.564,424.419 523.11,424.583 C 522.428,424.83 521.827,425.258 521.311,425.876 C 521.262,425.934 521.219,425.998 521.173,426.059 C 520.408,427.066 520.02,428.38 520.02,430.007 C 520.02,430.034 520.022,430.059 520.022,430.086 L 519.991,431.84 C 520.049,431.803 520.102,431.766 520.159,431.729 C 520.339,432.807 520.699,433.709 521.248,434.425 C 521.541,434.808 521.865,435.12 522.218,435.366 C 522.091,435.725 521.949,436.052 521.791,436.349 C 520.953,436.015 520.214,435.497 519.58,434.784 C 518.447,433.506 517.88,431.926 517.88,430.044 C 517.88,430.027 517.881,430.009 517.881,429.991 L 517.611,430.168 L 517.728,429.63 C 517.793,429.472 517.806,429.1 517.918,428.778 C 518.03,428.455 518.107,428.124 518.107,428.067 C 518.107,428.036 518.116,428.021 518.131,428.017 C 518.387,427.048 518.839,426.191 519.49,425.447 C 519.871,425.011 520.301,424.654 520.771,424.361 C 521.274,424.047 521.828,423.816 522.432,423.666 C 522.982,423.53 523.568,423.455 524.201,423.455 C 525.406,423.455 526.524,423.801 527.555,424.493 C 528.161,424.902 528.667,425.377 529.075,425.919 L 528.733,426.277 z"
               id="path5174"
               style="fill:#007ac1;fill-opacity:1;fill-rule:evenodd;stroke:#000000;stroke-width:0.12;stroke-linecap:butt;stroke-linejoin:miter;stroke-miterlimit:4;stroke-dasharray:none;stroke-opacity:1" /><path
               d="M 524.408,436.03 C 525.685,436.03 526.701,435.533 527.456,434.539 C 527.852,434.01 528.173,433.314 528.418,432.452 L 528.841,432.452 L 528.67,436.795 L 528.284,436.795 C 528.224,436.581 528.116,436.424 527.96,436.323 C 527.804,436.222 527.639,436.172 527.465,436.172 C 527.381,436.172 526.989,436.276 526.287,436.484 C 525.586,436.691 524.903,436.795 524.237,436.795 C 523.762,436.795 523.31,436.753 522.88,436.671 L 522.969,435.766 C 523.411,435.94 523.89,436.03 524.408,436.03 z"
               id="path5176"
               style="fill:#007ac1;fill-opacity:1;fill-rule:evenodd;stroke:#000000;stroke-width:0.12;stroke-linecap:butt;stroke-linejoin:miter;stroke-miterlimit:4;stroke-dasharray:none;stroke-opacity:1" /><path
               d="M 516.547,438.393 L 514.842,442.468 L 514.41,442.468 L 509.803,431.082 C 509.113,429.375 508.625,428.329 508.341,427.944 C 508.057,427.559 507.631,427.332 507.062,427.264 L 507.062,426.845 L 511.443,426.845 L 511.443,427.264 C 510.925,427.31 510.573,427.378 510.386,427.468 C 510.084,427.619 509.933,427.891 509.933,428.284 C 509.933,428.48 509.988,428.746 510.1,429.083 C 510.211,429.419 510.555,430.346 511.13,431.864 L 515.109,431.864 C 514.81,432.107 514.547,432.35 514.333,432.595 C 514.274,432.664 514.221,432.734 514.167,432.805 L 511.519,432.805 L 514.044,439.194 L 515.443,435.699 C 515.443,435.699 515.825,435.007 516.047,434.735 C 516.431,434.257 517.026,433.757 517.833,433.237 L 519.028,432.464 L 516.547,438.393 z"
               id="path5178"
               style="fill:#007ac1;fill-opacity:1;fill-rule:evenodd;stroke:#000000;stroke-width:0.12;stroke-linecap:butt;stroke-linejoin:miter;stroke-miterlimit:4;stroke-dasharray:none;stroke-opacity:1" /><path
               d="M 522.845,429.436 C 522.317,430.134 521.418,430.899 520.159,431.729 C 520.102,431.766 519.028,432.464 519.028,432.464 L 517.833,433.237 C 517.026,433.757 516.472,434.293 516.047,434.735 C 515.802,434.991 515.443,435.699 515.443,435.699 L 514.375,438.365 C 513.654,437.53 513.289,436.506 513.289,435.289 C 513.289,434.39 513.584,433.562 514.167,432.805 C 514.221,432.734 514.274,432.664 514.333,432.595 C 514.547,432.35 514.81,432.107 515.109,431.864 C 515.332,431.683 515.573,431.503 515.843,431.324 L 517.611,430.168 L 517.941,429.952 C 519.148,429.163 519.939,428.571 520.315,428.177 C 520.685,427.778 520.934,427.334 521.066,426.845 C 521.134,426.595 521.168,426.332 521.173,426.059 C 521.219,425.998 521.262,425.934 521.311,425.876 C 521.827,425.258 522.428,424.83 523.11,424.583 C 523.475,425.244 523.66,425.988 523.66,426.817 C 523.66,427.824 523.388,428.697 522.845,429.436 z"
               id="path5180"
               style="fill:#cccccc;fill-opacity:1;fill-rule:evenodd;stroke:#000000;stroke-width:0.12;stroke-linecap:butt;stroke-linejoin:miter;stroke-miterlimit:4;stroke-dasharray:none;stroke-opacity:1" /><path
               d="M 520.321,423.809 C 519.749,423.288 519.072,423.028 518.289,423.028 C 516.842,423.028 515.631,423.628 514.656,424.828 C 514.097,425.516 513.609,426.439 513.194,427.598 L 512.63,427.598 L 513.361,422.109 L 513.901,422.109 C 513.933,422.319 513.999,422.516 514.099,422.701 C 514.198,422.885 514.392,422.978 514.68,422.978 C 514.8,422.978 515.274,422.827 516.101,422.525 C 516.928,422.223 517.721,422.072 518.481,422.072 C 519.991,422.072 521.232,422.525 522.203,423.431 C 522.285,423.507 522.358,423.587 522.432,423.666 C 521.828,423.816 521.274,424.047 520.771,424.361 C 520.648,424.158 520.5,423.972 520.321,423.809 z"
               id="path5182"
               style="fill:#cccccc;fill-opacity:1;fill-rule:evenodd;stroke:#000000;stroke-width:0.12;stroke-linecap:butt;stroke-linejoin:miter;stroke-miterlimit:4;stroke-dasharray:none;stroke-opacity:1" /><path
               d="M 517.977,438.789 C 518.84,438.789 519.713,438.461 520.597,437.807 C 521.063,437.461 521.46,436.972 521.791,436.349 C 521.949,436.052 522.091,435.725 522.218,435.366 C 522.33,435.049 522.432,434.711 522.521,434.345 L 523.108,434.345 L 522.569,439.833 L 522.065,439.833 C 522.001,439.557 521.911,439.343 521.795,439.191 C 521.679,439.041 521.47,438.965 521.166,438.965 C 521.054,438.965 520.605,439.11 519.817,439.399 C 519.03,439.689 518.357,439.833 517.797,439.833 C 517.16,439.833 516.584,439.735 516.065,439.545 L 516.547,438.393 C 516.971,438.653 517.446,438.789 517.977,438.789 z"
               id="path5184"
               style="fill:#cccccc;fill-opacity:1;fill-rule:evenodd;stroke:#000000;stroke-width:0.12;stroke-linecap:butt;stroke-linejoin:miter;stroke-miterlimit:4;stroke-dasharray:none;stroke-opacity:1" /><path
               d="M 510.249,451.9 C 510.289,451.473 510.303,451.117 510.36,450.74 C 510.284,450.709 510.211,450.686 510.136,450.651 C 510.063,450.615 509.993,450.57 509.921,450.53 L 509.788,454.528 C 509.852,454.547 509.909,454.569 509.97,454.598 C 510.03,454.626 510.083,454.658 510.139,454.695 L 512.89,451.935 C 512.752,451.881 512.616,451.833 512.482,451.769 C 512.348,451.705 512.224,451.629 512.095,451.555 C 511.833,451.864 511.593,452.148 511.327,452.414 L 510.249,451.9 z M 511.092,452.659 L 510.191,453.595 L 510.246,452.256 L 511.092,452.659"
               id="path5186"
               style="fill:#000000;fill-opacity:1;fill-rule:nonzero;stroke:none" /><path
               d="M 515.694,456.262 C 515.766,456.266 515.839,456.265 515.909,456.28 C 515.979,456.294 516.05,456.326 516.118,456.351 C 516.54,454.976 516.871,453.86 517.238,452.854 C 517.097,452.835 516.959,452.823 516.82,452.793 C 516.68,452.764 516.558,452.723 516.421,452.683 C 516.223,453.507 515.972,454.286 515.744,455.076 C 515.517,454.196 515.295,453.318 515.096,452.433 C 515.029,452.43 514.968,452.422 514.906,452.393 C 514.45,453.048 513.903,453.777 513.368,454.519 C 513.428,453.574 513.487,452.83 513.611,452.094 C 513.529,452.088 513.451,452.088 513.371,452.072 C 513.292,452.055 513.225,452.025 513.147,451.997 C 513.127,453.087 513.056,454.334 512.974,455.693 C 513.046,455.697 513.113,455.695 513.183,455.709 C 513.253,455.724 513.32,455.754 513.388,455.78 C 513.902,455.033 514.451,454.3 515,453.56 C 515.218,454.379 515.486,455.289 515.694,456.262"
               id="path5188"
               style="fill:#000000;fill-opacity:1;fill-rule:nonzero;stroke:none" /><path
               d="M 517.638,456.409 C 517.765,456.401 517.892,456.387 518.019,456.39 C 518.146,456.392 518.273,456.411 518.399,456.423 L 518.468,452.765 C 518.341,452.773 518.213,452.786 518.086,452.784 C 517.959,452.781 517.833,452.762 517.706,452.749 L 517.638,456.409"
               id="path5190"
               style="fill:#000000;fill-opacity:1;fill-rule:nonzero;stroke:none" /><path
               d="M 521.259,456.204 C 521.241,456.13 521.219,456.052 521.212,455.978 C 521.205,455.904 521.212,455.823 521.215,455.747 C 520.911,455.823 520.571,455.901 520.054,455.945 L 519.945,454.804 L 520.471,454.748 C 520.698,454.724 520.908,454.723 521.097,454.73 C 521.08,454.657 521.057,454.579 521.05,454.504 C 521.043,454.43 521.051,454.349 521.054,454.274 C 520.869,454.32 520.664,454.363 520.436,454.387 L 519.91,454.442 L 519.781,453.094 C 520.298,453.045 520.644,453.035 520.956,453.045 C 520.939,452.972 520.917,452.894 520.91,452.82 C 520.902,452.745 520.91,452.664 520.913,452.588 L 518.986,452.792 L 519.332,456.407 L 521.259,456.204"
               id="path5192"
               style="fill:#000000;fill-opacity:1;fill-rule:nonzero;stroke:none" /><path
               d="M 522.37,456.023 L 522.852,455.873 C 523.32,454.865 523.827,453.862 524.282,452.825 L 524.957,455.219 C 525.018,455.189 525.084,455.163 525.148,455.143 C 525.211,455.123 525.281,455.107 525.347,455.098 L 524.357,451.588 L 523.944,451.722 C 523.566,452.558 523.217,453.35 522.838,454.13 L 522.471,454.879 L 521.773,452.403 C 521.711,452.427 521.646,452.459 521.582,452.479 C 521.519,452.498 521.448,452.509 521.383,452.524 L 522.37,456.023"
               id="path5194"
               style="fill:#000000;fill-opacity:1;fill-rule:nonzero;stroke:none" /><path
               d="M 527.623,453.156 C 527.656,453.457 527.563,453.711 527.306,453.85 C 526.949,454.043 526.714,453.924 526.581,453.654 C 526.267,453.014 527.698,452.39 527.166,451.304 C 526.868,450.697 526.157,450.53 525.457,450.908 C 525.209,451.043 524.973,451.248 524.83,451.505 C 524.982,451.675 525.13,451.847 525.257,452.037 L 525.342,451.99 C 525.25,451.627 525.398,451.3 525.71,451.132 C 525.99,450.98 526.319,451.012 526.48,451.339 C 526.852,452.098 525.372,452.55 525.932,453.693 C 526.2,454.238 526.777,454.496 527.464,454.125 C 527.789,453.949 528.015,453.664 528.066,453.511 C 527.937,453.389 527.815,453.257 527.691,453.12 L 527.623,453.156"
               id="path5196"
               style="fill:#000000;fill-opacity:1;fill-rule:nonzero;stroke:none" /><path
               d="M 505.47,420.502 C 505.38,420.608 505.294,420.717 505.197,420.814 C 505.1,420.912 504.991,420.997 504.886,421.086 L 507.431,423.891 L 508.914,422.408 C 508.855,422.358 508.788,422.309 508.736,422.251 C 508.684,422.194 508.64,422.121 508.596,422.055 C 508.384,422.321 508.157,422.603 507.748,423.012 L 506.95,422.133 L 507.363,421.72 C 507.515,421.569 507.686,421.429 507.868,421.286 C 507.808,421.237 507.741,421.187 507.689,421.13 C 507.637,421.073 507.593,421 507.549,420.934 C 507.4,421.114 507.263,421.291 507.107,421.446 L 506.698,421.855 L 505.47,420.502"
               id="path5198"
               style="fill:#000000;fill-opacity:1;fill-rule:nonzero;stroke:none" /><path
               d="M 508.82,417.739 C 507.793,418.368 507.453,419.426 508.068,420.534 C 508.606,421.505 509.716,421.879 510.874,421.171 C 512.198,420.36 512.045,419.14 511.629,418.381 C 511.106,417.426 509.959,417.043 508.82,417.739 z M 508.76,419.921 C 508.408,419.286 508.309,418.445 509.006,418.018 C 509.722,417.58 510.46,418.136 510.909,418.946 C 511.259,419.575 511.38,420.468 510.683,420.895 C 510.037,421.29 509.367,421.014 508.76,419.921"
               id="path5200"
               style="fill:#000000;fill-opacity:1;fill-rule:nonzero;stroke:none" /><path
               d="M 513.671,415.676 C 512.514,415.966 511.897,416.876 512.181,418.123 C 512.43,419.217 513.39,419.911 514.693,419.584 C 516.185,419.21 516.373,417.995 516.184,417.142 C 515.945,416.069 514.953,415.354 513.671,415.676 z M 513.013,417.746 C 512.851,417.032 512.987,416.196 513.772,415.999 C 514.578,415.796 515.132,416.552 515.339,417.464 C 515.501,418.173 515.372,419.065 514.587,419.262 C 513.86,419.445 513.294,418.977 513.013,417.746"
               id="path5202"
               style="fill:#000000;fill-opacity:1;fill-rule:nonzero;stroke:none" /><path
               d="M 518.459,415.207 C 518.324,415.218 518.19,415.234 518.055,415.233 C 517.921,415.233 517.786,415.215 517.652,415.203 L 517.634,418.677 C 517.252,418.675 516.913,418.633 516.633,418.592 C 516.644,418.671 516.659,418.751 516.659,418.835 C 516.659,418.914 516.642,418.993 516.631,419.073 L 519.402,419.088 C 519.391,419.009 519.376,418.93 519.376,418.851 C 519.376,418.766 519.393,418.687 519.404,418.608 C 519.087,418.646 518.769,418.683 518.441,418.682 L 518.459,415.207"
               id="path5204"
               style="fill:#000000;fill-opacity:1;fill-rule:nonzero;stroke:none" /><path
               d="M 519.867,419.15 L 521.225,419.453 C 521.756,419.572 522.31,419.499 522.441,418.852 C 522.546,418.333 522.191,417.942 521.757,417.776 L 521.767,417.726 C 522.165,417.774 522.76,417.711 522.899,417.026 C 523.053,416.263 522.466,415.797 521.845,415.658 L 520.629,415.387 L 519.867,419.15 z M 520.986,417.702 C 521.212,417.752 521.416,417.775 521.563,417.975 C 521.697,418.155 521.716,418.385 521.673,418.6 C 521.592,418.998 521.333,419.165 520.985,419.088 C 520.901,419.069 520.823,419.046 520.721,419.006 L 520.986,417.702 z M 521.354,415.884 L 521.617,415.942 C 521.906,416.007 522.184,416.346 522.091,416.805 C 521.968,417.413 521.604,417.551 521.05,417.381 L 521.354,415.884"
               id="path5206"
               style="fill:#000000;fill-opacity:1;fill-rule:nonzero;stroke:none" /><path
               d="M 524.283,417.664 C 524.328,417.212 524.348,416.835 524.412,416.437 C 524.331,416.404 524.253,416.378 524.176,416.34 C 524.098,416.302 524.024,416.254 523.948,416.21 L 523.77,420.441 C 523.837,420.462 523.898,420.485 523.961,420.517 C 524.025,420.547 524.081,420.581 524.14,420.621 L 527.078,417.728 C 526.932,417.669 526.789,417.618 526.648,417.549 C 526.506,417.48 526.377,417.398 526.24,417.318 C 525.959,417.642 525.703,417.94 525.419,418.219 L 524.283,417.664 z M 525.168,418.477 L 524.205,419.457 L 524.276,418.04 L 525.168,418.477"
               id="path5208"
               style="fill:#000000;fill-opacity:1;fill-rule:nonzero;stroke:none" /><path
               d="M 528.328,419.214 C 528.704,419.507 529.001,419.788 529.272,420.049 C 529.308,419.979 529.344,419.901 529.388,419.837 C 529.433,419.774 529.494,419.716 529.548,419.659 L 527.912,418.383 L 525.727,421.47 C 525.841,421.545 525.958,421.615 526.066,421.7 C 526.174,421.784 526.272,421.882 526.374,421.975 L 528.328,419.214"
               id="path5210"
               style="fill:#000000;fill-opacity:1;fill-rule:nonzero;stroke:none" /><path
               d="M 530.637,421.344 C 530.958,421.701 531.204,422.032 531.428,422.339 C 531.475,422.276 531.523,422.206 531.578,422.152 C 531.633,422.097 531.702,422.051 531.764,422.005 L 530.364,420.448 L 527.7,423.09 C 527.8,423.185 527.904,423.276 527.997,423.379 C 528.089,423.482 528.17,423.596 528.254,423.706 L 530.637,421.344"
               id="path5212"
               style="fill:#000000;fill-opacity:1;fill-rule:nonzero;stroke:none" /><path
               d="M 536.46,422.742 L 536.938,423.064 C 536.914,422.835 536.773,422.445 536.766,422.208 C 537.046,422.208 537.422,422.023 537.569,421.778 C 537.251,421.803 536.889,421.778 536.753,421.38 C 536.691,421.209 536.758,420.957 536.787,420.758 C 536.787,420.758 536.622,420.664 536.583,420.707 C 536.54,420.753 536.491,421.017 536.481,421.023 C 536.346,421.131 536.228,421.237 536.004,421.1 L 535.611,420.553 C 535.572,420.888 535.484,421.252 535.724,421.547 C 535.664,421.6 535.537,421.661 535.537,421.661 C 535.304,421.767 534.991,421.902 534.765,422.048 C 534.981,422.169 535.193,422.232 535.368,422.503 C 535.737,423.197 535.7,424.02 535.49,424.804 C 535.879,424.2 536.157,423.379 536.46,422.742 z"
               id="path5214"
               style="fill:#cccccc;fill-opacity:1;fill-rule:nonzero;stroke:#000000;stroke-width:0.042;stroke-linecap:butt;stroke-linejoin:miter;stroke-miterlimit:4;stroke-dasharray:none;stroke-opacity:1" /><path
               d="M 536.991,419.505 C 537.333,419.505 537.701,420.021 538.012,420.216 L 538.138,420.055 C 537.788,419.769 536.994,418.961 536.466,418.136 C 536.575,418.063 536.78,418.057 536.92,418.123 L 536.894,417.647 C 535.518,417.165 534.495,416.542 533.638,415.073 L 533.783,414.911 C 534.27,415.231 534.827,415.323 535.387,415.323 C 535.646,415.595 535.645,415.915 535.598,416.218 C 535.792,416.054 536,415.769 536,415.769 C 536.147,416.104 536.624,416.539 536.92,416.735 C 536.867,416.563 536.764,416.313 536.688,415.978 C 536.665,415.937 537.052,416.043 537.075,415.986 C 537.635,415.995 538.185,416.071 538.721,415.687 C 538.192,415.638 537.294,415.66 536.843,415.317 C 536.859,414.998 536.946,414.656 537.062,414.394 C 536.689,414.427 536.307,414.545 536.136,414.945 C 535.849,414.807 535.742,414.44 535.29,414.323 C 535.306,414.502 535.498,414.851 535.382,414.998 C 535.172,415.096 534.797,414.952 534.548,414.911 C 533.623,414.65 532.839,414.241 532.015,413.711 C 531.941,413.857 531.832,414.246 531.869,414.353 C 532.578,414.767 532.797,414.92 533.195,415.303 C 534.031,416.201 534.751,416.946 535.392,417.599 C 536.092,418.306 536.792,419.198 536.753,420.268 L 536.918,420.298 L 536.991,419.505 z"
               id="path5216"
               style="fill:#cccccc;fill-opacity:1;fill-rule:nonzero;stroke:#000000;stroke-width:0.042;stroke-linecap:butt;stroke-linejoin:miter;stroke-miterlimit:4;stroke-dasharray:none;stroke-opacity:1" /><path
               d="M 540.42,418.999 C 541.278,419.334 541.725,419.15 542.259,418.885 C 541.622,418.893 541.278,418.742 540.42,418.329 C 540.249,418.093 540.323,417.776 540.432,417.507 C 540.02,417.442 539.643,417.619 539.378,417.938 C 539.091,417.507 538.715,417.34 538.459,417.242 C 538.76,417.558 538.867,418.007 538.692,418.313 C 538.256,418.321 537.892,418.098 537.503,418 C 537.528,418.13 537.462,418.291 537.555,418.341 C 537.773,418.456 538.28,418.441 538.498,418.579 C 538.614,418.546 538.756,418.615 538.779,418.721 C 538.717,418.901 538.673,419.242 538.546,419.466 C 539.149,419.416 539.098,419.126 539.324,418.905 C 539.547,419.262 539.645,419.558 540.286,419.773 C 540.286,419.773 540.311,419.097 540.42,418.999 z"
               id="path5218"
               style="fill:#cccccc;fill-opacity:1;fill-rule:nonzero;stroke:#000000;stroke-width:0.042;stroke-linecap:butt;stroke-linejoin:miter;stroke-miterlimit:4;stroke-dasharray:none;stroke-opacity:1" /><path
               d="M 532.473,417.877 C 532.706,417.77 533.094,418.089 533.297,418.17 C 533.204,417.868 532.812,417.333 532.559,417.201 C 532.559,416.936 532.685,416.588 532.724,416.201 C 532.501,416.466 532.337,416.621 532.112,416.629 C 531.933,416.286 531.84,415.903 531.824,415.494 L 531.482,415.494 C 531.528,415.813 531.665,416.252 531.579,416.505 C 531.363,416.742 531.006,416.413 530.78,416.364 C 530.858,416.568 530.887,416.987 531.042,417.119 C 530.91,417.478 530.727,418.053 530.795,418.349 C 530.96,418.308 531.237,417.877 531.501,417.917 C 531.694,418.752 532.073,419.487 532.666,419.977 C 532.374,419.609 532.007,418.195 532.473,417.877 z"
               id="path5220"
               style="fill:#cccccc;fill-opacity:1;fill-rule:nonzero;stroke:#000000;stroke-width:0.042;stroke-linecap:butt;stroke-linejoin:miter;stroke-miterlimit:4;stroke-dasharray:none;stroke-opacity:1" /><path
               d="M 531.208,413.843 C 531.373,413.792 531.5,413.925 531.5,413.925 L 531.597,413.425 C 531.383,412.986 530.423,412.756 530.047,412.451 C 529.021,411.965 527.996,411.798 526.698,411.741 C 526.441,411.569 525.526,411.432 525.23,411.261 C 524.515,410.984 524.048,410.059 523.714,409.373 C 523.422,409.21 522.629,408.62 522.412,408.485 C 522.441,409.587 523.714,410.822 524.248,411.322 C 525.396,412.312 528.856,412.078 530.353,413.251 C 530.722,413.455 531.198,414.68 531.266,415.027 L 531.49,415.139 C 531.626,415.16 531.383,414.323 531.208,413.843 z"
               id="path5222"
               style="fill:#cccccc;fill-opacity:1;fill-rule:nonzero;stroke:#000000;stroke-width:0.042;stroke-linecap:butt;stroke-linejoin:miter;stroke-miterlimit:4;stroke-dasharray:none;stroke-opacity:1" /><path
               d="M 541.893,420.889 L 541.809,420.281 C 541.563,420.307 541.293,420.635 541.136,420.792 L 540.396,420.049 C 540.454,420.502 540.46,420.677 540.342,420.875 C 540.209,421.032 539.939,421.025 539.782,420.992 L 539.504,420.954 L 538.984,420.834 C 538.732,420.793 538.615,420.273 538.34,420.636 C 538.764,421.353 539.281,421.987 539.762,422.729 C 540.042,423.249 540.539,423.761 540.075,424.24 C 539.698,424.383 539.58,424.465 538.825,424.131 C 539.208,424.883 539.381,425.13 539.862,425.337 C 539.587,425.821 539.416,426.405 539.487,426.811 C 540.891,426.666 541.016,427.229 541.389,427.6 C 542.4,429.043 542.311,429.332 542.604,430.269 C 542.706,430.17 542.781,429.717 542.793,429.542 C 542.94,428.353 542.952,427.646 542.724,426.507 C 542.622,426.186 542.587,426.064 542.793,425.666 C 542.997,425.435 543.601,425.579 543.704,425.558 C 543.547,425.249 543.213,424.991 542.863,424.751 C 542.604,424.586 542.333,424.652 542.066,424.487 C 542.053,423.938 542.282,423.085 541.956,422.708 C 541.713,423.178 541.23,423.712 540.79,423.729 C 540.081,422.832 539.722,421.947 539.023,421.073 L 539.471,421.189 C 539.86,421.239 540.05,421.397 540.474,421.389 C 540.568,421.57 540.484,421.791 540.425,422.09 C 540.621,422.024 540.788,422.1 541.096,421.708 C 541.151,421.989 541.379,422.178 541.622,422.302 L 541.662,421.667 C 542.794,421.497 543.359,421.685 543.87,421.933 C 543.641,421.658 542.428,420.974 541.893,420.889 z"
               id="path5224"
               style="fill:#cccccc;fill-opacity:1;fill-rule:nonzero;stroke:#000000;stroke-width:0.042;stroke-linecap:butt;stroke-linejoin:miter;stroke-miterlimit:4;stroke-dasharray:none;stroke-opacity:1" /><path
               d="M 499.801,422.982 L 499.324,423.304 C 499.347,423.076 499.488,422.684 499.496,422.448 C 499.216,422.448 498.84,422.263 498.692,422.018 C 499.011,422.043 499.373,422.018 499.508,421.62 C 499.571,421.448 499.504,421.196 499.474,420.998 C 499.474,420.998 499.639,420.904 499.679,420.947 C 499.721,420.993 499.77,421.257 499.781,421.263 C 499.915,421.371 500.033,421.477 500.257,421.339 L 500.651,420.793 C 500.689,421.128 500.777,421.492 500.538,421.787 C 500.597,421.84 500.725,421.901 500.725,421.901 C 500.958,422.007 501.271,422.142 501.496,422.289 C 501.281,422.409 501.069,422.472 500.894,422.743 C 500.524,423.437 500.561,424.26 500.771,425.044 C 500.382,424.44 500.104,423.619 499.801,422.982 z"
               id="path5226"
               style="fill:#cccccc;fill-opacity:1;fill-rule:nonzero;stroke:#000000;stroke-width:0.042;stroke-linecap:butt;stroke-linejoin:miter;stroke-miterlimit:4;stroke-dasharray:none;stroke-opacity:1" /><path
               d="M 499.27,419.745 C 498.928,419.745 498.561,420.261 498.25,420.457 L 498.124,420.295 C 498.473,420.009 499.268,419.201 499.795,418.376 C 499.687,418.303 499.482,418.298 499.342,418.363 L 499.368,417.887 C 500.744,417.405 501.767,416.783 502.624,415.313 L 502.478,415.151 C 501.992,415.471 501.434,415.563 500.874,415.563 C 500.615,415.835 500.617,416.156 500.664,416.458 C 500.469,416.294 500.262,416.009 500.262,416.009 C 500.114,416.343 499.637,416.779 499.342,416.975 C 499.395,416.803 499.497,416.553 499.574,416.218 C 499.597,416.177 499.21,416.283 499.186,416.226 C 498.626,416.234 498.077,416.311 497.54,415.927 C 498.069,415.878 498.967,415.9 499.418,415.557 C 499.403,415.238 499.316,414.896 499.199,414.634 C 499.572,414.667 499.955,414.785 500.126,415.185 C 500.413,415.048 500.52,414.68 500.971,414.563 C 500.956,414.742 500.763,415.091 500.88,415.238 C 501.09,415.337 501.465,415.192 501.713,415.151 C 502.639,414.89 503.423,414.481 504.247,413.951 C 504.321,414.097 504.429,414.485 504.393,414.594 C 503.683,415.007 503.464,415.16 503.066,415.543 C 502.23,416.441 501.511,417.186 500.869,417.839 C 500.169,418.547 499.47,419.438 499.508,420.508 L 499.343,420.538 L 499.27,419.745 z"
               id="path5228"
               style="fill:#cccccc;fill-opacity:1;fill-rule:nonzero;stroke:#000000;stroke-width:0.042;stroke-linecap:butt;stroke-linejoin:miter;stroke-miterlimit:4;stroke-dasharray:none;stroke-opacity:1" /><path
               d="M 495.841,419.239 C 494.984,419.574 494.537,419.39 494.002,419.125 C 494.64,419.133 494.984,418.982 495.841,418.569 C 496.012,418.333 495.939,418.016 495.83,417.747 C 496.242,417.682 496.619,417.859 496.883,418.178 C 497.171,417.747 497.546,417.579 497.803,417.482 C 497.501,417.798 497.394,418.247 497.57,418.553 C 498.005,418.562 498.37,418.338 498.758,418.24 C 498.733,418.37 498.8,418.531 498.707,418.581 C 498.489,418.696 497.982,418.681 497.764,418.819 C 497.647,418.786 497.505,418.855 497.482,418.961 C 497.544,419.141 497.589,419.482 497.715,419.706 C 497.113,419.655 497.163,419.366 496.938,419.145 C 496.714,419.502 496.617,419.798 495.976,420.013 C 495.976,420.013 495.95,419.337 495.841,419.239 z"
               id="path5230"
               style="fill:#cccccc;fill-opacity:1;fill-rule:nonzero;stroke:#000000;stroke-width:0.042;stroke-linecap:butt;stroke-linejoin:miter;stroke-miterlimit:4;stroke-dasharray:none;stroke-opacity:1" /><path
               d="M 503.788,418.116 C 503.555,418.01 503.168,418.329 502.964,418.41 C 503.057,418.108 503.45,417.574 503.703,417.441 C 503.703,417.176 503.576,416.828 503.537,416.441 C 503.761,416.706 503.924,416.861 504.15,416.869 C 504.329,416.526 504.422,416.143 504.437,415.734 L 504.78,415.734 C 504.733,416.053 504.597,416.492 504.682,416.745 C 504.898,416.982 505.256,416.653 505.482,416.604 C 505.404,416.808 505.375,417.226 505.219,417.359 C 505.351,417.718 505.535,418.293 505.467,418.589 C 505.302,418.548 505.024,418.116 504.76,418.157 C 504.568,418.992 504.189,419.727 503.596,420.217 C 503.887,419.849 504.255,418.435 503.788,418.116 z"
               id="path5232"
               style="fill:#cccccc;fill-opacity:1;fill-rule:nonzero;stroke:#000000;stroke-width:0.042;stroke-linecap:butt;stroke-linejoin:miter;stroke-miterlimit:4;stroke-dasharray:none;stroke-opacity:1" /><path
               d="M 505.054,414.083 C 504.889,414.032 504.762,414.165 504.762,414.165 L 504.665,413.665 C 504.878,413.226 505.839,412.996 506.214,412.691 C 507.241,412.205 508.265,412.038 509.564,411.981 C 509.82,411.809 510.736,411.672 511.031,411.501 C 511.747,411.224 512.213,410.299 512.548,409.613 C 512.839,409.45 513.632,408.86 513.85,408.725 C 513.821,409.827 512.548,411.062 512.013,411.562 C 510.866,412.552 507.406,412.318 505.909,413.491 C 505.54,413.695 505.063,414.92 504.996,415.267 L 504.772,415.379 C 504.636,415.4 504.879,414.563 505.054,414.083 z"
               id="path5234"
               style="fill:#cccccc;fill-opacity:1;fill-rule:nonzero;stroke:#000000;stroke-width:0.042;stroke-linecap:butt;stroke-linejoin:miter;stroke-miterlimit:4;stroke-dasharray:none;stroke-opacity:1" /><path
               d="M 492.391,422.173 C 492.902,421.925 493.467,421.737 494.6,421.907 L 494.639,422.542 C 494.883,422.418 495.11,422.229 495.165,421.948 C 495.473,422.34 495.64,422.263 495.837,422.33 C 495.778,422.031 495.693,421.81 495.787,421.629 C 496.212,421.637 496.401,421.479 496.791,421.429 L 497.239,421.313 C 496.539,422.187 496.18,423.072 495.472,423.969 C 495.032,423.952 494.549,423.418 494.305,422.948 C 493.979,423.326 494.208,424.177 494.195,424.727 C 493.928,424.892 493.657,424.826 493.398,424.991 C 493.049,425.231 492.715,425.489 492.558,425.798 C 492.661,425.819 493.265,425.675 493.469,425.907 C 493.675,426.304 493.64,426.426 493.537,426.748 C 493.31,427.886 493.322,428.592 493.469,429.782 C 493.481,429.957 493.555,430.41 493.657,430.509 C 493.95,429.572 493.861,429.283 494.873,427.84 C 495.246,427.469 495.37,426.906 496.774,427.051 C 496.846,426.645 496.674,426.061 496.399,425.577 C 496.881,425.37 497.054,425.123 497.437,424.371 C 496.681,424.706 496.563,424.623 496.186,424.48 C 495.723,424.002 496.22,423.489 496.499,422.969 C 496.98,422.227 497.498,421.594 497.922,420.876 C 497.647,420.513 497.529,421.033 497.278,421.074 L 496.757,421.194 L 496.48,421.232 C 496.323,421.265 496.053,421.272 495.919,421.115 C 495.801,420.918 495.807,420.742 495.866,420.289 L 495.126,421.032 C 494.969,420.875 494.699,420.547 494.452,420.521 L 494.369,421.129 C 493.834,421.214 492.62,421.898 492.391,422.173 z"
               id="path5236"
               style="fill:#cccccc;fill-opacity:1;fill-rule:nonzero;stroke:#000000;stroke-width:0.042;stroke-linecap:butt;stroke-linejoin:miter;stroke-miterlimit:4;stroke-dasharray:none;stroke-opacity:1" /><path
               d="M 527.463,411.905 C 528.02,411.919 528.505,411.669 529.063,411.354 C 529.624,411.044 530.106,410.974 530.662,411.026 C 530.047,410.817 529.514,410.814 528.896,411.015 C 528.279,411.216 527.746,411.216 527.13,411.006 C 526.515,410.797 525.982,410.786 525.364,410.987 C 524.747,411.188 524.214,411.196 523.598,410.987 C 523.595,411.676 523.591,412.335 523.588,413.025 C 524.192,413.229 524.716,413.231 525.322,413.033 C 525.928,412.834 526.452,412.814 527.056,413.017 C 527.66,413.222 528.183,413.271 528.79,413.076 C 529.396,412.879 529.92,412.811 530.524,413.009 C 530.489,412.984 529.884,412.604 529.155,412.654 C 528.425,412.712 527.721,412.599 527.469,412.458 C 526.968,412.168 526.416,411.993 526.386,411.838 C 526.762,411.797 527.088,411.878 527.463,411.905 z"
               id="path5238"
               style="fill:#fec35a;fill-opacity:1;fill-rule:evenodd;stroke:#000000;stroke-width:0.085;stroke-linecap:butt;stroke-linejoin:miter;stroke-miterlimit:4;stroke-dasharray:none;stroke-opacity:1" /><path
               d="M 508.782,412.247 C 508.225,412.258 507.742,412.005 507.185,411.688 C 506.626,411.375 506.144,411.302 505.587,411.352 C 506.204,411.145 506.737,411.145 507.353,411.349 C 507.97,411.553 508.503,411.556 509.12,411.35 C 509.736,411.143 510.269,411.135 510.886,411.339 C 511.502,411.543 512.035,411.554 512.652,411.348 C 512.652,412.038 512.652,412.697 512.652,413.387 C 512.047,413.588 511.523,413.587 510.918,413.385 C 510.313,413.183 509.789,413.161 509.184,413.36 C 508.578,413.562 508.055,413.609 507.45,413.411 C 506.845,413.21 506.321,413.14 505.716,413.335 C 505.75,413.31 506.357,412.933 507.087,412.986 C 507.816,413.049 508.52,412.939 508.773,412.799 C 509.276,412.512 509.829,412.34 509.86,412.185 C 509.484,412.142 509.158,412.222 508.782,412.247 z"
               id="path5240"
               style="fill:#fec35a;fill-opacity:1;fill-rule:evenodd;stroke:#000000;stroke-width:0.085;stroke-linecap:butt;stroke-linejoin:miter;stroke-miterlimit:4;stroke-dasharray:none;stroke-opacity:1" /><path
               d="M 512.692,411.262 L 512.692,413.294 L 511.055,412.87 L 511.055,411.262 L 512.692,411.262 z"
               id="path5242"
               style="fill:#000000;fill-opacity:1;fill-rule:evenodd;stroke:#000000;stroke-width:0.085;stroke-linecap:butt;stroke-linejoin:miter;stroke-miterlimit:4;stroke-dasharray:none;stroke-opacity:1" /><path
               d="M 525.139,410.958 L 525.155,412.818 L 523.501,412.99 L 523.501,410.958 L 525.139,410.958 z"
               id="path5244"
               style="fill:#000000;fill-opacity:1;fill-rule:evenodd;stroke:#000000;stroke-width:0.085;stroke-linecap:butt;stroke-linejoin:miter;stroke-miterlimit:4;stroke-dasharray:none;stroke-opacity:1" /><path
               d="M 525.261,410.609 C 525.261,411.363 525.261,412.084 525.261,412.839 C 524.609,412.719 523.986,412.614 523.334,412.615 C 522.683,412.617 522.905,412.697 522.253,412.818 C 521.601,412.939 520.979,413.044 520.327,413.044 C 519.675,413.043 519.052,412.937 518.401,412.816 C 517.749,412.695 517.126,412.59 516.474,412.588 C 515.823,412.588 515.2,412.693 514.548,412.814 C 513.896,412.935 513.557,413.068 512.906,413.071 C 512.254,413.071 511.631,412.968 510.98,412.847 C 510.98,412.092 510.98,411.371 510.98,410.617 C 511.631,410.737 512.254,410.841 512.906,410.841 C 513.557,410.838 513.896,410.706 514.548,410.585 C 515.2,410.463 515.823,410.359 516.474,410.358 C 517.126,410.36 517.749,410.465 518.401,410.587 C 519.052,410.708 519.675,410.813 520.327,410.815 C 520.979,410.814 521.601,410.71 522.253,410.588 C 522.905,410.467 522.683,410.387 523.334,410.385 C 523.986,410.384 524.609,410.488 525.261,410.609 z"
               id="path5246"
               style="fill:#fec35a;fill-opacity:1;fill-rule:nonzero;stroke:#000000;stroke-width:0.085;stroke-linecap:butt;stroke-linejoin:miter;stroke-miterlimit:4;stroke-dasharray:none;stroke-opacity:1" /><path
               d="M 516.56,411.878 C 516.486,411.828 516.427,411.795 516.362,411.762 C 516.343,411.793 516.32,411.819 516.293,411.843 C 516.293,411.848 516.293,411.852 516.293,411.857 C 516.464,411.921 516.62,412.008 516.78,412.104 C 516.785,412.101 516.789,412.099 516.794,412.097 C 516.794,411.707 516.794,411.334 516.794,410.944 C 516.754,410.943 516.717,410.944 516.677,410.94 C 516.637,410.936 516.6,410.928 516.56,410.921 C 516.56,411.245 516.56,411.554 516.56,411.878"
               id="path5248"
               style="fill:#000000;fill-opacity:1;fill-rule:nonzero;stroke:none" /><path
               d="M 517.304,411.14 C 517.346,411.116 517.397,411.088 517.453,411.098 C 517.672,411.139 517.737,411.421 517.747,411.596 C 517.747,411.602 517.747,411.608 517.747,411.613 C 517.743,411.615 517.739,411.614 517.735,411.616 C 517.683,411.551 517.609,411.507 517.534,411.495 C 517.346,411.465 517.203,411.558 517.2,411.752 C 517.201,411.878 517.223,411.955 517.314,412.063 C 517.387,412.143 517.477,412.184 517.576,412.201 C 517.703,412.223 517.819,412.208 517.9,412.12 C 517.968,412.04 517.994,411.921 517.995,411.807 C 517.994,411.643 517.959,411.461 517.866,411.305 C 517.776,411.157 517.619,411.052 517.461,411.023 C 517.427,411.017 517.397,411.015 517.365,411.021 C 517.34,411.03 517.336,411.016 517.329,411.042 C 517.319,411.072 517.307,411.098 517.292,411.126 C 517.296,411.13 517.3,411.135 517.304,411.14 z M 517.6,412.129 C 517.482,412.105 517.445,411.938 517.451,411.85 C 517.451,411.765 517.467,411.585 517.602,411.604 C 517.72,411.629 517.743,411.78 517.744,411.872 C 517.744,411.97 517.738,412.149 517.6,412.129"
               id="path5250"
               style="fill:#000000;fill-opacity:1;fill-rule:nonzero;stroke:none" /><path
               d="M 518.943,411.9 C 518.942,411.728 518.932,411.547 518.817,411.389 C 518.742,411.292 518.65,411.237 518.539,411.218 C 518.393,411.193 518.296,411.225 518.223,411.34 C 518.15,411.456 518.135,411.577 518.135,411.724 C 518.135,411.84 518.157,412.02 518.216,412.131 C 518.293,412.271 518.399,412.351 518.545,412.377 C 518.865,412.427 518.941,412.168 518.943,411.9 z M 518.541,411.294 C 518.666,411.32 518.691,411.5 518.692,411.826 C 518.691,412.197 518.66,412.318 518.545,412.301 C 518.409,412.273 518.386,412.093 518.385,411.749 C 518.386,411.437 518.398,411.273 518.541,411.294"
               id="path5252"
               style="fill:#000000;fill-opacity:1;fill-rule:nonzero;stroke:none" /><path
               d="M 519.384,412.312 C 519.311,412.261 519.252,412.225 519.186,412.187 C 519.167,412.218 519.144,412.242 519.117,412.263 C 519.117,412.268 519.117,412.272 519.117,412.276 C 519.289,412.356 519.445,412.446 519.604,412.538 C 519.609,412.535 519.613,412.532 519.618,412.53 C 519.618,412.14 519.618,411.767 519.618,411.377 C 519.579,411.377 519.541,411.379 519.501,411.376 C 519.462,411.371 519.424,411.363 519.384,411.355 C 519.384,411.679 519.384,411.988 519.384,412.312"
               id="path5254"
               style="fill:#000000;fill-opacity:1;fill-rule:nonzero;stroke:none" /></g></g></g></g></g></svg>