<?xml version="1.0" encoding="UTF-8" standalone="no"?>
<!-- Generator: Adobe Illustrator 16.0.3, SVG Export Plug-In . SVG Version: 6.00 Build 0)  -->

<svg
   xmlns:dc="http://purl.org/dc/elements/1.1/"
   xmlns:cc="http://creativecommons.org/ns#"
   xmlns:rdf="http://www.w3.org/1999/02/22-rdf-syntax-ns#"
   xmlns:svg="http://www.w3.org/2000/svg"
   xmlns="http://www.w3.org/2000/svg"
   xmlns:sodipodi="http://sodipodi.sourceforge.net/DTD/sodipodi-0.dtd"
   xmlns:inkscape="http://www.inkscape.org/namespaces/inkscape"
   version="1.1"
   id="Calque_1"
   x="0px"
   y="0px"
   width="458"
   height="500"
   viewBox="0 0 457.99999 500"
   enable-background="new 0 0 428.032 462.246"
   xml:space="preserve"
   inkscape:version="0.91 r13725"
   sodipodi:docname="Dijon Football Côte-d'Or.svg"><metadata
     id="metadata71"><rdf:RDF><cc:Work
         rdf:about=""><dc:format>image/svg+xml</dc:format><dc:type
           rdf:resource="http://purl.org/dc/dcmitype/StillImage" /><dc:title></dc:title></cc:Work></rdf:RDF></metadata><defs
     id="defs69" /><sodipodi:namedview
     pagecolor="#ffffff"
     bordercolor="#666666"
     borderopacity="1"
     objecttolerance="10"
     gridtolerance="10"
     guidetolerance="10"
     inkscape:pageopacity="0"
     inkscape:pageshadow="2"
     inkscape:window-width="1280"
     inkscape:window-height="691"
     id="namedview67"
     showgrid="false"
     inkscape:zoom="1.1268013"
     inkscape:cx="178.51729"
     inkscape:cy="373.11787"
     inkscape:window-x="0"
     inkscape:window-y="1"
     inkscape:window-maximized="1"
     inkscape:current-layer="Calque_1" /><g
     id="g3"
     transform="matrix(1.232924,0,0,1.232924,-34.950149,-34.957093)"><g
       id="fond"><path
         id="fondrouge"
         d="m 214.008,32.937 c -124.98,0 -158.821,36.321 -160.224,37.881 -0.391,0.629 -26.749,45.609 -20.122,111.932 6.109,61.131 42.235,153.383 179.766,245.997 l 0.579,0.437 0.594,-0.437 C 352.125,336.133 388.249,243.881 394.36,182.75 400.991,116.427 374.631,71.447 374.352,71 372.875,69.258 338.995,32.937 214.008,32.937 Z"
         inkscape:connector-curvature="0"
         style="fill:#d3072a" /><path
         id="contourext"
         d="m 378.096,67.478 -0.037,-0.047 -0.037,-0.045 C 376.631,65.789 342.342,28.353 214.008,28.353 86.265,28.353 51.545,65.602 50.112,67.196 49.766,67.705 22.643,113.914 29.44,181.85 c 6.237,62.452 43.146,156.786 183.604,251.367 l 0.965,0.676 0.968,-0.676 C 355.44,338.637 392.368,244.302 398.588,181.85 405.387,114.028 378.372,67.924 378.096,67.478 Z M 394.36,182.75 c -6.111,61.131 -42.234,153.383 -179.758,245.997 l -0.594,0.437 -0.579,-0.437 C 75.898,336.133 39.771,243.881 33.663,182.75 27.036,116.427 53.393,71.447 53.785,70.818 c 1.403,-1.56 35.244,-37.881 160.224,-37.881 124.988,0 158.867,36.321 160.343,38.063 0.279,0.447 26.639,45.427 20.008,111.75 z"
         inkscape:connector-curvature="0"
         style="fill:#ffffff" /></g><g
       id="contour"><path
         id="contourbas"
         d="m 214.008,49.121 c 65.343,0 103.743,10.671 124.901,20.078 l 6.912,0 c 1.869,0 3.629,0.054 5.332,0.136 C 332.196,58.711 291.762,43.84 214.008,43.84 136.49,43.84 96.064,58.621 77.065,69.199 l 12.041,0 C 110.26,59.808 148.685,49.121 214.008,49.121 Z"
         inkscape:connector-curvature="0"
         style="fill:#ffffff" /><path
         id="contourhaut"
         d="m 381.891,127.608 0,11.292 c 0,2.003 -0.389,5.402 -2.498,8.912 1.01,11.263 1.146,23.688 -0.189,37.082 C 373.585,241.154 340.309,326.059 214.009,411.9 87.693,326.047 54.432,241.152 48.823,184.894 46.495,161.552 48.564,141.176 52.027,124.868 l 0,-20.231 c -6.062,18.665 -11.854,46.756 -8.459,80.782 5.754,57.717 39.911,144.942 169.883,232.479 l 0.557,0.375 0.554,-0.375 c 129.976,-87.537 164.136,-174.763 169.897,-232.479 2.202,-22.094 0.53,-41.683 -2.568,-57.811 z"
         inkscape:connector-curvature="0"
         style="fill:#ffffff" /></g><g
       id="grpchouette"><g
         id="tete"><path
           d="m 240.715,271.895 c -0.391,-2.084 -6.975,-6.011 -9.666,-6.362 -7.162,-0.914 5.908,-3.78 4.734,-4.702 -5.178,-4.575 -4.58,-5.951 -4.58,-5.951 -9.257,-3.199 -10.19,-4.999 -10.19,-4.999 -7.414,-1.538 -17.999,1.044 -18.038,1.058 -2.862,1.279 -4.195,1.948 -4.738,2.176 0.535,0.027 2.046,0.205 -3.326,2.025 -2.248,0.733 0.825,7.613 -0.838,10.008 -1.807,2.523 -7.021,6.461 -7.201,7.955 -0.793,6.619 5.141,19.978 7.811,23.912 3.677,5.459 5.62,9.657 8.204,11.709 10.631,9.896 18.979,2 20.07,0.973 4.502,-4.234 5.653,-6.678 8.457,-10.612 1.488,-2.036 8.195,-14.696 8.963,-18.862 0.586,-2.984 0.286,-8.621 0.338,-8.328 z m -42.65,-5.801 c 5.069,-2.07 2.356,-2.648 3.674,-3.625 2.041,-1.589 -5.088,-0.316 -3.596,-1.496 4.763,-3.649 0.38,-4.119 0.38,-4.119 -0.015,-1.51 6.4,1.849 7.014,-2.946 0.006,-0.026 4.54,-0.228 8.283,-0.904 4.153,-0.812 4.755,2.26 8.271,2.097 0,0 0,2.012 2.863,3.049 0,0 2.486,-0.674 4.278,0.512 1.082,0.669 -6.618,0.958 -3.206,3.816 0.629,0.527 -5.914,0.623 -3.328,2.396 2.327,1.545 7.949,2.318 8.371,3.447 -1.848,-0.516 1.037,1.881 -1.761,1.623 -5.835,-0.554 -13.672,5.783 -13.397,7.518 -0.535,-3.281 -9.084,-7.08 -18.079,-8.08 -2.226,-0.104 -1.703,-0.125 -3.96,0.083 1.287,-1.445 1.966,-2.472 4.193,-3.371 z m 37.331,17.523 c 0,0 -2.849,6.747 -6.575,13.089 -3.931,6.688 -8.588,10.739 -8.588,10.739 0,0 -4.471,3.707 -10.377,1.475 0,0 -1.54,-0.176 -5.999,-4.102 -4.423,-3.988 -7.112,-9.95 -7.112,-9.95 0,0 -9.626,-20.769 -4.508,-20.937 0,0 7.814,-1.029 13.403,1.991 0,0 7.846,2.761 9.624,7.175 0,0 4.393,-4.342 9.195,-6.818 4.818,-2.555 6.054,-3.867 12.998,-3.037 0.001,0 0.083,5.629 -2.061,10.375 z"
           id="path13"
           inkscape:connector-curvature="0"
           style="fill:#ffffff" /><path
           d="m 192.841,278.215 8.697,2.885 c 0,0 -1.354,6.375 3.97,6.694 0,0 1.005,-0.206 1.792,0.924 1.135,1.709 3.818,8.188 3.829,8.482 0,0 1.659,-10.136 -5.163,-15.28 -5.92,-4.438 -13.125,-3.705 -13.125,-3.705 z"
           id="path15"
           inkscape:connector-curvature="0"
           style="fill:#ffffff" /><path
           d="m 235.511,278.652 -7.433,3.287 c 0,0 3.002,5.938 -5.162,7.057 -0.746,0.104 -5.858,8.038 -5.908,8.418 0,0 1.195,-10.949 5.482,-14.383 5.966,-4.627 13.021,-4.379 13.021,-4.379 z"
           id="path17"
           inkscape:connector-curvature="0"
           style="fill:#ffffff" /><path
           d="m 216.187,302.061 c -0.048,1.916 -1.957,4.86 -2.383,4.877 -0.426,-0.019 -1.573,-3.246 -1.526,-5.166 0.075,-1.924 1.436,-2.623 1.862,-2.61 0.435,0.016 2.12,0.983 2.047,2.899 z"
           id="path19"
           inkscape:connector-curvature="0"
           style="fill:#ffffff" /></g><g
         id="pattedroite"><path
           d="m 201.311,342.132 c -6.507,0 -11.604,20.778 -11.218,18.104 0,0 13.334,-9.944 11.218,-18.104 z"
           id="path22"
           inkscape:connector-curvature="0"
           style="fill:#ffffff" /><path
           d="m 203.37,360.107 4.672,-10.851 c 0,0.001 1.493,9.93 -4.672,10.851 z"
           id="path24"
           inkscape:connector-curvature="0"
           style="fill:#ffffff" /><path
           d="m 205.218,389.846 c 7.25,-0.613 9.689,-4.187 6.766,-8.391 -0.452,-0.648 -2.477,-1.368 -2.833,-2.173 0.56,-0.607 0.153,-4.636 -0.217,-5.759 -0.448,-1.644 -3.156,-2.403 -3.674,-3.58 -0.523,-1.17 -1.091,-3.354 -1.889,-5.068 -6.258,-13.199 -11.527,-1.521 -6.758,0.671 -0.976,-0.446 0.847,-2.39 1.655,-2.325 0.446,0.926 -0.54,0.887 0.346,3.575 1.716,4.847 3.356,2.663 0.528,3.242 -4.303,1.987 -8.724,-6.61 -12.495,-6.437 -8.429,0.391 -3.797,7.754 -3.554,7.91 0.072,-4.139 2.208,-4.731 2.75,-4.589 -0.505,2.429 1.329,3.394 3.851,3.966 2.479,0.563 3.042,3.461 3.024,3.526 -1.098,0.224 -6.099,2.345 -7.924,2.917 -6.781,2.016 -5.022,8.027 -4.786,7.781 0.017,-1.398 2.327,-3.412 4.415,-3.621 1.08,0.293 1.642,2.158 4.42,1.109 3.609,-1.393 2.994,-2.588 4.912,-2.806 2.397,-0.271 2.987,2.002 4.859,1.275 3.205,-0.163 5.323,-1.507 6.104,-1.021 1.636,1.028 -0.107,0.455 0,2.678 0.128,2.645 2.514,2.48 2.875,3.187 0,0.004 0.736,1.31 -2.375,3.933 z"
           id="path26"
           inkscape:connector-curvature="0"
           style="fill:#ffffff" /></g><g
         id="pattegauche"><path
           d="m 227.157,342.132 c 6.506,0 11.604,20.778 11.217,18.104 0,0 -13.334,-9.944 -11.217,-18.104 z"
           id="path29"
           inkscape:connector-curvature="0"
           style="fill:#ffffff" /><path
           d="m 223.276,356.729 -4.673,-10.851 c 0,0 -1.492,9.929 4.673,10.851 z"
           id="path31"
           inkscape:connector-curvature="0"
           style="fill:#ffffff" /><path
           d="m 223.249,389.846 c -7.25,-0.613 -9.688,-4.187 -6.766,-8.391 0.451,-0.648 2.477,-1.368 2.833,-2.173 -0.56,-0.607 -0.151,-4.636 0.218,-5.759 0.447,-1.644 3.155,-2.403 3.674,-3.58 0.522,-1.17 1.092,-3.354 1.89,-5.068 6.258,-13.199 11.526,-1.521 6.758,0.671 0.976,-0.446 -0.847,-2.39 -1.655,-2.325 -0.445,0.926 0.54,0.887 -0.346,3.575 -1.716,4.847 -3.355,2.663 -0.527,3.242 4.303,1.987 8.725,-6.61 12.493,-6.437 8.431,0.391 3.798,7.754 3.556,7.91 -0.072,-4.139 -2.209,-4.731 -2.75,-4.589 0.504,2.429 -1.33,3.394 -3.852,3.966 -2.479,0.563 -3.042,3.461 -3.023,3.526 1.098,0.224 6.1,2.345 7.924,2.917 6.781,2.016 5.021,8.027 4.785,7.781 -0.017,-1.398 -2.326,-3.412 -4.414,-3.621 -1.08,0.293 -1.643,2.158 -4.42,1.109 -3.609,-1.393 -2.994,-2.588 -4.912,-2.806 -2.396,-0.271 -2.986,2.002 -4.858,1.275 -3.204,-0.163 -5.323,-1.507 -6.104,-1.021 -1.636,1.028 0.106,0.455 0,2.678 -0.127,2.645 -2.515,2.48 -2.875,3.187 -0.004,0.004 -0.74,1.31 2.371,3.933 z"
           id="path33"
           inkscape:connector-curvature="0"
           style="fill:#ffffff" /></g><g
         id="chouettedate"><path
           d="m 375.231,161.463 c -0.197,-0.018 -46.65,-3.052 -87.139,11.615 -1.108,0.4 -16.25,7.643 -24.629,13.084 l 0,-5.18 c 0,-0.597 -0.127,-1.574 -0.801,-2.59 0.521,-0.832 0.801,-1.788 0.801,-2.804 l 0,-7.288 c 0,-2.784 -1.434,-7.451 -11.021,-7.451 l -8.354,0 c -3.465,0 -6.153,0.608 -8.022,1.81 -0.58,-0.393 -1.231,-0.717 -1.967,-0.971 -1.449,-0.571 -3.438,-0.839 -6.244,-0.839 l -8.355,0 c -2.35,0 -4.354,0.342 -6.121,1.041 -0.635,0.247 -1.207,0.538 -1.729,0.864 -0.607,-0.439 -1.299,-0.795 -2.063,-1.056 -1.49,-0.582 -3.49,-0.85 -6.297,-0.85 l -8.307,0 c -2.344,0 -4.426,0.349 -6.201,1.048 -0.75,0.299 -1.424,0.66 -2.014,1.078 -0.576,-0.381 -1.225,-0.711 -1.93,-0.984 -1.783,-0.754 -3.846,-1.141 -6.133,-1.141 l -15.438,0 7.547,12.364 2.098,0 0,18.882 c -0.77,-0.59 -1.484,-1.179 -2.008,-1.748 -2.166,-2.363 -29.035,-16.69 -30.535,-17.27 -37.946,-14.658 -86.941,-11.633 -87.136,-11.615 l 1.11,2.408 c -1.032,4.174 -3.927,14.967 7.288,18.987 -0.842,4.902 -1.808,14.898 8.021,18.461 0,0 0.424,0.144 0.604,0.234 -0.023,4.9 2.524,14.181 15.5,19.206 1.186,6.469 5.516,18.592 21.5,22.776 0.947,8.438 4.176,22.676 24.89,25.715 0.336,0.771 0.68,1.533 1.027,2.258 0.463,1.056 1.594,-0.668 2.082,0.338 3.688,7.482 7.148,19.05 13.266,25.599 0.283,0.27 0.574,0.539 0.818,0.86 4.949,5.076 9.41,13.021 16.125,15.865 0.248,0.099 0.467,0.185 0.709,0.328 0.412,-0.293 0.805,0.112 1.232,-0.188 3.885,-2.277 13.721,-7.949 17.121,-9.566 1.508,3.123 2.119,3.684 2.688,7.266 -18.393,7.504 -37.57,29.787 -37.938,30.334 -1.625,2.416 1.342,9.406 14.688,11.518 1.791,2.943 6.145,6.367 13.375,5.863 1.066,1.066 3.367,1.351 5.338,2.279 l 4.908,0 c -1.361,-0.377 -2.52,-3.152 -4.121,-3.658 l -0.875,-2.039 c 0.563,-3.551 5.41,-8.725 7.75,-19.758 0,0 -14.488,19.797 -13.859,20.52 -3.207,-0.813 -4.414,-2.032 -7.498,-5.063 l 0.768,-1.584 c 6.164,-8.76 17.879,-23.318 19.338,-27.342 0,0 -25.852,25.342 -24.955,27.203 -2.992,-1.574 -6.654,-2.703 -8.826,-7.514 0,0 22.68,-23.705 33.123,-27.908 0.1,0.967 1.844,7.127 1.639,7.885 0.242,-0.697 2.953,-4.074 3.039,-5.373 0.762,-2.275 -0.502,-10.09 -2.039,-15.377 -0.432,-1.484 -4.729,-11.25 -5.979,-9.342 -0.129,0.197 -1.834,7.182 -1.834,7.182 -5.135,1.932 -11.439,7.455 -15.041,7.648 -2.375,0.127 -5.15,-4.563 -11.799,-12.068 3.576,-9.576 8.852,-20.947 20.461,-39.813 -6.961,11.313 -22.426,23.061 -25.922,33.481 -4.693,-5.479 -7.021,-9.272 -11.789,-18.041 0.352,-0.633 0.695,-1.197 1.035,-1.808 1.354,0.063 2.762,0.091 4.27,0.07 0,0 -1.539,-0.125 -3.969,-0.674 9.531,-17.063 16.523,-26.461 38.852,-38.526 0,0 -35.598,7.012 -43.855,33.866 -1.957,-3.787 -1.92,-4.248 -3.781,-8.729 -0.152,-0.418 -0.328,-0.783 -0.469,-1.212 -1.441,-3.526 -2.846,-7.303 -4.172,-11.313 0,0 0.762,4.298 2.662,10.687 0.123,0.406 0.275,0.881 0.402,1.297 1.111,3.648 2.563,7.814 4.412,12.236 -8.533,-2.966 -17.474,-8.89 -21.796,-23.742 0.711,0.149 1.428,0.295 2.16,0.408 0,0 -0.609,-0.293 -1.666,-0.918 10.867,-7.923 17.349,-12.178 26.322,-14.785 4.248,1.475 11.014,1.625 15.914,2.666 0,0 -4.164,-1.485 -10.557,-4.684 8.744,-2.274 14.691,-2.578 14.691,-2.578 0.648,-4.052 -9.158,-2.75 -21.334,-0.305 -2.412,0.484 -9.787,-6.144 -18.312,-12.908 12.027,-1.674 20.306,-1.262 20.306,-1.262 4.275,-3.719 -9.648,-3.318 -23.691,-1.24 -0.844,0.125 -6.95,-6.012 -11.816,-11.492 13.275,-0.195 22.015,0.296 22.015,0.296 3.336,-2.927 -9.599,-3.737 -24.212,-2.782 -3.523,-4.051 -3.59,-5.121 -7.998,-11.334 1.011,1.424 12.665,0.291 12.665,0.291 3.09,-2.709 -4.405,-3.713 -14.82,-3.619 -1.436,-2.334 -3.372,-5.32 -4.667,-7.818 0,0 -0.188,3.414 1.586,7.848 -9.51,0.152 -19.164,0.722 -25.003,2.053 -0.003,-0.655 -0.561,-2.572 -0.5,-3.251 0,0 -0.831,1.828 -1.144,3.101 l -0.106,0.022 c -3.057,-2.96 -7.367,-8.23 -7.808,-15.864 52.973,0.759 89.128,22.298 113.4,32.775 13.486,16.152 17.738,19.359 41.836,50.309 0,0 0.889,-17.103 -32.58,-52.395 l 12.369,0 0,-5.713 3.523,5.708 9.959,0 c 2.305,0 4.33,-0.37 6.178,-1.132 3.174,-1.257 4.342,-3.23 4.734,-4.835 l 3.645,5.967 10.006,0 c 2.297,0 4.377,-0.388 6.129,-1.13 0.774,-0.299 1.463,-0.66 2.07,-1.074 0.569,0.374 1.217,0.704 1.93,0.99 1.83,0.806 3.886,1.214 6.104,1.214 l 6.939,0 c -33.473,35.296 -32.584,52.4 -32.584,52.4 24.098,-30.95 28.35,-34.157 41.836,-50.309 24.271,-10.478 60.428,-32.017 113.4,-32.775 -0.441,7.634 -4.752,12.904 -7.809,15.864 l -0.107,-0.022 c -0.313,-1.272 -1.143,-3.101 -1.143,-3.101 0.061,0.679 -0.496,2.596 -0.5,3.251 -5.838,-1.331 -15.492,-1.9 -25.004,-2.053 1.771,-4.434 1.588,-7.848 1.588,-7.848 -1.297,2.498 -3.232,5.484 -4.668,7.818 -10.414,-0.094 -17.91,0.91 -14.82,3.619 0,0 11.654,1.133 12.666,-0.291 -4.41,6.213 -4.475,7.283 -8,11.334 -14.611,-0.955 -27.547,-0.145 -24.211,2.782 0,0 8.74,-0.491 22.016,-0.296 -4.867,5.48 -10.973,11.617 -11.818,11.492 -14.041,-2.078 -27.965,-2.479 -23.688,1.24 0,0 8.278,-0.412 20.308,1.262 -8.525,6.765 -15.9,13.393 -18.314,12.908 -12.176,-2.445 -21.981,-3.747 -21.334,0.305 0,0 5.947,0.304 14.691,2.578 -6.393,3.198 -10.557,4.684 -10.557,4.684 4.9,-1.041 11.666,-1.191 15.914,-2.666 8.973,2.606 15.455,6.862 26.322,14.785 -1.057,0.625 -1.666,0.918 -1.666,0.918 0.73,-0.113 1.447,-0.259 2.16,-0.408 -4.322,14.854 -13.266,20.776 -21.797,23.742 1.85,-4.422 3.301,-8.588 4.412,-12.236 0.127,-0.416 0.275,-0.891 0.4,-1.297 1.9,-6.389 2.662,-10.687 2.662,-10.687 -1.326,4.013 -2.73,7.787 -4.172,11.314 -0.141,0.428 -0.315,0.793 -0.471,1.211 -1.861,4.481 -1.822,4.942 -3.781,8.729 -8.256,-26.854 -43.854,-33.866 -43.854,-33.866 22.328,12.065 29.32,21.463 38.852,38.526 -2.43,0.549 -3.969,0.674 -3.969,0.674 1.508,0.021 2.916,-0.008 4.27,-0.07 0.341,0.609 0.685,1.175 1.035,1.808 -4.768,8.769 -7.096,12.563 -11.789,18.041 -3.496,-10.422 -18.961,-22.17 -25.922,-33.481 11.609,18.864 16.885,30.235 20.461,39.813 -6.647,7.506 -9.424,12.195 -11.799,12.068 -3.602,-0.193 -9.906,-5.717 -15.041,-7.648 0,0 -1.705,-6.984 -1.834,-7.182 -1.25,-1.908 -5.547,7.856 -5.979,9.342 -1.537,5.287 -2.936,12.102 -2.174,14.377 0.086,1.299 2.797,4.676 3.037,5.373 -0.203,-0.758 1.676,-5.918 1.774,-6.885 10.443,4.203 33.123,27.908 33.123,27.908 -2.172,4.811 -5.834,5.938 -8.825,7.514 0.896,-1.861 -24.955,-27.203 -24.955,-27.203 1.459,4.023 13.174,18.582 19.338,27.342 l 0.768,1.584 c -3.084,3.029 -4.291,4.248 -7.498,5.063 0.629,-0.723 -13.859,-20.52 -13.859,-20.52 2.34,11.033 7.188,16.207 7.75,19.758 l -0.875,2.039 c -1.602,0.506 -2.76,3.281 -4.121,3.658 l 4.908,0 c 1.971,-0.93 4.271,-1.213 5.338,-2.279 7.23,0.504 11.584,-2.92 13.375,-5.863 13.346,-2.11 16.313,-9.102 14.688,-11.518 -0.367,-0.547 -19.545,-22.83 -37.938,-30.334 0.568,-3.582 1.18,-4.143 2.688,-7.266 3.399,1.617 13.235,7.289 17.121,9.566 0.428,0.303 0.819,-0.104 1.231,0.188 0.242,-0.146 0.461,-0.229 0.709,-0.328 6.715,-2.844 11.176,-10.789 16.125,-15.864 0.244,-0.322 0.535,-0.593 0.818,-0.861 6.117,-6.549 9.578,-18.115 13.266,-25.598 0.486,-1.007 1.617,0.717 2.082,-0.339 0.346,-0.725 0.691,-1.485 1.027,-2.258 20.715,-3.039 23.943,-17.274 24.891,-25.715 15.984,-4.185 20.314,-16.307 21.5,-22.776 12.975,-5.025 15.521,-14.306 15.5,-19.206 0.18,-0.091 0.604,-0.234 0.604,-0.234 9.828,-3.563 8.861,-13.559 8.021,-18.461 11.215,-4.021 8.318,-14.813 7.287,-18.987 l 1.121,-2.407 z m -244.337,63.764 c -10.53,3.58 -12.551,5.072 -20.489,13.231 l -1.063,-0.19 c -0.417,-1.597 -1.069,-1.988 -1.313,-3.824 0,0 -0.759,1.639 -0.54,4.336 -5.151,-3.242 -13.111,-7.715 -18.229,-18.06 0.568,0.202 1.593,-0.066 2.164,0.126 0,0 -0.448,-1.648 -1.5,-1.359 10.048,-2.761 16.94,-6.063 24.641,-7.616 6.918,5.828 8.66,9.283 16.329,13.356 z m -19.449,-15.992 c -8.918,2.116 -17.059,4.651 -23.535,7.529 -0.363,-0.886 0.318,-1.672 0.016,-2.634 0,0 -1.723,1.491 -1.51,3.105 -4.154,-3.583 -9.422,-7.497 -11.902,-14.527 0.247,0.089 3.198,-0.189 3.454,-0.135 0,0 -1.208,-0.803 -1.75,-1.275 -0.054,-0.172 -0.673,-0.473 -0.853,-0.443 12.837,-2.029 16.572,-3.95 24.595,-4.417 3.522,5.094 5.544,7.724 11.485,12.797 z M 90.59,181.971 c 1.588,3.808 3.969,6.836 7.457,12.01 -9.441,0.834 -18.987,2.38 -24.765,4.529 -0.103,-0.441 -0.174,-0.917 -0.222,-1.352 0,0 -0.129,0.58 -0.25,1.502 -0.176,0.068 -0.359,0.172 -0.549,0.239 -2.914,-2.87 -6.449,-6.765 -7.174,-13.952 0.508,0.179 2.17,-0.089 2.755,0.035 0,0 -1.95,-1.084 -2.972,-2.012 -0.009,-0.078 0.07,-0.265 -0.009,-0.269 13.315,0.666 17.597,-0.642 25.729,-0.73 z m 153.498,12.011 c -1.862,0 -3.731,-0.33 -5.434,-1.084 -1.197,-0.472 -2.039,-1.035 -2.631,-1.627 -0.588,0.629 -1.443,1.22 -2.674,1.697 -1.629,0.691 -3.467,1.014 -5.496,1.014 l -9.027,0 -5.422,-8.873 c 0,0 8.592,0 10.42,0 0,-0.896 0,-1.486 0,-2.43 -1.484,0 -4.324,0 -4.324,0 -1.172,0 -2.391,-0.146 -3.52,-0.413 -1.252,-0.318 -2.4,-0.763 -3.344,-1.408 l 0,7.413 c 0,1.453 -0.672,3.459 -3.809,4.697 -1.684,0.691 -3.516,1.014 -5.537,1.014 l -8.986,0 -5.479,-8.873 c 0,0 8.594,0 10.422,0 0,-0.896 0,-1.486 0,-2.43 -1.486,0 -4.264,0 -4.264,0 -1.234,0 -2.445,-0.146 -3.512,-0.413 -1.309,-0.317 -2.461,-0.759 -3.408,-1.401 l 0,13.119 -12.629,0 -0.777,0 c 0,0 0,-0.213 0,-0.584 0,-3.324 0,-19.961 0,-21.927 -0.982,0 -2.863,0 -2.863,0 l -5.42,-8.88 12.332,0 c 2.02,0 3.846,0.323 5.453,1.002 1.207,0.469 2.059,1.041 2.648,1.65 0.58,-0.644 1.418,-1.247 2.627,-1.732 1.605,-0.633 3.492,-0.92 5.549,-0.92 l 8.307,0 c 2.465,0 4.344,0.217 5.664,0.729 1.213,0.421 2.031,1.028 2.592,1.711 0.576,-0.563 1.369,-1.089 2.467,-1.521 1.598,-0.633 3.426,-0.92 5.486,-0.92 l 8.354,0 c 2.475,0 4.363,0.217 5.637,0.729 1.158,0.396 1.973,0.96 2.539,1.599 1.277,-1.338 3.693,-2.328 8.059,-2.328 l 8.354,0 c 7.654,0 9.279,3.074 9.279,5.706 l 0,7.289 c 0,1.117 -0.496,2.107 -1.394,2.823 1.103,0.875 1.394,1.849 1.394,2.57 l 0,6.322 0,0.967 c 0,2.561 -1.554,5.531 -8.671,5.695 -0.204,0.005 -0.396,0.016 -0.608,0.016 l -8.354,0 0,0.002 z m 76.887,44.795 c 0.221,-2.696 -0.541,-4.336 -0.541,-4.336 -0.24,1.836 -0.895,2.229 -1.313,3.824 l -1.063,0.191 c -7.938,-8.159 -9.959,-9.651 -20.49,-13.231 7.67,-4.072 9.412,-7.527 16.33,-13.357 7.699,1.553 14.592,4.855 24.639,7.616 -1.051,-0.289 -1.5,1.359 -1.5,1.359 0.572,-0.192 1.598,0.076 2.166,-0.126 -5.117,10.346 -13.078,14.819 -18.228,18.06 z m 21.074,-21.541 c 0.213,-1.614 -1.512,-3.105 -1.512,-3.105 -0.303,0.962 0.381,1.748 0.018,2.634 -6.477,-2.878 -14.615,-5.413 -23.537,-7.529 5.943,-5.073 7.967,-7.703 11.486,-12.797 8.021,0.467 11.758,2.388 24.594,4.417 -0.18,-0.029 -0.797,0.271 -0.852,0.443 -0.543,0.473 -1.75,1.275 -1.75,1.275 0.256,-0.055 3.207,0.224 3.455,0.135 -2.48,7.03 -7.745,10.944 -11.902,14.527 z m 21.545,-34.265 c -1.02,0.928 -2.973,2.012 -2.973,2.012 0.586,-0.124 2.248,0.144 2.754,-0.035 -0.723,7.188 -4.258,11.082 -7.172,13.952 -0.189,-0.067 -0.375,-0.171 -0.549,-0.239 -0.121,-0.922 -0.25,-1.502 -0.25,-1.502 -0.049,0.435 -0.119,0.91 -0.223,1.352 -5.777,-2.149 -15.322,-3.695 -24.764,-4.529 3.488,-5.174 5.867,-8.202 7.457,-12.01 8.131,0.088 12.412,1.396 25.727,0.731 -0.075,0.003 10e-4,0.19 -0.007,0.268 z"
           id="path36"
           inkscape:connector-curvature="0"
           style="fill:#ffffff" /><path
           d="m 210.161,168.299 c 0,-0.027 0.002,-0.055 0.002,-0.083 -0.026,-1.292 -0.635,-2.087 -2.032,-2.609 -1.074,-0.406 -2.674,-0.584 -4.839,-0.584 l -8.307,0 c -1.784,0 -3.328,0.293 -4.673,0.764 -2.026,0.792 -2.247,1.826 -2.247,2.512 l 0,0.002 0,8.76 c 0,0.208 0,0.861 1.25,1.687 0.738,0.528 1.633,0.878 2.706,1.163 0.965,0.221 1.917,0.337 2.964,0.337 l 6.746,0 0,7.292 c 0,0 -5.909,0 -8.529,0 1.04,1.62 2.048,3.353 2.463,4.018 1.143,0 7.628,0 7.628,0 1.665,0 3.195,-0.324 4.572,-0.912 2.303,-0.872 2.303,-1.937 2.303,-2.374 l 0,-11.107 c -0.001,-0.035 -0.007,-0.067 -0.007,-0.103 l 0,-8.763 0,0 z m -8.43,8.024 -5.152,0 0,-7.292 5.152,0 0,7.292 z"
           id="path38"
           inkscape:connector-curvature="0"
           style="fill:#ffffff" /><path
           d="m 183.26,165.864 c -1.356,-0.521 -2.888,-0.839 -4.55,-0.839 0,0 -5.255,0 -7.955,0 0.985,1.626 2.05,3.351 2.425,4.012 0.863,0 3.976,0 3.976,0 0,0 0,20.326 0,22.522 1.661,0 6.752,0 8.422,0 0,-2.211 0,-23.258 0,-23.258 0,-0.433 0,-1.5 -2.318,-2.437 z"
           id="path40"
           inkscape:connector-curvature="0"
           style="fill:#ffffff" /><path
           d="m 232.642,165.608 c -1.006,-0.406 -2.604,-0.584 -4.787,-0.584 l -8.353,0 c -1.729,0 -3.278,0.293 -4.611,0.764 -2.037,0.792 -2.252,1.826 -2.252,2.512 l 0,8.762 c 0,0.208 0,0.861 1.25,1.687 0.727,0.528 1.638,0.878 2.688,1.163 0.979,0.221 1.945,0.337 2.926,0.337 l 6.813,0 0,7.292 c 0,0 -5.978,0 -8.542,0 0.989,1.62 2.055,3.353 2.434,4.018 1.182,0 7.646,0 7.646,0 1.672,0 3.209,-0.324 4.596,-0.912 2.281,-0.872 2.281,-1.937 2.281,-2.374 l 0,-19.972 c 0.001,-1.345 -0.645,-2.16 -2.089,-2.693 z m -6.325,10.715 -5.179,0 0,-7.292 5.179,0 0,7.292 z"
           id="path42"
           inkscape:connector-curvature="0"
           style="fill:#ffffff" /><path
           d="m 256.883,191.009 c 1.603,-0.524 2.134,-1.323 2.305,-1.966 0.083,-0.312 0.087,-0.587 0.087,-0.772 l 0,-7.289 c 0,-0.1 0,-0.374 -0.687,-0.838 -0.455,-0.385 -1.002,-0.578 -1.611,-0.653 l 0.154,-2.417 c 0.606,0 1.15,-0.21 1.6,-0.535 0.4,-0.239 0.544,-0.557 0.544,-0.95 l 0,-7.289 c 0,-0.799 0,-3.275 -6.831,-3.275 l -8.354,0 c -6.868,0 -6.868,2.477 -6.868,3.275 l 0,7.289 c 0,0.277 0.055,0.633 0.584,0.938 0.385,0.268 0.969,0.49 1.664,0.547 l 0.038,2.417 c -0.646,0.082 -1.184,0.259 -1.641,0.635 -0.646,0.445 -0.646,0.736 -0.646,0.856 l 0,7.289 c 0,0.381 0,1.402 2.337,2.349 1.445,0.602 2.961,0.938 4.531,0.938 l 8.354,0 c 2.024,-0.001 3.436,-0.222 4.44,-0.549 z m -6.024,-3.47 -5.229,0 0,-7.292 5.229,0 0,7.292 z m 0,-11.216 -5.229,0 0,-7.292 5.229,0 0,7.292 z"
           id="path44"
           inkscape:connector-curvature="0"
           style="fill:#ffffff" /><path
           d="m 222.583,365.288 c -10.438,-13.476 -6.395,-31.294 -6.395,-31.294 -1.729,3.605 -4.883,0 -4.883,0 1.338,3.104 3.063,22.688 -6.031,30 0,0 9.311,1.501 9.311,-9.273 0.001,8.772 7.998,10.567 7.998,10.567 z"
           id="path46"
           inkscape:connector-curvature="0"
           style="fill:#ffffff" /></g></g><g
       id="typodfco"><path
         d="m 114.258,79.973 -51.457,0 0,69.686 51.457,0 c 3.613,0 7.072,-0.316 10.407,-1.034 3.692,-0.673 6.886,-1.745 9.614,-3.168 2.681,-1.484 4.358,-3.073 5.042,-4.77 l 0,-52.314 c -1.74,-5.604 -10.076,-8.4 -25.063,-8.4 z m 4.227,52.153 c -1.916,1.905 -5.273,2.008 -5.979,2.008 -0.087,0 -0.133,0 -0.133,0 l -21.408,0 0,-38.759 21.058,0 c 0,0 0.584,-0.035 1.411,-0.035 1.621,0 4.17,0.143 5.051,0.999 1.284,1.331 0.99,6.494 0.99,6.494 l 0,23.919 c 0,0 0.152,4.234 -0.99,5.374 z"
         id="path49"
         inkscape:connector-curvature="0"
         style="fill:#ffffff" /><polygon
         points="217.181,102.869 217.181,99.562 181.841,99.562 181.841,102.869 212.381,102.869 "
         id="polygon51"
         style="fill:#ffffff" /><path
         d="m 143.503,87.736 0,53.654 0,8.268 34.154,0 0,-27.198 24.775,0 9.949,-15.408 -34.724,0 0,-11.677 39.523,0 0,-4.646 c 0,-0.548 0.044,-1.122 0.138,-1.712 l 0,-9.044 -73.815,0 0,7.763 z"
         id="path53"
         inkscape:connector-curvature="0"
         style="fill:#ffffff" /><path
         d="m 113.434,99.524 c -0.666,0 -1.144,0.028 -1.144,0.028 l -0.134,0.01 -0.133,0 -16.872,0 0,30.388 17.221,0 0.032,-10e-4 0.101,0.002 c 0.956,0 2.025,-0.225 2.641,-0.529 0.108,-0.633 0.173,-1.686 0.147,-2.519 l -0.001,-0.075 0,-0.076 0,-23.919 0,-0.12 0.007,-0.121 c 0.05,-0.876 0.021,-2.096 -0.073,-2.984 -0.441,-0.046 -1.035,-0.084 -1.792,-0.084 z m -0.224,2.952 -0.011,24.276 0.005,0.22 c 0.007,0.267 0.006,0.555 -0.006,0.838 -0.209,0.028 -0.431,0.047 -0.648,0.051 l -0.24,-0.006 -15.069,0.006 0,-26.208 14.782,0 0.389,-0.013 c 0.024,0 0.349,-0.018 0.818,-0.024 10e-4,0.307 -0.006,0.602 -0.02,0.86 z"
         id="path55"
         inkscape:connector-curvature="0"
         style="fill:#ffffff" /><path
         d="m 342.139,99.562 -0.016,0 -0.023,0 -12.932,0 -0.043,0 -0.074,-0.003 -0.037,-10e-4 c -0.145,0 -0.295,0.007 -0.434,0.02 0.002,0.082 0.01,0.162 0.014,0.234 l 0.076,0.299 0,0.488 0,27.884 0,0.117 -0.004,0.139 c -0.023,0.367 -0.01,0.82 0.027,1.207 0.244,0.025 0.547,0.043 0.912,0.043 0.396,0 0.678,-0.021 0.678,-0.021 l 0.18,-0.018 0.186,0 10.727,0 0.129,-0.014 0.23,0.028 c 0.02,0.004 0.047,0.004 0.072,0.004 0.332,0 0.621,-0.048 0.824,-0.102 0.061,-0.391 0.104,-0.912 0.096,-1.319 l 0,-0.032 0,-0.033 0,-27.61 -0.01,-0.185 0.035,-0.285 c 0.025,-0.241 0.031,-0.536 0.016,-0.807 -0.221,-0.02 -0.439,-0.033 -0.629,-0.033 z m -1.5,28.298 -9.875,0 0,-26.208 9.875,0 0,26.208 z"
         id="path57"
         inkscape:connector-curvature="0"
         style="fill:#ffffff" /><path
         d="m 367.225,76.884 c -5.041,-2.144 -12.047,-3.185 -21.404,-3.185 l -26.088,0 c -3.443,0 -6.527,0.138 -9.332,0.412 l 0.268,-0.412 -63.846,0 c -6.59,0 -12.568,0.828 -17.732,2.446 -2.045,0.603 -3.877,1.327 -5.498,2.165 l 0,-4.611 -86.363,0 0,3.857 c -0.47,-0.239 -0.958,-0.465 -1.46,-0.678 -5.059,-2.14 -12.096,-3.179 -21.513,-3.179 l -57.73,0 0,82.233 57.731,0 c 4.19,0 8.005,-0.376 11.603,-1.145 4.215,-0.78 8.025,-2.048 11.37,-3.796 l 0,4.94 46.701,0 0,-27.196 21.917,0 9.247,-14.313 0,24.478 c 0,4.654 2.455,10.938 14.154,14.447 5.412,1.739 11.162,2.584 17.572,2.584 l 35.803,0 7.045,-10.945 c 1.801,3.074 5.408,6.233 12.402,8.355 5.307,1.719 11.248,2.59 17.66,2.59 l 26.088,0 c 6.742,0 12.715,-0.769 17.748,-2.292 12.021,-3.674 13.822,-10.811 13.822,-14.739 l 0,-48.171 c 0.001,-3.562 -1.323,-10.096 -10.165,-13.845 z m 8.068,62.016 c 0,4.093 -2.139,9.623 -12.336,12.739 -4.834,1.462 -10.598,2.204 -17.139,2.204 l -26.088,0 c -6.193,0 -11.92,-0.838 -17.021,-2.488 -9.235,-2.803 -11.986,-7.34 -12.487,-11.082 l -7.499,11.647 -1.24,1.922 -2.283,0 -32.377,0 c -6.191,0 -11.729,-0.813 -16.936,-2.487 -10.499,-3.149 -12.706,-8.512 -12.706,-12.455 l 0,-31.569 -1.284,1.989 -9.952,15.407 -1.233,1.916 -2.279,0 -20.592,0 0,23.016 0,4.184 -4.183,0 -34.154,0 -4.183,0 0,-4.184 0,-2.528 c -0.881,0.694 -1.883,1.357 -3.018,1.984 l -0.043,0.024 -0.043,0.024 c -3.116,1.626 -6.727,2.826 -10.735,3.567 -3.509,0.749 -7.18,1.112 -11.223,1.112 l -51.458,0 -4.183,0 0,-4.184 0,-69.685 0,-4.181 4.183,0 51.457,0 c 9.129,0 15.901,0.985 20.699,3.013 1.775,0.751 3.206,1.619 4.364,2.553 l 0,-1.385 0,-4.181 4.183,0 73.815,0 4.18,0 0,4.181 0,2.179 c 1.879,-1.525 4.508,-2.918 8.187,-3.999 4.991,-1.568 10.765,-2.361 17.14,-2.361 l 52.326,0 7.682,0 -0.658,1.019 c 3.785,-0.676 8.266,-1.019 13.561,-1.019 l 26.088,0 c 9.068,0 15.807,0.985 20.592,3.016 7.34,3.116 8.881,8.201 8.881,11.921 l 0,48.171 -0.005,0 z"
         id="path59"
         inkscape:connector-curvature="0"
         style="fill:#ffffff" /><path
         d="m 345.821,79.973 -26.088,0 c -7.105,0 -12.705,0.638 -16.834,1.9 -5.706,1.745 -8.585,4.688 -8.585,8.855 l 0,4.44 0,34.781 0,3.965 0,4.985 c 0,3.649 3.214,6.514 9.651,8.46 4.762,1.549 10.043,2.298 15.768,2.298 l 26.088,0 c 6.148,0 11.467,-0.673 15.922,-2.024 6.23,-1.903 9.369,-4.799 9.369,-8.734 l 0,-48.17 c 0,-7.182 -8.457,-10.756 -25.291,-10.756 z m 0.09,52.708 c -1.27,1.312 -3.236,1.466 -4.104,1.466 -0.271,0 -0.434,-0.013 -0.434,-0.013 l -10.727,0 c 0,0 -0.43,0.037 -1.041,0.037 -1.242,0 -3.25,-0.151 -4.113,-1.046 -1.229,-1.227 -1.004,-4.643 -1.004,-4.643 l 0,-27.884 c 0,0 -0.541,-2.717 1.004,-4.259 0.918,-0.9 2.947,-0.964 3.521,-0.964 0.102,0 0.154,0 0.154,0 l 12.933,0 c 0,0 0.012,0 0.025,0 0.256,0 2.813,0.025 3.785,0.964 1.377,1.417 1,4.533 1,4.533 l 0,27.61 c 0.003,0 0.051,3.194 -0.999,4.199 z"
         id="path61"
         inkscape:connector-curvature="0"
         style="fill:#ffffff" /><path
         d="m 246.823,79.973 c -5.916,0 -11.246,0.711 -15.921,2.18 -5.64,1.651 -8.762,4.085 -9.403,7.293 l 0,5.929 0,4.187 -0.131,0 0,39.338 c 0,3.649 3.25,6.514 9.764,8.46 4.801,1.549 10.006,2.298 15.691,2.298 l 32.377,0 9.998,-15.524 -33.678,0 0,-38.759 33.678,0 0.93,-1.438 0,-3.209 c 0,-3.288 1.215,-7.639 6.578,-10.756 l -49.883,0.001 0,0 z"
         id="path63"
         inkscape:connector-curvature="0"
         style="fill:#ffffff" /><path
         d="m 259.708,99.562 0,30.388 29.49,0 0.93,0 0,-30.388 -0.93,0 -29.49,0 z m 28.326,28.298 -26.24,0 0,-26.208 26.24,0 0,26.208 z"
         id="path65"
         inkscape:connector-curvature="0"
         style="fill:#ffffff" /></g></g></svg>