<?xml version="1.0" encoding="UTF-8" standalone="no"?>
<!-- Created with Inkscape (http://www.inkscape.org/) -->

<svg
   xmlns:dc="http://purl.org/dc/elements/1.1/"
   xmlns:cc="http://creativecommons.org/ns#"
   xmlns:rdf="http://www.w3.org/1999/02/22-rdf-syntax-ns#"
   xmlns:svg="http://www.w3.org/2000/svg"
   xmlns="http://www.w3.org/2000/svg"
   xmlns:sodipodi="http://sodipodi.sourceforge.net/DTD/sodipodi-0.dtd"
   xmlns:inkscape="http://www.inkscape.org/namespaces/inkscape"
   id="svg2"
   version="1.1"
   inkscape:version="0.48.5 r10040"
   width="83.453751"
   height="49.09"
   xml:space="preserve"
   sodipodi:docname="telecharger-lengagement-du-club.pdf"><metadata
     id="metadata8"><rdf:RDF><cc:Work
         rdf:about=""><dc:format>image/svg+xml</dc:format><dc:type
           rdf:resource="http://purl.org/dc/dcmitype/StillImage" /><dc:title></dc:title></cc:Work></rdf:RDF></metadata><defs
     id="defs6" /><sodipodi:namedview
     pagecolor="#ffffff"
     bordercolor="#666666"
     borderopacity="1"
     objecttolerance="10"
     gridtolerance="10"
     guidetolerance="10"
     inkscape:pageopacity="0"
     inkscape:pageshadow="2"
     inkscape:window-width="1280"
     inkscape:window-height="669"
     id="namedview4"
     showgrid="false"
     fit-margin-top="0"
     fit-margin-left="0"
     fit-margin-right="0"
     fit-margin-bottom="0"
     inkscape:zoom="5.0236198"
     inkscape:cx="62.165367"
     inkscape:cy="41.908868"
     inkscape:window-x="0"
     inkscape:window-y="1"
     inkscape:window-maximized="1"
     inkscape:current-layer="g10" /><g
     id="g10"
     inkscape:groupmode="layer"
     inkscape:label="telecharger-lengagement-du-club"
     transform="matrix(1.25,0,0,-1.25,-247.75375,72.00375)"><g
       id="g3356"><path
         id="path20"
         style="fill:#e30613;fill-opacity:1;fill-rule:nonzero;stroke:none"
         d="m 264.966,18.331 -66.763,0 0,39.272 66.763,0 0,-39.272 z"
         inkscape:connector-curvature="0" /><path
         id="path22"
         style="fill:#000000;fill-opacity:1;fill-rule:nonzero;stroke:none"
         d="m 264.966,39.55 -43.396,0 0,6.304 43.396,0 0,-6.304 z"
         inkscape:connector-curvature="0" /><path
         id="path24"
         style="fill:#000000;fill-opacity:1;fill-rule:nonzero;stroke:none"
         d="m 221.57,51.205 43.396,0 0,6.398 -43.396,0 0,-6.398 z"
         inkscape:connector-curvature="0" /><path
         transform="translate(200.9224,45.3618)"
         d="M 0,0 C 0,5.07 4.139,9.181 9.244,9.181 14.35,9.181 18.488,5.07 18.488,0 18.488,-5.071 14.35,-9.181 9.244,-9.181 4.139,-9.181 0,-5.071 0,0"
         style="fill:#000000;fill-opacity:1;fill-rule:nonzero;stroke:none"
         id="path36"
         inkscape:connector-curvature="0" /><path
         id="path38"
         style="fill:#000000;fill-opacity:1;fill-rule:nonzero;stroke:none"
         d="m 264.966,26.119 -66.763,0 0,7.141 66.763,0 0,-7.141 z"
         inkscape:connector-curvature="0" /><path
         transform="translate(253.3925,36.3555)"
         d="m 0,0 c -1.835,0 -3.327,1.481 -3.327,3.303 l 0,11.45 c 0,1.822 1.492,3.304 3.327,3.304 l 4.849,0 c 1.834,0 3.326,-1.482 3.326,-3.304 l 0,-1.794 -3.205,0 0,1.892 -5.091,0 0,-11.658 5.091,0 0,3.121 -2.281,0 0,3.184 5.486,0 0,-6.195 C 8.175,1.481 6.683,0 4.849,0 L 0,0 z"
         style="fill:#ffffff;fill-opacity:1;fill-rule:nonzero;stroke:none"
         id="path50"
         inkscape:connector-curvature="0" /><path
         transform="translate(224.8164,36.3667)"
         d="m 0,0 0,18.022 9.123,0 0,-3.184 -5.917,0 0,-4.235 5.917,0 0,-3.184 -5.917,0 0,-4.236 5.917,0 L 9.123,0 0,0 z"
         style="fill:#ffffff;fill-opacity:1;fill-rule:nonzero;stroke:none"
         id="path54"
         inkscape:connector-curvature="0" /><path
         transform="translate(240.0565,42.7734)"
         d="M 0,0 4.213,0 2.109,7.738 0,0 z m 5.961,-6.407 -0.881,3.183 -5.947,0 -0.876,-3.183 -3.321,0 4.908,18.022 4.53,0 4.908,-18.022 -3.321,0 z"
         style="fill:#ffffff;fill-opacity:1;fill-rule:nonzero;stroke:none"
         id="path58"
         inkscape:connector-curvature="0" /><path
         transform="translate(213.654,20.4731)"
         d="m 0,0 c -0.024,0.048 -0.06,0.072 -0.107,0.072 -0.034,0 -0.079,-0.014 -0.135,-0.043 -0.127,-0.071 -0.245,-0.131 -0.356,-0.178 -0.109,-0.047 -0.235,-0.086 -0.377,-0.115 -0.141,-0.029 -0.301,-0.045 -0.477,-0.045 -0.463,0 -0.869,0.075 -1.217,0.224 -0.348,0.149 -0.618,0.365 -0.808,0.649 -0.191,0.283 -0.286,0.62 -0.286,1.012 0,0.382 0.098,0.721 0.294,1.015 0.195,0.295 0.469,0.524 0.821,0.686 0.352,0.162 0.752,0.244 1.202,0.244 0.26,0 0.482,-0.03 0.666,-0.089 0.184,-0.059 0.364,-0.142 0.538,-0.249 0.05,-0.031 0.092,-0.046 0.128,-0.046 0.09,0 0.146,0.103 0.167,0.31 l 0.15,0 C 0.186,3.212 0.178,2.792 0.178,2.188 l -0.151,0 C -0.001,2.362 -0.031,2.503 -0.064,2.613 -0.097,2.722 -0.145,2.818 -0.208,2.901 -0.27,2.984 -0.356,3.06 -0.465,3.13 -0.573,3.212 -0.7,3.276 -0.846,3.319 -0.99,3.362 -1.141,3.383 -1.296,3.383 -1.597,3.383 -1.844,3.301 -2.038,3.137 -2.231,2.973 -2.373,2.756 -2.462,2.487 -2.552,2.218 -2.597,1.92 -2.597,1.596 c 0,-0.325 0.047,-0.622 0.141,-0.891 0.094,-0.269 0.24,-0.485 0.439,-0.647 0.2,-0.162 0.448,-0.243 0.747,-0.243 0.151,0 0.299,0.022 0.444,0.067 0.145,0.044 0.267,0.107 0.367,0.19 0.111,0.068 0.198,0.146 0.261,0.235 0.063,0.089 0.11,0.192 0.14,0.309 0.031,0.116 0.06,0.27 0.085,0.459 l 0.151,0 c 0,-0.628 0.008,-1.065 0.025,-1.31 l -0.15,0 C 0.042,-0.127 0.024,-0.048 0,0"
         style="fill:#ffffff;fill-opacity:1;fill-rule:nonzero;stroke:none"
         id="path70"
         inkscape:connector-curvature="0" /><path
         transform="translate(215.6227,22.5713)"
         d="m 0,0 c -0.112,-0.216 -0.167,-0.547 -0.167,-0.992 0,-0.444 0.055,-0.774 0.167,-0.988 0.112,-0.215 0.262,-0.323 0.449,-0.323 0.19,0 0.339,0.107 0.449,0.322 0.11,0.214 0.165,0.543 0.165,0.989 0,0.447 -0.055,0.778 -0.165,0.994 C 0.788,0.217 0.639,0.325 0.449,0.325 0.262,0.325 0.112,0.217 0,0 M 1.007,1.36 C 1.217,1.177 1.444,1.027 1.689,0.912 L 1.635,0.838 C 1.386,0.885 1.142,0.945 0.903,1.018 0.683,1.083 0.503,1.15 0.363,1.217 0.34,1.228 0.316,1.227 0.294,1.214 0.179,1.148 0.036,1.083 -0.137,1.018 -0.328,0.945 -0.523,0.885 -0.721,0.838 l -0.051,0.074 c 0.241,0.113 0.465,0.262 0.671,0.444 0.207,0.183 0.373,0.374 0.499,0.575 l 0.118,0 C 0.633,1.734 0.797,1.544 1.007,1.36 M 1.624,0.087 C 1.908,-0.14 2.05,-0.5 2.05,-0.992 2.05,-1.483 1.908,-1.842 1.624,-2.068 1.339,-2.294 0.948,-2.407 0.449,-2.407 c -0.498,0 -0.89,0.113 -1.176,0.339 -0.285,0.226 -0.428,0.585 -0.428,1.076 0,0.491 0.143,0.85 0.428,1.077 0.286,0.228 0.678,0.342 1.176,0.342 0.499,0 0.89,-0.114 1.175,-0.34"
         style="fill:#ffffff;fill-opacity:1;fill-rule:nonzero;stroke:none"
         id="path74"
         inkscape:connector-curvature="0" /><path
         transform="translate(220.1853,22.9224)"
         d="m 0,0 0,-0.104 -0.695,0 c -0.043,0 -0.079,-0.036 -0.079,-0.079 l 0,-2.019 c 0,-0.103 0.024,-0.176 0.071,-0.219 0.046,-0.043 0.119,-0.065 0.217,-0.065 0.186,0 0.334,0.104 0.445,0.312 l 0.112,-0.048 c -0.165,-0.357 -0.463,-0.536 -0.896,-0.536 -0.288,0 -0.506,0.059 -0.655,0.177 -0.091,0.072 -0.153,0.162 -0.187,0.271 -0.033,0.11 -0.05,0.261 -0.05,0.454 l 0,1.673 c 0,0.043 -0.035,0.079 -0.079,0.079 l -0.47,0 0,0.104 0.47,0 c 0.044,0 0.079,0.035 0.079,0.079 l 0,0.535 c 0,0.042 0.036,0.076 0.079,0.077 0.282,0.007 0.534,0.049 0.757,0.126 0.053,0.019 0.107,-0.018 0.107,-0.073 l 0,-0.665 C -0.774,0.035 -0.738,0 -0.695,0 L 0,0 z"
         style="fill:#ffffff;fill-opacity:1;fill-rule:nonzero;stroke:none"
         id="path78"
         inkscape:connector-curvature="0" /><path
         transform="translate(222.3509,22.6201)"
         d="m 0,0 c -0.076,0.179 -0.191,0.269 -0.344,0.269 -0.155,0 -0.285,-0.077 -0.388,-0.23 -0.094,-0.139 -0.155,-0.348 -0.183,-0.628 -0.005,-0.046 0.033,-0.087 0.08,-0.087 l 0.859,0 c 0.044,0 0.081,0.037 0.081,0.08 C 0.103,-0.36 0.068,-0.162 0,0 m -0.919,-1.019 c 0,-0.23 0.04,-0.42 0.121,-0.572 0.081,-0.151 0.186,-0.263 0.315,-0.333 0.129,-0.07 0.267,-0.105 0.414,-0.105 0.36,0 0.649,0.138 0.866,0.417 L 0.912,-1.643 C 0.857,-1.785 0.771,-1.918 0.655,-2.041 0.539,-2.163 0.392,-2.263 0.214,-2.34 0.036,-2.417 -0.167,-2.456 -0.395,-2.456 c -0.3,0 -0.564,0.051 -0.791,0.152 -0.227,0.102 -0.404,0.257 -0.53,0.464 -0.127,0.207 -0.191,0.465 -0.191,0.774 0,0.315 0.069,0.58 0.205,0.795 0.136,0.216 0.325,0.378 0.566,0.486 0.24,0.109 0.518,0.163 0.834,0.163 0.791,0 1.2,-0.357 1.228,-1.071 0.003,-0.044 -0.035,-0.082 -0.079,-0.082 l -1.684,0 c -0.041,0 -0.076,-0.032 -0.079,-0.073 -0.002,-0.046 -0.003,-0.103 -0.003,-0.171"
         style="fill:#ffffff;fill-opacity:1;fill-rule:nonzero;stroke:none"
         id="path82"
         inkscape:connector-curvature="0" /><path
         transform="translate(224.2398,20.5376)"
         d="m 0,0 c 0.141,-0.169 0.343,-0.254 0.602,-0.254 0.128,0 0.237,0.031 0.328,0.093 0.091,0.062 0.136,0.154 0.136,0.278 C 1.066,0.213 1.039,0.3 0.985,0.376 0.93,0.452 0.861,0.52 0.778,0.58 0.695,0.638 0.571,0.72 0.404,0.823 0.202,0.953 0.05,1.056 -0.051,1.13 -0.152,1.204 -0.239,1.293 -0.312,1.396 -0.358,1.461 -0.39,1.533 -0.407,1.61 c -0.047,0.219 0.043,0.451 0.218,0.593 0.09,0.073 0.202,0.131 0.334,0.174 0.173,0.056 0.361,0.084 0.563,0.084 0.166,0 0.318,-0.016 0.457,-0.048 C 1.304,2.38 1.412,2.343 1.491,2.301 1.534,2.277 1.572,2.266 1.606,2.266 c 0.081,0 0.132,0.063 0.153,0.19 l 0.144,0 C 1.886,2.281 1.878,1.977 1.878,1.542 l -0.144,0 C 1.696,1.768 1.61,1.959 1.477,2.114 1.343,2.269 1.15,2.346 0.896,2.346 0.766,2.346 0.66,2.317 0.577,2.257 0.494,2.198 0.452,2.117 0.452,2.014 0.452,1.897 0.501,1.796 0.599,1.712 0.697,1.627 0.815,1.546 0.954,1.468 1.093,1.39 1.194,1.332 1.258,1.292 1.436,1.186 1.578,1.093 1.684,1.013 1.79,0.934 1.875,0.843 1.942,0.743 2.008,0.642 2.041,0.527 2.041,0.396 2.041,0.244 1.985,0.109 1.873,-0.008 1.761,-0.124 1.61,-0.214 1.421,-0.278 1.231,-0.341 1.023,-0.373 0.797,-0.373 c -0.232,0 -0.435,0.036 -0.607,0.109 -0.13,0.052 -0.232,0.089 -0.307,0.109 -0.013,0.004 -0.023,0.005 -0.032,0.005 -0.07,0 -0.121,-0.062 -0.153,-0.185 l -0.144,0 c 0.017,0.198 0.026,0.544 0.026,1.038 l 0.143,0 C -0.234,0.404 -0.142,0.169 0,0"
         style="fill:#ffffff;fill-opacity:1;fill-rule:nonzero;stroke:none"
         id="path86"
         inkscape:connector-curvature="0" /><path
         transform="translate(230.007,22.8486)"
         d="m 0,0 c -0.23,0 -0.408,-0.106 -0.534,-0.318 -0.126,-0.211 -0.187,-0.527 -0.185,-0.947 -0.007,-0.797 0.199,-1.195 0.617,-1.195 0.093,0 0.182,0.018 0.265,0.055 0.083,0.037 0.153,0.092 0.209,0.161 0.057,0.071 0.093,0.152 0.108,0.245 l 0,1.787 c 0,0.022 -0.009,0.044 -0.025,0.058 C 0.346,-0.051 0.194,0 0,0 m 1.513,-2.388 c 0.061,-0.072 0.17,-0.108 0.328,-0.108 l 0,-0.109 C 1.702,-2.595 1.567,-2.59 1.435,-2.59 1.095,-2.59 0.807,-2.609 0.571,-2.646 0.523,-2.653 0.48,-2.617 0.48,-2.568 l 0,0.353 c -0.148,-0.313 -0.431,-0.469 -0.851,-0.469 -0.266,0 -0.5,0.051 -0.701,0.154 -0.202,0.102 -0.358,0.26 -0.47,0.474 -0.112,0.215 -0.167,0.482 -0.165,0.804 -0.002,0.305 0.059,0.562 0.184,0.772 0.125,0.21 0.297,0.367 0.518,0.472 0.22,0.106 0.473,0.158 0.759,0.158 0.252,0 0.455,-0.04 0.608,-0.12 C 0.416,0.002 0.48,0.038 0.48,0.098 l 0,0.74 C 0.48,0.999 0.448,1.115 0.385,1.187 0.322,1.259 0.214,1.295 0.061,1.295 l 0,0.11 C 0.2,1.394 0.335,1.389 0.467,1.389 0.805,1.389 1.093,1.408 1.33,1.446 1.379,1.455 1.422,1.417 1.422,1.369 l 0,-3.409 c 0,-0.16 0.031,-0.276 0.091,-0.348"
         style="fill:#ffffff;fill-opacity:1;fill-rule:nonzero;stroke:none"
         id="path90"
         inkscape:connector-curvature="0" /><path
         transform="translate(232.9316,22.8306)"
         d="m 0,0 c 0.094,0.086 0.15,0.174 0.169,0.264 0.011,0.048 0.017,0.089 0.017,0.122 0,0.039 -0.006,0.071 -0.017,0.096 -0.1,-0.083 -0.227,-0.124 -0.38,-0.124 -0.153,0 -0.278,0.036 -0.374,0.107 -0.096,0.071 -0.144,0.169 -0.144,0.295 0,0.118 0.051,0.215 0.152,0.289 0.101,0.075 0.23,0.112 0.385,0.112 C 0.021,1.161 0.177,1.1 0.275,0.978 0.32,0.925 0.355,0.86 0.38,0.783 0.406,0.707 0.419,0.627 0.419,0.546 0.419,0.368 0.361,0.206 0.246,0.058 0.131,-0.089 -0.04,-0.204 -0.269,-0.287 l -0.06,0.094 C -0.204,-0.151 -0.094,-0.086 0,0"
         style="fill:#ffffff;fill-opacity:1;fill-rule:nonzero;stroke:none"
         id="path94"
         inkscape:connector-curvature="0" /><path
         transform="translate(234.8755,22.9893)"
         d="m 0,0 -0.55,-1.14 c -0.026,-0.052 0.013,-0.113 0.071,-0.113 l 1.077,0 c 0.058,0 0.096,0.059 0.072,0.111 L 0.143,-0.001 C 0.115,0.059 0.029,0.06 0,0 m 2.553,-2.564 c 0.072,-0.053 0.145,-0.08 0.217,-0.083 l 0,-0.104 c -0.262,0.01 -0.593,0.015 -0.994,0.015 -0.447,0 -0.778,-0.005 -0.994,-0.015 l 0,0.104 c 0.165,0.005 0.282,0.021 0.354,0.048 0.071,0.027 0.107,0.075 0.107,0.142 0,0.053 -0.027,0.135 -0.08,0.247 L 0.791,-1.403 C 0.778,-1.375 0.75,-1.357 0.719,-1.357 l -1.325,0 c -0.03,0 -0.058,-0.018 -0.072,-0.044 l -0.151,-0.314 c -0.119,-0.243 -0.178,-0.437 -0.178,-0.579 0,-0.129 0.047,-0.219 0.143,-0.269 0.096,-0.051 0.241,-0.079 0.435,-0.084 l 0,-0.104 c -0.294,0.01 -0.565,0.015 -0.812,0.015 -0.2,0 -0.366,-0.005 -0.498,-0.015 l 0,0.104 c 0.217,0.029 0.404,0.21 0.562,0.546 l 1.47,2.995 C 0.306,0.922 0.335,0.939 0.367,0.937 0.423,0.935 0.481,0.933 0.543,0.933 c 0.063,0 0.121,0.002 0.174,0.004 0.032,0.002 0.062,-0.015 0.076,-0.043 l 1.565,-3.208 c 0.058,-0.116 0.123,-0.199 0.195,-0.25"
         style="fill:#ffffff;fill-opacity:1;fill-rule:nonzero;stroke:none"
         id="path98"
         inkscape:connector-curvature="0" /><path
         transform="translate(239.4756,22.8599)"
         d="m 0,0 c 0.157,0.092 0.334,0.139 0.532,0.139 0.133,0 0.243,-0.024 0.333,-0.069 0.089,-0.046 0.155,-0.105 0.198,-0.176 0.042,-0.073 0.064,-0.15 0.064,-0.233 0,-0.129 -0.047,-0.233 -0.141,-0.315 -0.094,-0.081 -0.217,-0.121 -0.371,-0.121 -0.149,0 -0.267,0.029 -0.353,0.089 -0.086,0.061 -0.129,0.142 -0.129,0.243 0,0.166 0.096,0.301 0.287,0.406 -0.027,0.005 -0.054,0.008 -0.08,0.008 -0.029,0 -0.063,-0.004 -0.102,-0.013 C 0.127,-0.055 0.026,-0.097 -0.066,-0.167 -0.157,-0.238 -0.229,-0.322 -0.281,-0.42 -0.334,-0.519 -0.36,-0.614 -0.36,-0.707 l 0,-1.379 c 0,-0.161 0.05,-0.272 0.147,-0.334 0.098,-0.062 0.255,-0.093 0.47,-0.093 l 0,-0.109 c -0.545,0.014 -0.893,0.02 -1.041,0.02 -0.139,0 -0.451,-0.006 -0.937,-0.02 l 0,0.109 c 0.104,0 0.187,0.012 0.248,0.034 0.06,0.021 0.104,0.06 0.131,0.114 0.026,0.054 0.04,0.129 0.04,0.226 l 0,1.64 c 0,0.161 -0.031,0.277 -0.093,0.349 -0.062,0.072 -0.17,0.108 -0.326,0.108 l 0,0.109 c 0.139,-0.01 0.274,-0.015 0.406,-0.015 0.34,0 0.628,0.019 0.864,0.055 0.048,0.008 0.091,-0.028 0.091,-0.077 l 0,-0.153 c 0,-0.069 0.087,-0.106 0.135,-0.054 C -0.161,-0.11 -0.086,-0.051 0,0"
         style="fill:#ffffff;fill-opacity:1;fill-rule:nonzero;stroke:none"
         id="path102"
         inkscape:connector-curvature="0" /><path
         transform="translate(246.1156,20.4946)"
         d="m 0,0 c 0.028,-0.054 0.071,-0.092 0.131,-0.114 0.06,-0.022 0.142,-0.033 0.246,-0.033 l 0,-0.109 c -0.435,0.013 -0.723,0.02 -0.866,0.02 -0.121,0 -0.391,-0.007 -0.808,-0.02 l 0,0.109 c 0.078,0 0.14,0.011 0.185,0.033 0.045,0.022 0.077,0.059 0.097,0.113 0.021,0.053 0.03,0.129 0.03,0.227 l 0,1.618 c 0,0.143 -0.027,0.252 -0.081,0.323 C -1.12,2.239 -1.224,2.275 -1.378,2.275 -1.484,2.275 -1.583,2.25 -1.675,2.202 -1.766,2.152 -1.843,2.086 -1.903,2.001 -1.964,1.916 -2.001,1.822 -2.013,1.716 l 0,-0.091 0,-1.399 c 0,-0.097 0.012,-0.172 0.036,-0.226 0.025,-0.054 0.064,-0.092 0.119,-0.114 0.054,-0.022 0.129,-0.033 0.225,-0.033 l 0,-0.109 c -0.418,0.013 -0.693,0.02 -0.825,0.02 -0.123,0 -0.394,-0.007 -0.812,-0.02 l 0,0.109 c 0.079,0 0.141,0.011 0.186,0.033 0.045,0.022 0.077,0.06 0.097,0.114 0.021,0.054 0.031,0.129 0.031,0.226 l 0,1.618 c 0,0.145 -0.024,0.253 -0.071,0.324 -0.046,0.072 -0.14,0.107 -0.281,0.107 -0.115,0 -0.221,-0.026 -0.318,-0.078 C -3.723,2.144 -3.8,2.072 -3.858,1.979 -3.915,1.887 -3.944,1.785 -3.944,1.673 l 0,-1.447 c 0,-0.097 0.01,-0.172 0.03,-0.226 0.021,-0.054 0.053,-0.092 0.098,-0.114 0.045,-0.022 0.106,-0.033 0.186,-0.033 l 0,-0.109 c -0.384,0.013 -0.641,0.02 -0.771,0.02 -0.134,0 -0.436,-0.007 -0.905,-0.02 l 0,0.109 c 0.105,0 0.188,0.011 0.248,0.033 0.061,0.022 0.105,0.06 0.131,0.114 0.027,0.054 0.04,0.129 0.04,0.226 l 0,1.64 c 0,0.161 -0.031,0.278 -0.093,0.349 -0.062,0.072 -0.17,0.108 -0.326,0.108 l 0,0.11 c 0.139,-0.011 0.274,-0.016 0.406,-0.016 0.34,0 0.628,0.019 0.864,0.056 0.049,0.007 0.092,-0.029 0.092,-0.078 l 0,-0.146 c 0,-0.07 0.085,-0.104 0.134,-0.055 0.203,0.207 0.497,0.31 0.883,0.31 0.332,0 0.571,-0.067 0.718,-0.201 0.049,-0.045 0.089,-0.101 0.119,-0.168 0.025,-0.055 0.097,-0.067 0.135,-0.02 0.098,0.122 0.216,0.213 0.356,0.272 0.184,0.078 0.397,0.117 0.64,0.117 0.332,0 0.572,-0.067 0.719,-0.201 0.071,-0.066 0.121,-0.152 0.152,-0.258 0.031,-0.106 0.047,-0.245 0.047,-0.42 l 0,-1.399 C -0.041,0.129 -0.028,0.054 0,0"
         style="fill:#ffffff;fill-opacity:1;fill-rule:nonzero;stroke:none"
         id="path106"
         inkscape:connector-curvature="0" /><path
         transform="translate(247.9741,22.5713)"
         d="m 0,0 c -0.112,-0.216 -0.167,-0.547 -0.167,-0.992 0,-0.444 0.055,-0.774 0.167,-0.988 0.112,-0.215 0.262,-0.323 0.449,-0.323 0.19,0 0.339,0.107 0.449,0.322 0.11,0.214 0.165,0.543 0.165,0.989 0,0.447 -0.055,0.778 -0.165,0.994 C 0.788,0.217 0.639,0.325 0.449,0.325 0.262,0.325 0.112,0.217 0,0 M 1.624,0.087 C 1.908,-0.14 2.05,-0.5 2.05,-0.992 2.05,-1.483 1.908,-1.842 1.624,-2.068 1.339,-2.294 0.948,-2.407 0.449,-2.407 c -0.498,0 -0.89,0.113 -1.176,0.339 -0.285,0.226 -0.428,0.585 -0.428,1.076 0,0.491 0.143,0.85 0.428,1.077 0.286,0.228 0.678,0.342 1.176,0.342 0.499,0 0.89,-0.114 1.175,-0.34"
         style="fill:#ffffff;fill-opacity:1;fill-rule:nonzero;stroke:none"
         id="path110"
         inkscape:connector-curvature="0" /><path
         transform="translate(252.1515,22.8599)"
         d="m 0,0 c 0.157,0.092 0.334,0.139 0.532,0.139 0.133,0 0.243,-0.024 0.333,-0.069 0.089,-0.046 0.155,-0.105 0.198,-0.176 0.042,-0.073 0.064,-0.15 0.064,-0.233 0,-0.129 -0.047,-0.233 -0.141,-0.315 -0.094,-0.081 -0.217,-0.121 -0.371,-0.121 -0.149,0 -0.267,0.029 -0.353,0.089 -0.086,0.061 -0.129,0.142 -0.129,0.243 0,0.166 0.096,0.301 0.287,0.406 -0.028,0.005 -0.054,0.008 -0.08,0.008 -0.03,0 -0.063,-0.004 -0.102,-0.013 C 0.127,-0.055 0.026,-0.097 -0.066,-0.167 -0.157,-0.238 -0.229,-0.322 -0.281,-0.42 -0.334,-0.519 -0.36,-0.614 -0.36,-0.707 l 0,-1.379 c 0,-0.161 0.049,-0.272 0.147,-0.334 0.098,-0.062 0.255,-0.093 0.47,-0.093 l 0,-0.109 c -0.545,0.014 -0.893,0.02 -1.041,0.02 -0.14,0 -0.451,-0.006 -0.937,-0.02 l 0,0.109 c 0.104,0 0.187,0.012 0.248,0.034 0.06,0.021 0.104,0.06 0.13,0.114 0.027,0.054 0.04,0.129 0.04,0.226 l 0,1.64 c 0,0.161 -0.03,0.277 -0.092,0.349 -0.062,0.072 -0.17,0.108 -0.326,0.108 l 0,0.109 c 0.139,-0.01 0.274,-0.015 0.406,-0.015 0.34,0 0.628,0.019 0.864,0.055 0.048,0.008 0.091,-0.028 0.091,-0.077 l 0,-0.153 c 0,-0.069 0.087,-0.106 0.135,-0.054 C -0.161,-0.11 -0.086,-0.051 0,0"
         style="fill:#ffffff;fill-opacity:1;fill-rule:nonzero;stroke:none"
         id="path114"
         inkscape:connector-curvature="0" /><path
         transform="translate(208.8647,44.688)"
         d="M 0,0 C 0.709,0.443 1.466,1.234 1.521,2.132 1.612,1.286 1.889,0.301 2.655,-0.25 1.681,0.277 0.524,0.186 0,0 m 6.779,4.059 c -1.562,0 -2.571,-1.002 -2.571,-2.554 0,-1.317 1.039,-2.349 2.365,-2.349 1.5,0 1.617,1.028 1.617,1.343 0,0.353 -0.128,0.654 -0.371,0.872 -0.515,0.462 -1.457,0.38 -1.457,0.38 -0.347,0 -0.336,-0.696 0.07,-0.696 0,0 0.676,0.01 0.915,-0.205 0.059,-0.053 0.137,-0.147 0.137,-0.351 0,-0.159 0,-0.642 -0.911,-0.642 -0.946,0 -1.66,0.708 -1.66,1.648 0,1.178 0.68,1.853 1.866,1.853 1.33,0 2.454,-1.369 2.454,-2.99 0,-1.55 -0.984,-2.437 -2.454,-2.437 -1.983,0 -3.8,2.676 -3.8,2.676 C 2.168,1.991 2.188,3 2.207,3.976 2.225,4.906 2.244,5.867 1.555,7.042 0.575,8.716 -1.08,9.15 -2.765,8.177 -4.506,7.17 -5.25,5.079 -4.389,3.608 -3.603,2.268 -2.223,1.905 -0.873,2.686 0.273,3.348 0.649,4.759 -0.018,5.898 -0.773,7.185 -1.725,6.769 -1.999,6.61 -2.306,6.433 -2.504,6.171 -2.572,5.854 -2.715,5.18 -2.171,4.411 -2.171,4.411 c 0.175,-0.298 0.775,0.062 0.572,0.411 0,0 -0.35,0.575 -0.283,0.888 0.017,0.078 0.06,0.192 0.237,0.295 0.138,0.079 0.559,0.322 1.017,-0.46 C -0.152,4.733 -0.41,3.764 -1.228,3.291 -2.253,2.698 -3.183,2.943 -3.779,3.961 -4.448,5.103 -3.821,6.756 -2.41,7.571 -1.062,8.35 0.161,8.03 0.945,6.691 1.11,6.41 1.235,6.115 1.31,5.894 1.945,3.898 0.567,2.105 0.567,2.105 -0.269,0.735 -1.17,0.27 -2.042,-0.18 c -0.831,-0.43 -1.69,-0.873 -2.401,-2.036 -1.01,-1.655 -0.603,-3.306 1.064,-4.309 1.722,-1.037 3.929,-0.686 4.816,0.768 0.81,1.326 0.471,2.703 -0.865,3.507 -1.134,0.683 -2.562,0.336 -3.249,-0.79 -0.778,-1.273 0.046,-1.905 0.317,-2.069 0.304,-0.183 0.63,-0.23 0.943,-0.137 0.665,0.197 1.084,1.04 1.084,1.04 0.18,0.294 -0.426,0.646 -0.636,0.302 0,0 -0.342,-0.58 -0.651,-0.672 -0.077,-0.022 -0.198,-0.04 -0.374,0.066 -0.137,0.083 -0.553,0.333 -0.08,1.107 0.49,0.803 1.471,1.042 2.28,0.555 1.014,-0.611 1.243,-1.539 0.628,-2.546 -0.689,-1.129 -2.452,-1.373 -3.847,-0.533 -1.334,0.803 -1.635,2.023 -0.826,3.348 1.244,1.721 4.3,1.823 4.3,1.823 1.613,0 2.481,-0.524 3.32,-1.031 0.801,-0.483 1.629,-0.983 2.998,-0.983 1.948,0 3.159,1.202 3.159,3.138 0,2.001 -1.446,3.691 -3.159,3.691"
         style="fill:#ffffff;fill-opacity:1;fill-rule:nonzero;stroke:none"
         id="path118"
         inkscape:connector-curvature="0" /><path
         transform="translate(203.5451,31.6841)"
         d="m 0,0 0,-0.858 -1.348,0 0,-0.689 1.263,0 0,-0.825 -1.263,0 0,-0.801 1.399,0 0,-0.858 -2.456,0 0,4.031 L 0,0 z"
         style="fill:#ffffff;fill-opacity:1;fill-rule:nonzero;stroke:none"
         id="path122"
         inkscape:connector-curvature="0" /><path
         transform="translate(205.5235,31.6841)"
         d="m 0,0 0.682,-2.484 0.012,0 0,2.484 0.989,0 0,-4.031 -1.16,0 -0.705,2.489 -0.011,0 0,-2.489 -0.99,0 0,4.031 L 0,0 z"
         style="fill:#ffffff;fill-opacity:1;fill-rule:nonzero;stroke:none"
         id="path126"
         inkscape:connector-curvature="0" /><path
         transform="translate(210.5496,30.8599)"
         d="m 0,0 -0.29,-1.711 0.591,0 L 0.011,0 0,0 z m 0.671,0.824 0.989,-4.031 -1.125,0 -0.109,0.706 -0.841,0 -0.108,-0.706 -1.109,0 0.972,4.031 1.331,0 z"
         style="fill:#ffffff;fill-opacity:1;fill-rule:nonzero;stroke:none"
         id="path130"
         inkscape:connector-curvature="0" /><path
         transform="translate(213.3295,31.6841)"
         d="m 0,0 0.426,-3.037 0.012,0 L 0.864,0 1.99,0 1.114,-4.031 -0.25,-4.031 -1.109,0 0,0 z"
         style="fill:#ffffff;fill-opacity:1;fill-rule:nonzero;stroke:none"
         id="path134"
         inkscape:connector-curvature="0" /><path
         transform="translate(216.9625,30.8599)"
         d="m 0,0 -0.29,-1.711 0.591,0 L 0.011,0 0,0 z m 0.671,0.824 0.989,-4.031 -1.126,0 -0.108,0.706 -0.841,0 -0.108,-0.706 -1.109,0 0.972,4.031 1.331,0 z"
         style="fill:#ffffff;fill-opacity:1;fill-rule:nonzero;stroke:none"
         id="path138"
         inkscape:connector-curvature="0" /><path
         transform="translate(220.3394,31.6841)"
         d="m 0,0 0.682,-2.484 0.012,0 0,2.484 0.989,0 0,-4.031 -1.16,0 -0.705,2.489 -0.011,0 0,-2.489 -0.99,0 0,4.031 L 0,0 z"
         style="fill:#ffffff;fill-opacity:1;fill-rule:nonzero;stroke:none"
         id="path142"
         inkscape:connector-curvature="0" /><path
         transform="translate(222.6307,30.792)"
         d="m 0,0 0,0.892 2.638,0 0,-0.892 -0.796,0 0,-3.139 -1.058,0 L 0.784,0 0,0 z"
         style="fill:#ffffff;fill-opacity:1;fill-rule:nonzero;stroke:none"
         id="path146"
         inkscape:connector-curvature="0" /><path
         transform="translate(228.441,28.4092)"
         d="m 0,0 c 0.102,0 0.184,0.014 0.245,0.042 0.06,0.029 0.107,0.088 0.139,0.179 0.032,0.09 0.053,0.217 0.063,0.383 0.009,0.166 0.014,0.384 0.014,0.655 0,0.272 -0.005,0.49 -0.014,0.655 C 0.437,2.08 0.416,2.208 0.384,2.298 0.352,2.389 0.305,2.448 0.245,2.476 0.184,2.504 0.102,2.519 0,2.519 l -0.21,0 L -0.21,0 0,0 z M 0.268,3.275 C 0.575,3.275 0.813,3.219 0.984,3.108 1.154,2.997 1.282,2.849 1.368,2.662 1.453,2.476 1.505,2.261 1.524,2.019 1.543,1.776 1.553,1.523 1.553,1.259 1.553,0.996 1.543,0.743 1.524,0.5 1.505,0.257 1.453,0.042 1.368,-0.144 1.282,-0.33 1.154,-0.479 0.984,-0.59 0.813,-0.701 0.575,-0.756 0.268,-0.756 l -1.535,0 0,4.031 1.535,0 z"
         style="fill:#ffffff;fill-opacity:1;fill-rule:nonzero;stroke:none"
         id="path158"
         inkscape:connector-curvature="0" /><path
         transform="translate(233.1997,31.6841)"
         d="m 0,0 0,-0.858 -1.347,0 0,-0.689 1.262,0 0,-0.825 -1.262,0 0,-0.801 1.398,0 0,-0.858 -2.456,0 0,4.031 L 0,0 z"
         style="fill:#ffffff;fill-opacity:1;fill-rule:nonzero;stroke:none"
         id="path162"
         inkscape:connector-curvature="0" /><path
         transform="translate(239.9997,28.7764)"
         d="m 0,0 c 0,-0.196 0.028,-0.326 0.085,-0.393 0.058,-0.065 0.135,-0.098 0.233,-0.098 0.099,0 0.177,0.033 0.233,0.098 0.058,0.067 0.086,0.197 0.086,0.393 l 0,2.908 1.057,0 0,-2.642 C 1.694,-0.017 1.664,-0.252 1.603,-0.44 1.543,-0.629 1.455,-0.779 1.339,-0.892 1.223,-1.005 1.08,-1.082 0.91,-1.123 0.739,-1.165 0.542,-1.186 0.318,-1.186 c -0.22,0 -0.415,0.021 -0.588,0.063 -0.172,0.041 -0.316,0.118 -0.432,0.231 -0.116,0.113 -0.204,0.263 -0.265,0.452 -0.06,0.188 -0.09,0.423 -0.09,0.706 l 0,2.642 L 0,2.908 0,0 z"
         style="fill:#ffffff;fill-opacity:1;fill-rule:nonzero;stroke:none"
         id="path174"
         inkscape:connector-curvature="0" /><path
         id="path176"
         style="fill:#ffffff;fill-opacity:1;fill-rule:nonzero;stroke:none"
         d="m 243.524,27.653 -1.058,0 0,4.031 1.058,0 0,-4.031 z"
         inkscape:connector-curvature="0" /><path
         transform="translate(245.5258,31.6841)"
         d="m 0,0 0.682,-2.484 0.012,0 0,2.484 0.989,0 0,-4.031 -1.16,0 -0.705,2.489 -0.011,0 0,-2.489 -0.99,0 0,4.031 L 0,0 z"
         style="fill:#ffffff;fill-opacity:1;fill-rule:nonzero;stroke:none"
         id="path180"
         inkscape:connector-curvature="0" /><path
         transform="translate(252.5512,30.8599)"
         d="m 0,0 -0.29,-1.711 0.591,0 L 0.011,0 0,0 z m 0.671,0.824 0.989,-4.031 -1.125,0 -0.109,0.706 -0.841,0 -0.108,-0.706 -1.109,0 0.973,4.031 1.33,0 z"
         style="fill:#ffffff;fill-opacity:1;fill-rule:nonzero;stroke:none"
         id="path184"
         inkscape:connector-curvature="0" /><path
         transform="translate(256.1153,31.6841)"
         d="m 0,0 0.426,-2.389 0.012,0 0.426,2.389 1.513,0 0,-4.031 -0.99,0 0,3.003 -0.011,0 -0.563,-3.003 -0.762,0 -0.563,3.003 -0.011,0 0,-3.003 -0.989,0 0,4.031 L 0,0 z"
         style="fill:#ffffff;fill-opacity:1;fill-rule:nonzero;stroke:none"
         id="path188"
         inkscape:connector-curvature="0" /><path
         transform="translate(260.5272,29.9448)"
         d="M 0,0 C 0.132,0 0.234,0.04 0.304,0.119 0.374,0.198 0.409,0.322 0.409,0.492 0.409,0.819 0.273,0.983 0,0.983 l -0.199,0 L -0.199,0 0,0 z m 0.33,1.739 c 0.2,0 0.375,-0.031 0.523,-0.095 C 1,1.58 1.123,1.492 1.219,1.381 1.316,1.27 1.387,1.139 1.433,0.988 1.478,0.838 1.501,0.674 1.501,0.497 1.501,0.079 1.388,-0.234 1.162,-0.443 0.937,-0.651 0.606,-0.756 0.17,-0.756 l -0.369,0 0,-1.536 -1.058,0 0,4.031 1.587,0 z"
         style="fill:#ffffff;fill-opacity:1;fill-rule:nonzero;stroke:none"
         id="path200"
         inkscape:connector-curvature="0" /><path
         transform="translate(236.3645,27.6528)"
         d="m 0,0 c -0.438,0 -0.795,0.354 -0.795,0.79 l 0,2.452 c 0,0.435 0.357,0.789 0.795,0.789 l 1.149,0 c 0.439,0 0.795,-0.601 0.795,-1.035 l 0,-0.253 -1.028,0 0,0.369 -0.682,0 0,-2.185 0.682,0 0,0.569 -0.337,0 0,0.717 1.365,0 0,-1.423 C 1.944,0.354 1.588,0 1.149,0 L 0,0 z"
         style="fill:#ffffff;fill-opacity:1;fill-rule:nonzero;stroke:none"
         id="path204"
         inkscape:connector-curvature="0" /><path
         transform="translate(248.6406,27.6528)"
         d="m 0,0 c -0.438,0 -0.795,0.354 -0.795,0.79 l 0,2.452 c 0,0.435 0.357,0.789 0.795,0.789 l 1.149,0 c 0.438,0 0.795,-0.601 0.795,-1.035 l 0,-0.253 -1.028,0 0,0.369 -0.683,0 0,-2.185 0.683,0 0,0.569 -0.337,0 0,0.717 1.365,0 0,-1.423 C 1.944,0.354 1.587,0 1.149,0 L 0,0 z"
         style="fill:#ffffff;fill-opacity:1;fill-rule:nonzero;stroke:none"
         id="path208"
         inkscape:connector-curvature="0" /></g></g></svg>