<?xml version="1.0" encoding="UTF-8" standalone="no"?>
<!-- Created with Inkscape (http://www.inkscape.org/) -->

<svg
   xmlns:dc="http://purl.org/dc/elements/1.1/"
   xmlns:cc="http://creativecommons.org/ns#"
   xmlns:rdf="http://www.w3.org/1999/02/22-rdf-syntax-ns#"
   xmlns:svg="http://www.w3.org/2000/svg"
   xmlns="http://www.w3.org/2000/svg"
   xmlns:sodipodi="http://sodipodi.sourceforge.net/DTD/sodipodi-0.dtd"
   xmlns:inkscape="http://www.inkscape.org/namespaces/inkscape"
   id="svg2"
   version="1.1"
   inkscape:version="0.91 r13725"
   width="606"
   height="820.59998"
   sodipodi:docname="Football Club de Nantes.svg">
  <metadata
     id="metadata8">
    <rdf:RDF>
      <cc:Work
         rdf:about="">
        <dc:format>image/svg+xml</dc:format>
        <dc:type
           rdf:resource="http://purl.org/dc/dcmitype/StillImage" />
        <dc:title />
      </cc:Work>
    </rdf:RDF>
  </metadata>
  <defs
     id="defs6" />
  <sodipodi:namedview
     pagecolor="#ffffff"
     bordercolor="#666666"
     borderopacity="1"
     objecttolerance="10"
     gridtolerance="10"
     guidetolerance="10"
     inkscape:pageopacity="0"
     inkscape:pageshadow="2"
     inkscape:window-width="1280"
     inkscape:window-height="691"
     id="namedview4"
     showgrid="false"
     inkscape:zoom="0.22652023"
     inkscape:cx="497.10529"
     inkscape:cy="584.58903"
     inkscape:window-x="0"
     inkscape:window-y="1"
     inkscape:window-maximized="1"
     inkscape:current-layer="svg2" />
  <path
     inkscape:connector-curvature="0"
     id="path3001"
     d="M 297.5776,809.50059 C 295.19438,808.00401 272.26811,794.43792 246.63033,779.35376 138.81631,715.92062 108.28926,695.87953 85.734269,673.72507 59.931949,648.38095 42.604054,622.74081 28.718438,589.35853 3.6203506,529.02047 -0.82190401,449.75508 16.210812,366.17882 21.01818,342.59 28.918863,314.20188 35.953512,295.24085 c 11.612997,-31.30141 14.622373,-41.46472 17.835639,-60.23482 2.185821,-12.7683 2.201731,-39.77059 0.03037,-51.56465 -3.882902,-21.09068 -12.806851,-40.60319 -24.34193,-53.2244 l -4.697391,-5.1397 4.405898,-5.63587 c 2.423234,-3.09974 6.048665,-7.75674 8.056491,-10.3489 13.286175,-17.152824 22.58186,-28.780433 23.008491,-28.780433 0.273417,0 3.21684,2.000463 6.540963,4.445468 19.079481,14.033655 40.246443,24.522605 60.294203,29.877825 10.89049,2.9091 30.09644,3.94612 40.88092,2.20735 31.67664,-5.1072 60.61727,-27.780624 83.41021,-65.347452 7.58249,-12.497306 13.11993,-23.83463 18.14166,-37.143152 l 3.52186,-9.333567 29.32614,0 29.32615,0 3.614,9.582811 c 8.15314,21.618636 21.65916,44.923857 35.76653,61.71668 15.08671,17.958599 33.19065,30.92492 51.81088,37.10777 20.50131,6.80746 45.71841,5.56717 69.60424,-3.42343 12.80036,-4.81804 33.05556,-16.057859 45.45325,-25.222555 3.32415,-2.457256 6.27149,-4.467748 6.54977,-4.467748 0.41737,0 13.28706,16.221495 31.96226,40.286433 l 3.48676,4.49304 -4.69081,5.13256 c -15.41004,16.8609 -24.68749,42.38373 -26.14518,71.92657 -1.31036,26.55393 3.82496,50.89697 19.63791,93.09017 6.97631,18.61491 14.9309,47.14179 19.78053,70.93797 15.64405,76.76265 13.22697,150.01264 -6.87027,208.19508 -18.50823,53.58264 -51.16234,96.26312 -97.66893,127.65798 -28.2497,19.07034 -60.53521,38.93576 -120.80437,74.33152 -20.14514,11.83114 -42.02717,24.74706 -48.62674,28.70204 -6.59956,3.955 -12.14391,7.1831 -12.32076,7.17356 -0.17684,-0.01 -2.27145,-1.24182 -4.65468,-2.73841 z"
     style="fill:#ffdc10;fill-opacity:1" />
  <path
     inkscape:connector-curvature="0"
     style="fill:#0b6345"
     d="M 273.69291,-0.99965076 270.19128,8.492366 c -10.24491,27.754675 -27.42255,55.271134 -45.57904,73.071166 -10.35241,10.149142 -12.23118,11.697369 -21.9937,17.826471 -16.88786,10.602527 -31.29939,14.755917 -51.01959,14.729987 -13.70393,-0.018 -21.16153,-1.19019 -35.16098,-5.5563 C 104.88348,104.9601 83.944103,94.281807 69.81712,84.775769 L 56.968171,76.122986 49.038864,86.396358 C 44.670943,92.051627 36.699575,102.26185 31.32815,109.08459 l -9.781408,12.41487 4.832826,4.83282 c 8.729118,8.76233 18.341919,27.46521 22.369905,43.52437 8.124352,32.39089 4.741202,68.66664 -10.128676,108.81093 C 19.108146,331.34597 9.0174373,374.50703 4.3858702,424.98354 2.7656709,442.64118 2.5074325,482.0445 3.922845,498.60455 c 6.518793,76.26863 35.127954,138.80011 83.778624,183.18435 23.891991,21.79676 57.288641,43.38061 165.328941,106.87201 21.66553,12.73205 41.45986,24.45856 43.98739,26.04516 2.52753,1.58661 5.15825,2.88428 5.8457,2.89391 0.68744,0.01 7.77173,-3.87908 15.74285,-8.65278 7.97113,-4.7737 27.83361,-16.49219 44.13209,-26.04517 70.39796,-41.26212 112.89481,-67.75005 135.20336,-84.27059 61.10952,-45.25447 96.73801,-113.71742 104.1228,-200.02689 1.41639,-16.55342 1.18655,-55.95847 -0.43413,-73.62101 -4.62442,-50.39999 -14.75189,-93.71744 -34.23488,-146.31596 -17.66053,-47.67796 -19.10961,-90.66419 -4.254,-126.02968 3.98711,-9.49195 11.19465,-20.99048 16.49518,-26.30562 l 4.83287,-4.83282 -9.78141,-12.41487 c -5.37137,-6.82274 -13.34272,-17.032963 -17.71071,-22.688232 l -7.92931,-10.273372 -12.84895,8.652783 c -14.12699,9.506038 -35.06636,20.184331 -46.62085,23.787921 -13.99944,4.36611 -21.45705,5.53834 -35.16097,5.5563 -19.7202,0.0259 -34.13172,-4.12746 -51.0196,-14.729987 C 393.7374,93.324984 391.86867,91.805011 381.40415,81.563532 362.40424,62.968597 342.87946,30.949875 334.05982,3.8621139 l -1.56271,-4.86176466 -29.4021,0 -29.4021,0 z m 9.11581,14.03545176 19.07085,0 19.07085,0 4.13829,9.897164 c 5.00548,11.977175 13.36355,27.339045 21.64642,39.820168 21.10849,31.807387 49.05544,53.823557 78.80111,62.074317 8.77534,2.43413 10.25499,2.56613 28.24454,2.5177 18.28412,-0.0492 19.38918,-0.13467 29.69149,-2.92285 17.85406,-4.83195 32.71402,-11.46249 51.56943,-23.00656 5.3923,-3.301409 10.09488,-5.694332 10.44696,-5.295853 0.35208,0.39848 4.66803,5.838683 9.57888,12.067593 l 8.91324,11.31518 -4.5145,6.7428 c -23.12228,34.50222 -28.36983,81.54886 -14.78791,132.1937 2.80176,10.44745 4.54839,15.6321 13.25419,38.89412 20.60943,55.06891 32.26517,128.82977 29.28634,185.35478 -2.47959,47.04994 -10.8748,82.12854 -28.27352,117.92673 -18.86106,38.80719 -45.41789,68.94265 -82.93939,94.13882 -32.56809,21.86988 -65.51733,41.99059 -138.44454,84.58891 -7.13059,4.1651 -17.63723,10.37205 -23.35384,13.775 -5.7166,3.40296 -10.92563,6.38822 -11.57563,6.62705 -0.64999,0.23883 -6.18717,-2.55312 -12.2991,-6.19296 -6.11194,-3.63984 -16.94673,-10.04204 -24.07731,-14.20909 C 192.65502,736.33082 160.39328,716.63303 127.81103,694.75361 77.577052,661.02092 44.977438,616.08559 28.289547,557.55345 9.5654554,491.87917 12.545949,409.45506 36.624,326.04084 c 2.719903,-9.42256 6.877777,-22.34096 9.260505,-28.70756 8.705707,-23.26202 10.481177,-28.44667 13.283035,-38.89412 13.581085,-50.64163 8.301857,-97.69692 -14.816806,-132.1937 l -4.514496,-6.7428 8.942174,-11.31518 c 4.918254,-6.23173 9.236103,-11.669113 9.578834,-12.067593 0.342824,-0.398479 5.025768,1.994444 10.418067,5.295853 19.201934,11.75624 35.024427,18.69869 53.016387,23.32489 9.50739,2.44459 11.42144,2.62059 28.70756,2.63346 17.41188,0.013 19.07562,-0.13582 27.78152,-2.54664 29.7614,-8.24141 57.69396,-30.240417 78.88792,-62.161134 8.22055,-12.381156 17.55629,-29.607916 22.02263,-40.659402 l 3.61739,-8.971113 z"
     id="path2993" />
  <path
     inkscape:connector-curvature="0"
     id="path3027"
     d="m 287.03578,773.00024 c -8.65858,-5.20583 -21.16026,-12.6237 -27.78152,-16.48414 -58.739,-34.24705 -85.7806,-50.7715 -118.99748,-72.71645 C 110.14552,663.90638 85.812159,639.33683 68.731252,611.57976 32.993022,553.50403 22.072109,475.93742 37.063291,386.65627 c 5.284229,-31.4701 12.641885,-58.4782 24.978173,-91.6875 9.493406,-25.55621 14.202187,-44.75358 16.661869,-67.92913 3.951457,-37.22992 -1.11728,-72.37301 -14.425458,-100.01778 -3.032444,-6.2991 -5.513518,-11.61742 -5.513518,-11.81849 0,-0.20107 3.437962,1.54419 7.639915,3.87837 31.833354,17.68336 58.175218,25.45688 86.354188,25.48324 70.32542,-4.31641 120.83842,-52.864585 146.75103,-112.586021 1.71819,-4.074621 3.40611,-7.741106 3.75078,-8.147735 0.34468,-0.406638 1.56382,1.885337 2.70935,5.093278 3.311,9.272532 11.71546,25.318996 19.21332,36.683978 23.09477,35.00574 51.65787,59.68238 82.23948,71.04957 14.98507,5.56996 28.03173,7.86178 44.91345,7.8896 27.73641,0.0457 48.51476,-5.54767 79.38094,-21.36882 l 15.94649,-8.17374 -4.49458,8.95668 c -11.75158,23.41808 -16.74883,47.29413 -16.74883,80.02221 0,32.16857 4.67859,55.76239 18.48212,93.20302 21.98823,59.64085 31.6962,115.26743 30.30287,173.63489 -0.75122,31.46712 -4.15732,55.60522 -11.2454,79.69354 -15.94168,54.17621 -44.83807,95.57552 -88.24167,126.42212 -16.56167,11.77023 -61.84637,40.38127 -87.27942,55.14349 -13.38254,7.76765 -54.07644,31.75545 -68.84898,40.58431 -9.08983,5.43261 -16.59084,9.86006 -16.66891,9.83876 -0.0778,-0.0213 -7.22615,-4.29804 -15.88472,-9.50387 z m 32.64327,-12.4686 13.19622,-7.86745 0,-33.24821 0,-33.24821 0,-160.66634 0,-11.51323 29.62963,0 29.62954,0 0.23559,101.7949 0.23559,101.7949 16.24903,-9.8844 c 8.93704,-5.43641 22.15826,-13.63489 29.38062,-18.21884 l 13.13158,-8.33446 0.0213,-83.57605 0.0213,-83.57605 29.63361,0 29.63361,0 0,57.87815 c 0,31.83299 0.31255,57.8739 0.69454,57.86871 0.80863,-0.011 6.76461,-8.01338 14.39563,-19.34203 10.39177,-15.42703 21.09932,-38.76099 27.24052,-59.36281 3.43046,-11.5081 8.59217,-34.99583 8.59828,-39.12563 l 0,-2.54664 -258.87303,0 -258.873035,0 0.589338,3.47269 c 7.585835,44.6954 21.424084,78.94534 44.17418,109.33224 l 6.71618,8.9707 0.238366,-58.57269 0.238458,-58.57269 29.626663,0 29.62676,0 0,83.65654 0,83.65652 12.27016,7.75236 c 6.7486,4.26379 19.97954,12.47658 29.40211,18.25064 l 17.13193,10.4983 0.23559,-101.90718 0.23558,-101.90718 29.62954,0 29.62954,0 0,11.34412 0,11.34412 -0.0148,150.02017 0.0111,33.04858 0.0111,33.04859 14.57464,8.76954 c 12.26471,7.37959 14.86997,8.6163 16.4374,7.80266 1.02449,-0.53179 7.80105,-4.50724 15.05897,-8.83434 z m -23.1482,-420.4801 c 0.92336,-0.58626 1.11265,-29.27955 0.92605,-140.39282 l -0.23457,-139.655957 -4.53654,7.161426 c -24.83065,39.197741 -57.86009,67.802871 -92.23573,79.880581 -34.46065,12.1076 -71.2193,10.73163 -108.200183,-4.05021 -5.776055,-2.30877 -10.680881,-4.01883 -10.899614,-3.80011 -0.21864,0.2187 0.655459,4.31347 1.942576,9.09948 5.228666,19.4425 6.383451,29.13796 6.440866,54.07831 0.05556,24.2799 -0.562483,31.06368 -4.66396,51.16144 -3.008182,14.74046 -7.168094,28.62464 -14.152644,47.23627 -6.325943,16.85675 -13.71138,39.35266 -12.469083,39.35229 l 238.082832,-0.0707 z m 250.7549,-2.643 c 0.37978,-3.53258 -7.70353,-24.57221 -16.20004,-48.45059 -17.11943,-48.11205 -19.97805,-98.74207 -8.01266,-141.91723 1.23508,-4.45661 1.91221,-8.10294 1.50474,-8.10294 -0.40737,0 -4.84778,1.64297 -9.86743,3.65105 -23.24293,9.29817 -48.17379,13.84751 -68.85684,12.56489 -31.75826,-1.96941 -59.45679,-13.18339 -86.68268,-35.09418 -14.78939,-11.90218 -33.90317,-34.1402 -45.39638,-52.816637 l -4.51347,-7.334366 -0.23791,139.296553 c -0.13075,76.6131 -1.12773,140.58165 -0.88538,141.21831 l 238.69947,1.15756 z"
     style="fill:#026132;fill-opacity:1"
     sodipodi:nodetypes="ssssssssssccsssssscsssssssscsccccccccccsscccccscssccccsscccccccssccccccccccsscccscssscsssssccsssssssscsccs" />
  <g
     id="g4314">
    <g
       style="fill:#016038;fill-opacity:1"
       transform="matrix(1.4499659,0,0,1.4499659,821.4477,-1194.214)"
       id="g3374">
      <path
         style="fill:#016038;fill-opacity:1;fill-rule:evenodd"
         inkscape:connector-curvature="0"
         d="m -383.34165,1038.2196 c -8.92,5.757 -18.464,7.278 -28.902,5.234 -17.975,8.171 -34.344,8.167 -60.216,5.905 0.542,0.359 -0.223,0.838 0.375,1.167 12.138,6.682 36.479,6.622 59.975,-5.999 8.227,4.639 23.437,2.713 28.768,-6.307 l 0,0 z"
         id="path3196" />
      <path
         style="fill:#016038;fill-opacity:1;fill-rule:evenodd"
         inkscape:connector-curvature="0"
         d="m -381.34465,984.54064 -0.414,0 0.013,-32.039 -1.782,0.027 0.006,7.16 c -1.687,-0.856 -4.41,-1.329 -6.463,-0.763 -3.786,1.044 -6.554,3.417 -14.265,2.563 1.247,0.785 3.63,1.707 6.234,2.577 -0.809,1.339 -2.131,2.161 -3.148,2.814 6.165,0.691 9.371,0.935 11.735,-0.285 3,-1.549 3.942,-2.832 5.908,-1.242 l 0,19.188 -0.86,0 0.002,4.563 -3.768,0 0,-4.563 -3.683,0 -0.027,4.564 -4.349,-10e-4 0,-4.563 -3.454,0 -10e-4,4.563 -4.044,0 0.001,-4.561 -3.6,-0.002 0.003,8.454 -4.467,21.30096 20.418,0.039 10.012,-13.708 -0.007,-16.08596 0,0 z m -8.848,9.528 4.465,0 0,7.11296 -4.465,0 0,-7.11296 0,0 z m -7.227,0 4.466,0 0,7.11296 -4.466,0 0,-7.11296 0,0 z m -3.027,7.13396 -4.466,-0.021 0,-7.12296 4.465,0.021 0,7.12296 0.001,0 z"
         id="path3192" />
      <path
         style="fill:#016038;fill-opacity:1;fill-rule:evenodd"
         inkscape:connector-curvature="0"
         d="m -392.57265,1017.0426 -20.33,-10e-4 c -12.085,7.783 -22.407,8.552 -31.081,6.803 -14.458,-2.916 -23.867,-13.549 -25.753,-15.631 l -12.604,-13.90296 7.313,-7.064 c 2.885,12.43 10.454,22.83096 22.206,28.40996 7.952,3.776 17.688,5.17 28.283,1.92 -12.394,-2.316 -29.336,-9.899 -36.647,-24.34296 15.247,13.17396 30.404,19.63796 43.334,20.59796 -7.672,-8.576 -9.518,-15.89396 -7.767,-22.43096 0.38,-1.417 0.85,-2.812 1.443,-4.181 l 10.59,26.66796 0.629,-2.893 -10.22,-25.82596 c 0.287,-0.527 0.599,-1.049 0.934,-1.567 l 10.504,21.73396 0.571,-2.844 -10.003,-20.42096 c 0.365,-0.483 0.755,-0.961 1.171,-1.433 l 10.003,16.46 0.54,-2.467 -9.3,-15.305 c 1.314,-1.298 2.851,-2.551 4.652,-3.748 l -9.071,-3.525 -2.088,-3.437 17.516,6.78 -0.003,0.116 c 0,1.625 1.318,2.942 2.942,2.942 1.624,0 2.942,-1.318 2.942,-2.942 0,-1.625 -1.318,-2.943 -2.942,-2.943 -0.964,0 -1.82,0.466 -2.356,1.184 l -19.584,-7.581 -9.846,-16.204 0,-5.281 3.877,0 0,-1.746 -3.877,0 0,-4.279 -1.746,0 0,4.279 -4.145,0 0,1.746 4.145,0 0,4.694 -9.092,8.783 -20.529,-7.946 c 0.017,-0.128 0.024,-0.257 0.024,-0.389 0,-1.625 -1.318,-2.942 -2.942,-2.942 -1.624,0 -2.942,1.318 -2.942,2.942 0,1.624 1.318,2.942 2.942,2.942 0.866,0 1.644,-0.374 2.183,-0.969 l 19.883,7.696 -1.912,1.846 -15.006,-5.831 c -10.158,8.599 -11.51,19.958 -9.714,29.712 l -8.063,7.79 -3.579,-3.949 -1.388,1.257 16.154,17.82196 -13.471,-0.337 c 0.625,12.126 4.104,22.96 10.432,32.234 0.737,0.011 1.815,-0.305 3.158,-0.493 11.831,2.763 25.283,3.127 35.094,-1.646 12.351,4.59 22.961,3.966 31.029,-2.141 2.676,1.965 4.548,2.677 7.222,3.21 l -0.802,-12.04 c 2.763,-2.666 5.572,-5.609 7.087,-9.889 l 0,0 z m -43.866,10.699 4.815,0 0,4.815 -4.815,0 0,-4.815 0,0 z m 8.807,0 4.815,0 0,4.815 -4.815,0 0,-4.815 0,0 z m -17.772,0 4.815,0 0,4.815 -4.815,0 0,-4.815 0,0 z m 11.92,-29.51296 c -3.815,-10.395 -0.671,-19.849 4.948,-25.547 l 4.949,1.873 c -7.293,5.611 -10.277,12.876 -9.897,23.674 l 0,0 z m -13.314,-5.099 c -3.815,-10.395 -0.671,-19.849 4.948,-25.547 l 4.949,1.873 c -7.293,5.61 -10.277,12.876 -9.897,23.674 l 0,0 z m -11.441,-4.362 c -3.815,-10.395 -0.671,-19.849 4.948,-25.547 l 4.948,1.872 c -7.292,5.611 -10.276,12.877 -9.896,23.675 l 0,0 z m -10.437,-3.959 c -3.815,-10.395 -0.671,-19.849 4.948,-25.547 l 4.949,1.873 c -7.292,5.611 -10.277,12.876 -9.897,23.674 l 0,0 z m 31.151,-33.009 -0.112,0 0.258,0.24 -0.146,-0.24 0,0 z m -0.716,0 -0.095,0 -7.309,7.061 12.062,4.668 -4.658,-11.729 0,0 z m 8.764,13.319 0.06,0.022 -0.248,-0.407 0.188,0.385 0,0 z m 1.545,2.467 -0.415,-0.16 1.584,3.236 0.914,0.355 -2.083,-3.431 0,0 z m -2.523,-0.976 -0.078,-0.03 1.224,3.091 0.411,0.16 -1.557,-3.221 0,0 z m -2.251,-0.871 -14.32,-5.543 -1.913,1.849 17.46,6.785 -1.227,-3.091 0,0 z"
         id="path3194" />
      <path
         style="fill:#016038;fill-opacity:1;fill-rule:evenodd"
         inkscape:connector-curvature="0"
         d="m -498.90365,1043.2566 4.013,4.547 c 7.493,-1.337 15.74,-3.434 21.802,-5.485 7.621,5.38 20.995,6.938 33.437,5.086 9.789,5.087 22.897,3.064 28.757,0.124 -7.757,0.895 -18.591,1.569 -28.624,-2.401 -9.946,1.552 -21.884,0.818 -33.57,-4.013 -7.267,1.697 -15.516,2.095 -25.815,2.142 l 0,0 z"
         id="path3198" />
    </g>
    <g
       style="fill:#ffdc10;fill-opacity:1"
       transform="matrix(1.449438,0,0,1.4036416,822.84567,-1142.5863)"
       id="g3380">
      <polygon
         style="fill:#ffdc10;fill-opacity:1"
         points="48.148,280.219 67.43,280.219 67.43,288.789 48.148,288.789 48.148,311.083 39.835,311.083 39.835,257 68.584,257 68.584,265.87 68.584,265.87 48.148,265.87 "
         id="polygon3208"
         transform="translate(-565.71765,822.01064)" />
      <path
         style="fill:#ffdc10;fill-opacity:1"
         inkscape:connector-curvature="0"
         d="m -456.77265,1118.4676 c 0,5.432 -1.059,9.277 -3.185,11.525 -1.713,1.826 -4.561,2.908 -8.544,3.246 -1.606,0.143 -3.251,0.24 -4.944,0.299 l -3.426,0.133 c -5.975,0 -10.131,-1.467 -12.469,-4.398 -1.973,-2.477 -3.088,-6.551 -3.338,-12.199 -0.116,-2.512 -0.173,-6.045 -0.173,-10.588 0,-8.545 0.327,-14.218 0.972,-17.018 0.461,-2.02 1.193,-3.822 2.203,-5.408 0.952,-1.502 2.28,-2.668 3.974,-3.498 2.693,-1.334 6.427,-1.995 11.198,-1.995 4.801,0 8.246,0.36 10.333,1.069 2.944,1.01 4.898,3.245 5.87,6.694 0.712,2.561 1.068,6.178 1.068,10.853 l -8.208,0 0,-3.39 c 0,-2.164 -0.424,-3.761 -1.27,-4.771 -0.895,-1.045 -3.3,-1.575 -7.216,-1.575 l -1.212,0 c -3.896,0 -6.446,0.733 -7.658,2.2 -1.203,1.478 -1.809,4.495 -1.809,9.05 l 0,14.134 c 0,5.348 0.712,8.664 2.145,9.951 0.943,0.854 1.954,1.371 3.012,1.563 1.145,0.217 2.742,0.313 4.781,0.313 2.463,0 4.108,-0.037 4.956,-0.133 1.51,-0.359 2.626,-0.996 3.357,-1.887 0.606,-0.732 0.991,-1.922 1.155,-3.533 0.096,-0.949 0.173,-2.729 0.221,-5.336 l 8.207,0 0,4.699 0,0 z"
         id="path3210" />
      <polygon
         style="fill:#ffdc10;fill-opacity:1"
         points="133.711,257 147.508,257 166.096,302.212 166.327,302.212 165.634,257 174.004,257 174.004,311.083 174.004,311.083 160.092,311.083 141.726,265.87 141.388,265.87 141.86,288.296 142.081,311.083 133.711,311.083 "
         id="polygon3212"
         transform="translate(-565.71765,822.01064)" />
      <path
         style="fill:#ffdc10;fill-opacity:1"
         inkscape:connector-curvature="0"
         d="m -346.85865,1133.0936 -8.476,0 -2.771,-10.18 -18.752,0 -2.781,10.18 -8.601,0 14.432,-54.083 12.181,0 14.768,54.083 0,0 z m -13.21,-18.029 -7.447,-28.207 -0.048,0.012 -7.456,28.194 14.951,0 0,10e-4 z"
         id="path3214" />
      <polygon
         style="fill:#ffdc10;fill-opacity:1"
         points="222.901,257 236.698,257 255.287,302.212 255.518,302.212 254.825,257 263.195,257 263.195,311.083 263.195,311.083 249.283,311.083 230.916,265.87 230.579,265.87 231.051,288.296 231.271,311.083 222.901,311.083 "
         id="polygon3216"
         transform="translate(-565.71765,822.01064)" />
      <polygon
         style="fill:#ffdc10;fill-opacity:1"
         points="300.131,265.87 300.131,265.87 287.374,265.87 287.374,311.083 279.061,311.083 279.061,265.87 266.418,265.87 266.418,257 300.131,257 "
         id="polygon3218"
         transform="translate(-565.71765,822.01064)" />
      <polygon
         style="fill:#ffdc10;fill-opacity:1"
         points="311.726,287.863 311.726,302.212 333.267,302.212 333.267,311.083 333.267,311.083 303.412,311.083 303.412,257 333.152,257 333.152,265.87 311.726,265.87 311.726,279.426 332.055,279.426 332.055,287.863 "
         id="polygon3220"
         transform="translate(-565.71765,822.01064)" />
      <path
         style="fill:#ffdc10;fill-opacity:1"
         inkscape:connector-curvature="0"
         d="m -193.30965,1117.4456 c 0.038,2.885 -0.299,5.553 -1.011,7.992 -0.693,2.32 -1.684,4.086 -2.983,5.287 -2.02,1.875 -6.167,2.813 -12.411,2.813 l -3.116,0 c -2.887,0 -5.033,-0.131 -6.438,-0.408 -2.492,-0.48 -4.436,-1.479 -5.85,-2.992 -1.838,-1.971 -2.888,-4.725 -3.127,-8.258 -0.116,-1.514 -0.174,-3.496 -0.174,-5.947 l 8.255,0 c 0,0.625 -0.028,1.129 -0.105,1.514 0.058,1.525 0.135,2.572 0.222,3.148 0.192,1.238 0.558,2.164 1.106,2.789 0.559,0.625 1.289,1.033 2.213,1.25 1.049,0.252 2.348,0.408 3.897,0.457 0.923,0.035 1.519,0.082 1.788,0.154 2.041,-0.119 3.311,-0.203 3.811,-0.264 1.674,-0.229 2.886,-0.625 3.637,-1.189 1.279,-0.961 1.915,-3.221 1.915,-6.779 0,-2.535 -0.404,-4.314 -1.213,-5.348 -0.24,-0.324 -0.625,-0.602 -1.145,-0.854 -0.702,-0.324 -1.751,-0.541 -3.155,-0.648 -0.511,-0.037 -1.309,-0.084 -2.406,-0.156 l -4.358,-0.252 c -3.137,-0.182 -5.656,-0.65 -7.552,-1.406 -1.165,-0.457 -2.175,-1.082 -3.031,-1.863 -2.348,-2.188 -3.56,-6.129 -3.638,-11.827 -0.076,-6.093 1.021,-10.323 3.282,-12.691 2.164,-2.271 6.475,-3.4 12.94,-3.4 4.137,0 6.879,0.095 8.245,0.3 2.588,0.372 4.618,1.321 6.071,2.824 1.463,1.514 2.435,3.522 2.916,6.033 0.326,1.635 0.48,4.039 0.48,7.223 l -8.371,0 0,-2.163 c 0,-2.007 -0.289,-3.389 -0.856,-4.183 -0.692,-0.961 -2.434,-1.442 -5.205,-1.442 l -3.406,0 c -3.28,0 -5.416,0.481 -6.397,1.442 -0.529,0.517 -0.895,1.154 -1.116,1.923 -0.25,0.914 -0.365,2.104 -0.337,3.558 0.038,1.623 0.163,2.909 0.385,3.882 0.289,1.371 1.415,2.284 3.396,2.752 0.827,0.205 1.809,0.348 2.944,0.445 l 3.213,0.276 c 3.638,0.289 6.043,0.541 7.227,0.757 3.204,0.565 5.407,1.49 6.609,2.776 1.174,1.274 1.972,3.124 2.387,5.554 0.173,1.105 0.278,2.055 0.317,2.871 0.039,0.708 0.087,2.066 0.145,4.05 l 0,0 z"
         id="path3222" />
    </g>
    <g
       style="fill:#016038;fill-opacity:1"
       transform="matrix(1.4466373,0,0,1.4554642,820.08808,-1199.6537)"
       id="g3332">
      <path
         style="fill:#016038;fill-opacity:1;fill-rule:evenodd"
         inkscape:connector-curvature="0"
         d="m -305.03465,963.54164 c -2.316,12.89 -5.148,22.829 -12.773,32.635 2.563,0.093 4.748,-0.528 7.289,-3.475 1.124,3.11 3.468,5.897 5.552,6.416 1.964,-0.5 4.165,-3.253 5.417,-6.346 2.74,3.014 5.236,3.612 7.355,3.406 -7.092,-8.82 -10.301,-18.962 -12.84,-32.636 l 0,0 z"
         id="path3136" />
      <path
         style="fill:#016038;fill-opacity:1;fill-rule:evenodd"
         inkscape:connector-curvature="0"
         d="m -305.07865,944.52064 c -1.124,3.328 -2.638,6.199 -2.78,8.642 -0.071,1.233 0.621,3.178 2.803,3.115 2.182,-0.063 2.839,-1.513 2.821,-3.117 -0.023,-2.05 -1.585,-5.252 -2.844,-8.64 l 0,0 z"
         id="path3138" />
      <path
         style="fill:#016038;fill-opacity:1;fill-rule:evenodd"
         inkscape:connector-curvature="0"
         d="m -319.02465,959.55364 c 3.328,1.124 6.199,2.638 8.643,2.78 1.233,0.072 3.178,-0.621 3.115,-2.802 -0.063,-2.182 -1.514,-2.839 -3.117,-2.822 -2.05,0.023 -5.251,1.584 -8.641,2.844 l 0,0 z"
         id="path3140" />
      <path
         style="fill:#016038;fill-opacity:1;fill-rule:evenodd"
         inkscape:connector-curvature="0"
         d="m -291.10865,959.58664 c -3.328,1.124 -6.2,2.638 -8.643,2.78 -1.233,0.071 -3.179,-0.621 -3.115,-2.802 0.064,-2.181 1.514,-2.839 3.117,-2.822 2.051,0.023 5.252,1.584 8.641,2.844 l 0,0 z"
         id="path3142" />
      <path
         style="fill:#016038;fill-opacity:1;fill-rule:evenodd"
         inkscape:connector-curvature="0"
         d="m -328.03865,1011.6916 c -2.317,12.89 -5.148,22.828 -12.773,32.635 2.563,0.094 4.748,-0.528 7.288,-3.475 1.124,3.11 3.468,5.897 5.552,6.416 1.964,-0.5 4.166,-3.253 5.417,-6.346 2.74,3.014 5.237,3.612 7.355,3.406 -7.091,-8.82 -10.301,-18.963 -12.839,-32.636 l 0,0 z"
         id="path3144" />
      <path
         style="fill:#016038;fill-opacity:1;fill-rule:evenodd"
         inkscape:connector-curvature="0"
         d="m -328.08365,992.66964 c -1.124,3.328 -2.638,6.2 -2.78,8.64296 -0.071,1.233 0.621,3.178 2.803,3.115 2.182,-0.063 2.839,-1.513 2.821,-3.117 -0.023,-2.05096 -1.584,-5.25196 -2.844,-8.64096 l 0,0 z"
         id="path3146" />
      <path
         style="fill:#016038;fill-opacity:1;fill-rule:evenodd"
         inkscape:connector-curvature="0"
         d="m -342.02865,1007.7036 c 3.327,1.124 6.198,2.638 8.642,2.78 1.233,0.072 3.178,-0.621 3.115,-2.802 -0.063,-2.182 -1.514,-2.839 -3.117,-2.821 -2.05,0.022 -5.251,1.583 -8.64,2.843 l 0,0 z"
         id="path3148" />
      <path
         style="fill:#016038;fill-opacity:1;fill-rule:evenodd"
         inkscape:connector-curvature="0"
         d="m -314.11365,1007.7366 c -3.328,1.124 -6.199,2.638 -8.643,2.78 -1.233,0.071 -3.178,-0.621 -3.115,-2.802 0.063,-2.182 1.514,-2.839 3.117,-2.822 2.051,0.022 5.252,1.584 8.641,2.844 l 0,0 z"
         id="path3150" />
      <path
         style="fill:#016038;fill-opacity:1;fill-rule:evenodd"
         inkscape:connector-curvature="0"
         d="m -255.46565,963.54164 c -2.316,12.89 -5.148,22.829 -12.773,32.635 2.563,0.093 4.748,-0.528 7.289,-3.475 1.124,3.11 3.468,5.897 5.552,6.416 1.964,-0.5 4.165,-3.253 5.417,-6.346 2.74,3.014 5.236,3.612 7.355,3.406 -7.092,-8.82 -10.301,-18.962 -12.84,-32.636 l 0,0 z"
         id="path3152" />
      <path
         style="fill:#016038;fill-opacity:1;fill-rule:evenodd"
         inkscape:connector-curvature="0"
         d="m -255.50965,944.52064 c -1.124,3.328 -2.638,6.199 -2.78,8.642 -0.071,1.233 0.621,3.178 2.803,3.115 2.182,-0.063 2.839,-1.513 2.821,-3.117 -0.023,-2.05 -1.584,-5.252 -2.844,-8.64 l 0,0 z"
         id="path3154" />
      <path
         style="fill:#016038;fill-opacity:1;fill-rule:evenodd"
         inkscape:connector-curvature="0"
         d="m -269.45465,959.55364 c 3.328,1.124 6.199,2.638 8.643,2.78 1.233,0.072 3.178,-0.621 3.115,-2.802 -0.063,-2.182 -1.514,-2.839 -3.118,-2.822 -2.05,0.023 -5.251,1.584 -8.64,2.844 l 0,0 z"
         id="path3156" />
      <path
         style="fill:#016038;fill-opacity:1;fill-rule:evenodd"
         inkscape:connector-curvature="0"
         d="m -241.53965,959.58664 c -3.327,1.124 -6.199,2.638 -8.642,2.78 -1.233,0.071 -3.178,-0.621 -3.115,-2.802 0.063,-2.181 1.514,-2.839 3.117,-2.822 2.05,0.023 5.251,1.584 8.64,2.844 l 0,0 z"
         id="path3158" />
      <path
         style="fill:#016038;fill-opacity:1;fill-rule:evenodd"
         inkscape:connector-curvature="0"
         d="m -280.37165,1011.6916 c -2.316,12.89 -5.148,22.828 -12.773,32.635 2.563,0.094 4.748,-0.528 7.289,-3.475 1.124,3.11 3.468,5.897 5.552,6.416 1.964,-0.5 4.165,-3.253 5.416,-6.346 2.741,3.014 5.237,3.612 7.356,3.406 -7.092,-8.82 -10.301,-18.963 -12.84,-32.636 l 0,0 z"
         id="path3160" />
      <path
         style="fill:#016038;fill-opacity:1;fill-rule:evenodd"
         inkscape:connector-curvature="0"
         d="m -280.41565,992.66964 c -1.124,3.328 -2.639,6.2 -2.78,8.64296 -0.071,1.233 0.621,3.178 2.803,3.115 2.182,-0.063 2.839,-1.513 2.821,-3.117 -0.023,-2.05096 -1.584,-5.25196 -2.844,-8.64096 l 0,0 z"
         id="path3162" />
      <path
         style="fill:#016038;fill-opacity:1;fill-rule:evenodd"
         inkscape:connector-curvature="0"
         d="m -294.36165,1007.7036 c 3.328,1.124 6.199,2.638 8.643,2.78 1.233,0.072 3.178,-0.621 3.115,-2.802 -0.063,-2.182 -1.514,-2.839 -3.118,-2.821 -2.05,0.022 -5.25,1.583 -8.64,2.843 l 0,0 z"
         id="path3164" />
      <path
         style="fill:#016038;fill-opacity:1;fill-rule:evenodd"
         inkscape:connector-curvature="0"
         d="m -266.44665,1007.7366 c -3.327,1.124 -6.199,2.638 -8.642,2.78 -1.233,0.071 -3.179,-0.621 -3.115,-2.802 0.063,-2.182 1.514,-2.839 3.117,-2.822 2.051,0.022 5.252,1.584 8.64,2.844 l 0,0 z"
         id="path3166" />
      <path
         style="fill:#016038;fill-opacity:1;fill-rule:evenodd"
         inkscape:connector-curvature="0"
         d="m -232.70365,1011.6916 c -2.317,12.89 -5.148,22.828 -12.773,32.635 2.563,0.094 4.748,-0.528 7.288,-3.475 1.125,3.11 3.468,5.897 5.553,6.416 1.963,-0.5 4.165,-3.253 5.416,-6.346 2.741,3.014 5.237,3.612 7.355,3.406 -7.091,-8.82 -10.301,-18.963 -12.839,-32.636 l 0,0 z"
         id="path3168" />
      <path
         style="fill:#016038;fill-opacity:1;fill-rule:evenodd"
         inkscape:connector-curvature="0"
         d="m -232.74765,992.66964 c -1.125,3.328 -2.639,6.2 -2.78,8.64296 -0.072,1.233 0.62,3.178 2.802,3.115 2.182,-0.063 2.84,-1.513 2.822,-3.117 -0.024,-2.05096 -1.585,-5.25196 -2.844,-8.64096 l 0,0 z"
         id="path3170" />
      <path
         style="fill:#016038;fill-opacity:1;fill-rule:evenodd"
         inkscape:connector-curvature="0"
         d="m -246.69365,1007.7036 c 3.327,1.124 6.199,2.638 8.642,2.78 1.233,0.072 3.179,-0.621 3.115,-2.802 -0.063,-2.182 -1.513,-2.839 -3.117,-2.821 -2.05,0.022 -5.251,1.583 -8.64,2.843 l 0,0 z"
         id="path3172" />
      <path
         style="fill:#016038;fill-opacity:1;fill-rule:evenodd"
         inkscape:connector-curvature="0"
         d="m -218.77865,1007.7366 c -3.328,1.124 -6.199,2.638 -8.643,2.78 -1.233,0.071 -3.178,-0.621 -3.114,-2.802 0.063,-2.182 1.513,-2.839 3.117,-2.822 2.051,0.022 5.252,1.584 8.64,2.844 l 0,0 z"
         id="path3174" />
    </g>
    <g
       style="fill:#ffdc10;fill-opacity:1"
       transform="matrix(1.4245404,0,0,1.5530492,814.61836,-1313.6796)"
       id="g3391">
      <polygon
         style="fill:#ffdc10;fill-opacity:1;fill-rule:evenodd"
         points="53.891,344.021 47.287,339.203 40.684,344.021 43.225,336.251 36.602,331.46 44.776,331.476 47.287,323.697 47.287,323.697 49.798,331.476 57.973,331.46 51.35,336.251 "
         id="polygon3176"
         transform="translate(-565.71765,822.01064)" />
      <polygon
         style="fill:#ffdc10;fill-opacity:1;fill-rule:evenodd"
         points="99.213,344.021 92.61,339.203 86.006,344.021 88.547,336.251 81.924,331.46 90.099,331.476 92.61,323.697 92.61,323.697 95.12,331.476 103.295,331.46 96.672,336.251 "
         id="polygon3178"
         transform="translate(-565.71765,822.01064)" />
      <polygon
         style="fill:#ffdc10;fill-opacity:1;fill-rule:evenodd"
         points="144.536,344.021 137.932,339.203 131.328,344.021 133.869,336.251 127.247,331.46 135.421,331.476 137.932,323.697 137.932,323.697 140.442,331.476 148.617,331.46 141.994,336.251 "
         id="polygon3180"
         transform="translate(-565.71765,822.01064)" />
      <polygon
         style="fill:#ffdc10;fill-opacity:1;fill-rule:evenodd"
         points="189.858,344.021 183.254,339.203 176.65,344.021 179.191,336.251 172.569,331.46 180.743,331.476 183.254,323.697 183.254,323.697 185.765,331.476 193.939,331.46 187.316,336.251 "
         id="polygon3182"
         transform="translate(-565.71765,822.01064)" />
      <polygon
         style="fill:#ffdc10;fill-opacity:1;fill-rule:evenodd"
         points="235.18,344.021 228.576,339.203 221.973,344.021 224.514,336.251 217.891,331.46 226.065,331.476 228.576,323.697 228.576,323.697 231.087,331.476 239.262,331.46 232.639,336.251 "
         id="polygon3184"
         transform="translate(-565.71765,822.01064)" />
      <polygon
         style="fill:#ffdc10;fill-opacity:1;fill-rule:evenodd"
         points="280.502,344.021 273.898,339.203 267.295,344.021 269.836,336.251 263.213,331.46 271.388,331.476 273.898,323.697 273.898,323.697 276.409,331.476 284.584,331.46 277.961,336.251 "
         id="polygon3186"
         transform="translate(-565.71765,822.01064)" />
      <polygon
         style="fill:#ffdc10;fill-opacity:1;fill-rule:evenodd"
         points="325.825,344.021 319.221,339.203 312.617,344.021 315.158,336.251 308.536,331.46 316.71,331.476 319.221,323.697 319.221,323.697 321.731,331.476 329.906,331.46 323.283,336.251 "
         id="polygon3188"
         transform="translate(-565.71765,822.01064)" />
      <polygon
         style="fill:#ffdc10;fill-opacity:1;fill-rule:evenodd"
         points="371.147,344.021 364.543,339.203 357.939,344.021 360.48,336.251 353.858,331.46 362.032,331.476 364.543,323.697 364.543,323.697 367.054,331.476 375.229,331.46 368.605,336.251 "
         id="polygon3190"
         transform="translate(-565.71765,822.01064)" />
    </g>
    <g
       transform="matrix(0.92605042,0,0,0.92605042,-410.10851,-48.92276)"
       id="g3411">
      <polygon
         style="fill:#ffdc07;fill-opacity:1"
         points="174.827,505.628 174.827,490.982 170.284,495.474 168.375,493.447 173.969,488.16 178.018,488.16 178.018,505.628 178.018,505.628 "
         id="polygon3200"
         transform="matrix(1.5558311,0,0,1.6231801,451.18769,20.242113)" />
      <path
         style="fill:#026130;fill-opacity:1"
         inkscape:connector-curvature="0"
         d="m 762.63005,832.7638 c 0,3.0808 -0.81059,5.27534 -2.43332,6.582 -1.19022,0.95767 -2.95297,1.5339 -5.29139,1.72544 -1.10619,0.0893 -2.43332,0.1331 -3.98137,0.1331 -3.08677,0 -5.24782,-0.36846 -6.48626,-1.09727 -1.98057,-1.18005 -2.97164,-3.5223 -2.97164,-7.03811 l 4.92888,0 c 0.0404,0.98203 0.13847,1.70596 0.29094,2.17182 0.1618,0.49507 0.46986,0.85217 0.94128,1.07779 0.53831,0.27269 1.5356,0.44637 2.97163,0.53565 0.31428,-0.0568 0.73124,-0.0893 1.26178,-0.0893 1.63207,0 2.78494,-0.0601 3.46173,-0.18017 0.63478,-0.12012 1.1482,-0.40904 1.54027,-0.87165 0.60989,-0.71095 0.90083,-1.93321 0.87593,-3.67163 l -0.0716,-4.87279 -0.0778,0 c -0.81525,1.4706 -2.08481,2.32764 -3.81023,2.55813 -0.79192,0.10713 -1.79387,0.16557 -3.00275,0.16557 -1.77054,0 -3.24391,-0.1331 -4.41545,-0.40255 -1.1482,-0.25971 -2.10815,-0.79536 -2.86895,-1.60046 -1.18399,-1.25471 -1.77521,-3.44601 -1.77521,-6.57875 0,-3.64241 0.73591,-6.0431 2.21084,-7.22152 1.18865,-0.94469 2.85651,-1.48684 4.98799,-1.62643 0.86971,-0.0568 1.90434,-0.0828 3.09922,-0.0828 3.00898,0 5.23693,0.31652 6.69319,0.95443 0.97706,0.42852 1.76898,1.09402 2.36641,1.99976 1.0393,1.55987 1.55895,4.73319 1.55895,9.52969 l 0,7.90001 -0.003,0 z m -4.96466,-10.77304 0,-1.03072 c 0,-1.62318 -0.32517,-2.70747 -0.97862,-3.24312 -0.48853,-0.39605 -1.18399,-0.64927 -2.08948,-0.76451 -0.35629,-0.0373 -0.76703,-0.0666 -1.23844,-0.0893 -0.31428,-0.0162 -0.7608,-0.0341 -1.34735,-0.0536 -2.55468,-0.0195 -4.08873,0.28243 -4.60837,0.90735 -0.53054,0.52916 -0.79659,1.74655 -0.79659,3.6619 0,1.61019 0.24115,2.67013 0.72502,3.17332 0.42941,0.44962 1.28045,0.72556 2.54223,0.83431 0.67678,0.0568 1.41425,0.0893 2.21083,0.0893 0.85727,0 1.63051,-0.0325 2.31819,-0.0893 1.21355,-0.0958 2.04747,-0.36846 2.50022,-0.81484 0.5072,-0.48533 0.76236,-1.34724 0.76236,-2.58085 l 0,0 z"
         id="path3202" />
      <path
         style="fill:#026130;fill-opacity:1"
         inkscape:connector-curvature="0"
         d="m 797.91322,834.92588 -3.18945,0 0,6.0431 -4.92887,0 0,-6.0431 -14.82085,0 0,-5.89701 12.02969,-16.41522 7.72003,0 0,18.22344 3.18945,0 0,4.08879 0,0 z m -8.11832,-4.09041 0,-14.29211 -0.13847,0 -10.55165,14.28561 10.69012,0 0,0 z"
         id="path3204" />
      <path
         style="fill:#ffdc07;fill-opacity:1"
         inkscape:connector-curvature="0"
         d="m 829.41178,832.54467 c 0,4.05795 -1.11242,6.61609 -3.33414,7.66953 -1.39403,0.65901 -4.01716,0.98852 -7.86473,0.98852 -2.40998,0 -4.17429,-0.15258 -5.28983,-0.45287 -0.86504,-0.22887 -1.57761,-0.54214 -2.14393,-0.95118 -0.99884,-0.72557 -1.65385,-1.86666 -1.98213,-3.42329 -0.31894,-1.5128 -0.47764,-3.15059 -0.47764,-4.93285 l 4.93043,0 c 0,1.35374 0.0653,2.37472 0.20537,3.05645 0.13224,0.68823 0.3734,1.19142 0.72502,1.5193 0.35628,0.32626 0.79036,0.52916 1.31623,0.61843 0.55076,0.0925 1.20266,0.13635 1.95723,0.13635 l 2.38509,0 c 1.75809,0 2.9483,-0.19965 3.55663,-0.59571 0.69546,-0.54863 1.04552,-1.68324 1.04552,-3.41192 0,-1.66376 -0.26449,-2.79025 -0.79658,-3.3957 -0.46675,-0.52915 -1.6134,-0.79535 -3.44306,-0.79535 l -3.3357,0 0,-4.16184 c 1.45159,0 2.46444,0.026 3.04476,0.0763 1.38936,-0.0958 2.23573,-0.18342 2.53601,-0.2662 1.03929,-0.42203 1.55894,-1.83257 1.55894,-4.23488 0,-1.04695 -0.15714,-1.8001 -0.47142,-2.26596 -0.57254,-0.60544 -2.2295,-0.90735 -4.95999,-0.90735 -1.08597,0 -1.93856,0.0438 -2.54845,0.12985 -0.65345,0.0958 -1.15287,0.27919 -1.51693,0.54863 -0.36251,0.27919 -0.62078,0.73855 -0.76703,1.39432 -0.14469,0.62167 -0.21159,1.56312 -0.21159,2.80323 l -4.96466,0 c 0,-2.63442 0.33295,-4.63256 1.00507,-5.99116 0.31272,-0.65576 0.74213,-1.21089 1.27889,-1.68324 0.94128,-0.81808 2.3073,-1.3164 4.0965,-1.49982 0.89305,-0.0893 1.93079,-0.1331 3.11633,-0.1331 3.44306,0 5.87638,0.2727 7.2953,0.82133 0.62077,0.23699 1.15909,0.56162 1.61806,0.96417 0.76703,0.65901 1.2929,1.53715 1.57139,2.62144 0.32517,1.28393 0.47142,2.73343 0.42163,4.33389 -0.0918,3.2139 -1.50449,4.97992 -4.24119,5.29481 l -0.0653,0.14609 c 1.15754,0.10388 2.07081,0.37171 2.72893,0.79211 0.70012,0.45936 1.20266,1.07779 1.50449,1.85854 0.34695,0.88463 0.51653,2.00138 0.51653,3.32914 l 0,0 z"
         id="path3206" />
    </g>
    <g
       id="g4310">
      <ellipse
         style="color:#000000;display:inline;overflow:visible;visibility:visible;fill:#ffdc10;fill-opacity:1;fill-rule:nonzero;stroke:none;stroke-width:1.34345567;marker:none;enable-background:accumulate"
         id="path3417"
         cx="302.90173"
         cy="611.32373"
         rx="79.961609"
         ry="81.049522" />
      <path
         inkscape:connector-curvature="0"
         id="path2995"
         d="m 291.40692,687.2161 c -17.83456,-2.6216 -36.20184,-13.22242 -47.72248,-27.54341 -31.36267,-38.98606 -18.25493,-95.97418 26.99025,-117.34459 11.34771,-5.3598 17.15109,-6.53241 32.32958,-6.53241 9.9895,0 14.969,0.42131 19.44705,1.64538 33.56909,9.17609 56.56058,38.90994 56.72873,73.3647 0.0795,16.28423 -3.77175,29.59456 -12.24732,42.32843 -16.94854,25.46381 -45.74669,38.4593 -75.52581,34.0819 z m -6.85881,-14.52472 2.13205,-5.25306 -4.47892,-8.40618 c -2.46342,-4.62341 -4.59014,-8.54537 -4.72606,-8.71545 -0.13592,-0.17009 -4.13628,-1.30034 -8.88969,-2.51166 l -8.64257,-2.20242 -4.86176,4.79516 c -2.67397,2.63734 -4.86177,5.29128 -4.86177,5.89765 0,2.626 13.46454,13.50423 21.70688,17.53735 4.61437,2.25788 8.86227,4.10669 9.43977,4.10845 0.5775,0.002 2.00943,-2.36066 3.18207,-5.24984 z m 54.37272,-1.41229 c 4.84834,-2.88241 16.87533,-13.23053 16.86232,-14.50849 -0.004,-0.3236 -2.31286,-3.02235 -5.13237,-5.99722 -3.72796,-3.9334 -5.55779,-5.24073 -6.70787,-4.79252 -0.86983,0.339 -4.36861,1.24967 -7.77508,2.02373 -3.40645,0.77405 -6.79458,1.88887 -7.52914,2.47739 -0.73457,0.5885 -3.0761,4.46443 -5.2034,8.61317 l -3.86783,7.54316 1.52254,3.56945 c 0.8374,1.96319 1.89341,4.50901 2.3467,5.65737 l 0.82416,2.08792 4.75798,-1.80788 c 2.61689,-0.99435 7.07278,-3.18408 9.90199,-4.86608 z m -18.9379,-14.63189 4.45236,-8.3325 -3.83499,-6.94733 -3.83501,-6.94731 -14.05741,0.006 -14.0574,0.006 -3.47269,6.37692 c -1.90997,3.50729 -3.47268,6.90019 -3.47268,7.53978 0,0.63958 1.89707,4.64311 4.21572,8.89673 l 4.21572,7.73385 12.69701,0 12.69699,0 4.45238,-8.33252 z m -38.82055,-17.05282 c 1.82648,-3.26605 3.33623,-6.49566 3.35501,-7.17689 0.0188,-0.68124 -1.73727,-6.95174 -3.90231,-13.93445 l -3.93644,-12.69584 -8.20629,-1.88946 c -4.51346,-1.03919 -8.9154,-1.88945 -9.78207,-1.88945 -1.05274,0 -2.85951,2.58844 -5.44332,7.79826 l -3.86753,7.79825 5.49007,11.88032 5.49007,11.88032 7.6631,1.98868 c 4.21471,1.09377 8.14815,2.03139 8.74097,2.08361 0.59283,0.0522 2.57226,-2.5773 4.39874,-5.84335 z m 55.8059,3.93996 7.96757,-1.99832 5.48366,-11.60222 c 3.43717,-7.2723 5.30056,-12.31532 4.99304,-13.51302 -0.26985,-1.05094 -2.01149,-4.76364 -3.87032,-8.25043 l -3.37967,-6.33963 -3.82663,0.58761 c -2.10464,0.32319 -6.7101,1.30078 -10.23435,2.1724 l -6.40774,1.58479 -4.04924,12.03866 -4.04923,12.03865 1.87756,3.93284 c 2.25272,4.71863 6.36681,11.34699 7.04285,11.34699 0.26671,0 4.07033,-0.89925 8.4525,-1.99832 z m -87.36032,-35.7795 c 3.96988,-7.68644 4.26011,-8.76355 5.16321,-19.1622 0.52629,-6.05988 0.86343,-11.08518 0.74919,-11.16732 -1.89935,-1.36578 -8.95177,-5.05064 -9.66636,-5.05064 -1.31872,0 -7.06355,11.18756 -9.51058,18.52101 -1.27107,3.80926 -2.20136,9.50443 -2.53373,15.51134 l -0.5252,9.49202 6.05858,0 6.05856,0 z m 122.62016,-0.88478 c -0.55621,-10.51623 -3.33749,-20.11134 -8.51126,-29.36292 l -3.43062,-6.13451 -4.79519,2.78687 -4.79519,2.78687 0.29339,10.82484 c 0.27881,10.28701 0.45738,11.15049 3.59389,17.37878 5.57735,11.07512 5.21073,10.74906 12.0859,10.74906 l 6.03662,0 z m -33.30427,-7.67813 8.60109,-1.9847 -0.51627,-5.23938 c -0.28395,-2.88166 -0.74868,-7.44489 -1.03273,-10.14049 l -0.51646,-4.90111 -10.42721,-7.83208 c -5.73497,-4.30766 -10.98132,-7.83209 -11.65856,-7.83209 -0.67725,0 -5.32907,1.10115 -10.33737,2.44701 l -9.10602,2.44702 0,9.49071 0,9.49072 11.74793,8.44309 c 6.71988,4.82951 12.36778,8.26182 13.19622,8.01954 0.79656,-0.23296 5.31878,-1.31667 10.04938,-2.40824 z m -49.80817,-5.98267 10.96069,-7.87298 -0.15664,-9.49047 -0.15664,-9.49046 -9.38964,-2.65301 -9.38965,-2.65301 -10.05741,7.7148 c -5.53158,4.24315 -10.31964,8.08886 -10.64012,8.54604 -0.75755,1.08066 -2.04145,19.14149 -1.40589,19.77704 0.66088,0.66088 14.42547,3.80648 17.11395,3.91102 1.32537,0.0516 6.39791,-2.95958 13.12135,-7.78897 z m 24.01304,-33.78153 c 5.31164,-1.51823 9.94223,-3.08094 10.29021,-3.47269 0.34798,-0.39176 1.12859,-2.75738 1.73471,-5.25694 1.3006,-5.36352 1.29074,-5.37395 -6.76203,-7.16227 -10.42879,-2.31597 -32.58932,-1.12114 -37.69155,2.03221 -1.04927,0.64849 -1.03178,1.64868 0.10752,6.15061 l 1.36055,5.3762 8.33445,2.4576 c 4.58395,1.35168 9.37714,2.49767 10.65154,2.54664 1.27439,0.049 6.66296,-1.15314 11.9746,-2.67136 z"
         style="fill:#026132;fill-opacity:1"
         sodipodi:nodetypes="ssssssssscscscssscsscssscscsscssccccccssscccccscscssscccscsscssscsscccssssscssscccssscccssscsscsscssscccscsscccccscscssssssscscs" />
    </g>
  </g>
</svg>
