<?xml version="1.0" encoding="UTF-8" standalone="no"?>
<!-- Created with Inkscape (http://www.inkscape.org/) -->

<svg
   xmlns:dc="http://purl.org/dc/elements/1.1/"
   xmlns:cc="http://creativecommons.org/ns#"
   xmlns:rdf="http://www.w3.org/1999/02/22-rdf-syntax-ns#"
   xmlns:svg="http://www.w3.org/2000/svg"
   xmlns="http://www.w3.org/2000/svg"
   xmlns:sodipodi="http://sodipodi.sourceforge.net/DTD/sodipodi-0.dtd"
   xmlns:inkscape="http://www.inkscape.org/namespaces/inkscape"
   version="1.0"
   width="780.73224"
   height="791.36218"
   id="svg10571"
   xml:space="preserve"
   inkscape:version="0.48.2 r9819"
   sodipodi:docname="Stade de Reims.svg"><metadata
     id="metadata222"><rdf:RDF><cc:Work
         rdf:about=""><dc:format>image/svg+xml</dc:format><dc:type
           rdf:resource="http://purl.org/dc/dcmitype/StillImage" /></cc:Work></rdf:RDF></metadata><sodipodi:namedview
     pagecolor="#ffffff"
     bordercolor="#666666"
     borderopacity="1"
     objecttolerance="10"
     gridtolerance="10"
     guidetolerance="10"
     inkscape:pageopacity="0"
     inkscape:pageshadow="2"
     inkscape:window-width="1366"
     inkscape:window-height="706"
     id="namedview220"
     showgrid="false"
     inkscape:zoom="0.59643992"
     inkscape:cx="534.18326"
     inkscape:cy="402.97082"
     inkscape:window-x="-8"
     inkscape:window-y="-8"
     inkscape:window-maximized="1"
     inkscape:current-layer="svg10571"
     showguides="true"
     inkscape:guide-bbox="true" /><defs
     id="defs10574"><clipPath
       id="clipPath10586"><path
         d="M 0,841 L 595,841 L 595,0 L 0,0 L 0,841 z"
         id="path10588" /></clipPath><clipPath
       id="clipPath10592"><path
         d="M 0.36,841.68 L 595.8,841.68 L 595.8,0 L 0.36,0 L 0.36,841.68 z"
         id="path10594" /></clipPath><clipPath
       id="clipPath10682"><path
         d="M 399.685,682.251 L 467.716,682.251 L 467.716,612.251 L 399.685,612.251 L 399.685,682.251 z"
         id="path10684" /></clipPath><clipPath
       id="clipPath10688"><path
         d="M 0,841 L 595,841 L 595,0 L 0,0 L 0,841 z"
         id="path10690" /></clipPath><clipPath
       id="clipPath10694"><path
         d="M 0.36,841.68 L 595.8,841.68 L 595.8,0 L 0.36,0 L 0.36,841.68 z"
         id="path10696" /></clipPath><clipPath
       id="clipPath10786"><path
         d="M 484.724,682.251 L 552.756,682.251 L 552.756,612.251 L 484.724,612.251 L 484.724,682.251 z"
         id="path10788" /></clipPath><clipPath
       id="clipPath10792"><path
         d="M 0,841 L 595,841 L 595,0 L 0,0 L 0,841 z"
         id="path10794" /></clipPath><clipPath
       id="clipPath10798"><path
         d="M 0.36,841.68 L 595.8,841.68 L 595.8,0 L 0.36,0 L 0.36,841.68 z"
         id="path10800" /></clipPath><radialGradient
       cx="0"
       cy="0"
       r="1"
       fx="0"
       fy="0"
       id="radialGradient10838"
       gradientUnits="userSpaceOnUse"
       gradientTransform="matrix(15.4865,-15.4865,-15.4865,-15.4865,511.748,669.5154)"
       spreadMethod="pad"><stop
         id="stop10840"
         style="stop-color:#ffffff;stop-opacity:1"
         offset="0" /><stop
         id="stop10842"
         style="stop-color:#696a6c;stop-opacity:1"
         offset="1" /></radialGradient><clipPath
       id="clipPath10850"><path
         d="M 484.724,682.251 L 552.756,682.251 L 552.756,612.251 L 484.724,612.251 L 484.724,682.251 z"
         id="path10852" /></clipPath><clipPath
       id="clipPath10856"><path
         d="M 0,841 L 595,841 L 595,0 L 0,0 L 0,841 z"
         id="path10858" /></clipPath><clipPath
       id="clipPath10862"><path
         d="M 0.36,841.68 L 595.8,841.68 L 595.8,0 L 0.36,0 L 0.36,841.68 z"
         id="path10864" /></clipPath><clipPath
       id="clipPath10888"><path
         d="M 147.567,682.251 L 215.598,682.251 L 215.598,612.251 L 147.567,612.251 L 147.567,682.251 z"
         id="path10890" /></clipPath><clipPath
       id="clipPath10894"><path
         d="M 0,841 L 595,841 L 595,0 L 0,0 L 0,841 z"
         id="path10896" /></clipPath><clipPath
       id="clipPath10900"><path
         d="M 0.36,841.68 L 595.8,841.68 L 595.8,0 L 0.36,0 L 0.36,841.68 z"
         id="path10902" /></clipPath><clipPath
       id="clipPath10964"><path
         d="M 229.606,682.251 L 297.638,682.251 L 297.638,612.251 L 229.606,612.251 L 229.606,682.251 z"
         id="path10966" /></clipPath><clipPath
       id="clipPath10970"><path
         d="M 0,841 L 595,841 L 595,0 L 0,0 L 0,841 z"
         id="path10972" /></clipPath><clipPath
       id="clipPath10976"><path
         d="M 0.36,841.68 L 595.8,841.68 L 595.8,0 L 0.36,0 L 0.36,841.68 z"
         id="path10978" /></clipPath><clipPath
       id="clipPath11100"><path
         d="M 314.646,682.251 L 382.677,682.251 L 382.677,612.251 L 314.646,612.251 L 314.646,682.251 z"
         id="path11102" /></clipPath><clipPath
       id="clipPath11106"><path
         d="M 0,841 L 595,841 L 595,0 L 0,0 L 0,841 z"
         id="path11108" /></clipPath><clipPath
       id="clipPath11112"><path
         d="M 0.36,841.68 L 595.8,841.68 L 595.8,0 L 0.36,0 L 0.36,841.68 z"
         id="path11114" /></clipPath><clipPath
       id="clipPath11212"><path
         d="M 399.685,574.543 L 467.716,574.543 L 467.716,504.544 L 399.685,504.544 L 399.685,574.543 z"
         id="path11214" /></clipPath><clipPath
       id="clipPath11218"><path
         d="M 0,841 L 595,841 L 595,0 L 0,0 L 0,841 z"
         id="path11220" /></clipPath><clipPath
       id="clipPath11224"><path
         d="M 0.36,841.68 L 595.8,841.68 L 595.8,0 L 0.36,0 L 0.36,841.68 z"
         id="path11226" /></clipPath><clipPath
       id="clipPath11234"><path
         d="M 455.345,545.226 C 455.621,547.816 457.943,549.692 460.532,549.416 C 463.12,549.141 464.995,546.819 464.719,544.229 C 464.444,541.639 462.122,539.763 459.534,540.038 C 456.945,540.314 455.07,542.636 455.345,545.226"
         id="path11236" /></clipPath><clipPath
       id="clipPath11756"><path
         d="M 399.685,574.543 L 467.716,574.543 L 467.716,504.544 L 399.685,504.544 L 399.685,574.543 z"
         id="path11758" /></clipPath><clipPath
       id="clipPath11762"><path
         d="M 0,841 L 595,841 L 595,0 L 0,0 L 0,841 z"
         id="path11764" /></clipPath><clipPath
       id="clipPath11768"><path
         d="M 0.36,841.68 L 595.8,841.68 L 595.8,0 L 0.36,0 L 0.36,841.68 z"
         id="path11770" /></clipPath><clipPath
       id="clipPath11816"><path
         d="M 484.724,574.543 L 552.756,574.543 L 552.756,504.544 L 484.724,504.544 L 484.724,574.543 z"
         id="path11818" /></clipPath><clipPath
       id="clipPath11822"><path
         d="M 0,841 L 595,841 L 595,0 L 0,0 L 0,841 z"
         id="path11824" /></clipPath><clipPath
       id="clipPath11828"><path
         d="M 0.36,841.68 L 595.8,841.68 L 595.8,0 L 0.36,0 L 0.36,841.68 z"
         id="path11830" /></clipPath><clipPath
       id="clipPath11900"><path
         d="M 149.105,574.543 L 215.598,574.543 L 215.598,504.544 L 149.105,504.544 L 149.105,574.543 z"
         id="path11902" /></clipPath><clipPath
       id="clipPath11906"><path
         d="M 0,841 L 595,841 L 595,0 L 0,0 L 0,841 z"
         id="path11908" /></clipPath><clipPath
       id="clipPath11912"><path
         d="M 0.36,841.68 L 595.8,841.68 L 595.8,0 L 0.36,0 L 0.36,841.68 z"
         id="path11914" /></clipPath><clipPath
       id="clipPath12580"><path
         d="M 229.606,574.543 L 297.638,574.543 L 297.638,504.544 L 229.606,504.544 L 229.606,574.543 z"
         id="path12582" /></clipPath><clipPath
       id="clipPath12586"><path
         d="M 0,841 L 595,841 L 595,0 L 0,0 L 0,841 z"
         id="path12588" /></clipPath><clipPath
       id="clipPath12592"><path
         d="M 0.36,841.68 L 595.8,841.68 L 595.8,0 L 0.36,0 L 0.36,841.68 z"
         id="path12594" /></clipPath><clipPath
       id="clipPath12730"><path
         d="M 269.913,547.204 C 266.697,547.204 264.09,544.596 264.09,541.38 C 264.09,538.165 266.697,535.557 269.913,535.557 C 273.129,535.557 275.736,538.165 275.736,541.38 C 275.736,544.596 273.129,547.204 269.913,547.204"
         id="path12732" /></clipPath><clipPath
       id="clipPath12946"><path
         d="M 229.606,574.543 L 297.638,574.543 L 297.638,504.544 L 229.606,504.544 L 229.606,574.543 z"
         id="path12948" /></clipPath><clipPath
       id="clipPath12952"><path
         d="M 0,841 L 595,841 L 595,0 L 0,0 L 0,841 z"
         id="path12954" /></clipPath><clipPath
       id="clipPath12958"><path
         d="M 0.36,841.68 L 595.8,841.68 L 595.8,0 L 0.36,0 L 0.36,841.68 z"
         id="path12960" /></clipPath><clipPath
       id="clipPath12984"><path
         d="M 314.646,574.543 L 382.677,574.543 L 382.677,504.544 L 314.646,504.544 L 314.646,574.543 z"
         id="path12986" /></clipPath><clipPath
       id="clipPath12990"><path
         d="M 0,841 L 595,841 L 595,0 L 0,0 L 0,841 z"
         id="path12992" /></clipPath><clipPath
       id="clipPath12996"><path
         d="M 0.36,841.68 L 595.8,841.68 L 595.8,0 L 0.36,0 L 0.36,841.68 z"
         id="path12998" /></clipPath><clipPath
       id="clipPath13096"><path
         d="M 337.923,562.831 L 339.952,562.831 L 339.952,562.729 L 340.256,562.731 L 340.561,562.729 L 340.561,562.628 L 340.763,562.632 L 340.967,562.628 L 340.967,562.526 L 341.271,562.526 L 341.271,562.425 L 341.423,562.427 L 341.576,562.425 L 341.576,562.323 L 341.725,562.33 L 341.88,562.323 L 341.88,562.222 L 342.083,562.222 L 342.083,562.12 L 342.286,562.12 L 342.286,562.019 L 342.489,562.019 L 342.489,561.917 L 342.692,561.917 L 342.692,561.816 L 342.895,561.816 L 342.895,561.714 L 343.061,561.667 L 343.199,561.613 L 343.199,561.511 L 343.402,561.511 L 343.504,561.309 L 343.707,561.309 L 343.707,561.207 L 343.857,561.107 L 344.011,561.004 L 344.011,560.903 L 344.214,560.903 L 344.214,560.801 L 344.379,560.688 L 344.656,560.409 L 344.823,560.294 L 344.823,560.193 L 344.924,560.193 L 345.025,559.99 L 345.127,559.99 L 345.127,559.786 L 345.33,559.786 L 345.33,559.584 L 345.44,559.535 L 345.533,559.482 L 345.533,559.279 L 345.736,559.178 L 345.784,558.974 L 345.837,558.772 L 345.938,558.72 L 346.04,558.671 L 346.04,558.468 L 346.15,558.421 L 346.243,558.366 L 346.257,558.297 L 346.25,558.215 L 346.243,558.062 L 346.345,558.062 L 346.386,557.856 L 346.446,557.656 L 346.547,557.656 L 346.551,557.504 L 346.547,557.352 L 346.649,557.352 L 346.649,557.047 L 346.75,557.047 L 346.747,556.899 L 346.75,556.743 L 346.852,556.743 L 346.85,556.49 L 346.852,556.235 L 346.953,556.235 L 346.953,555.829 L 347.055,555.829 L 347.055,554.713 L 347.157,554.713 L 347.055,553.191 L 346.953,553.191 L 346.956,552.939 L 346.953,552.684 L 346.852,552.684 L 346.852,552.278 L 346.75,552.278 L 346.753,552.077 L 346.75,551.872 L 346.649,551.872 L 346.649,551.67 L 346.547,551.67 L 346.498,551.365 L 346.446,551.061 L 346.345,551.061 L 346.289,550.866 L 346.243,550.655 L 346.142,550.655 L 346.142,550.452 L 346.037,550.4 L 345.938,550.35 L 345.884,550.146 L 345.837,549.945 L 345.634,549.843 L 345.634,549.64 L 345.33,549.437 L 345.33,549.234 L 345.229,549.234 L 345.229,549.133 L 345.024,548.982 L 344.823,548.828 L 344.823,548.727 L 344.721,548.727 L 344.721,548.626 L 344.526,548.49 L 344.365,548.322 L 344.204,548.154 L 344.011,548.017 L 344.011,547.915 L 343.808,547.915 L 343.605,547.611 L 343.402,547.611 L 343.301,547.408 L 343.096,547.358 L 342.895,547.306 L 342.793,547.103 L 342.59,547.103 L 342.59,547.002 L 342.378,546.957 L 342.185,546.901 L 342.185,546.799 L 342.032,546.806 L 341.88,546.799 L 341.88,546.698 L 341.677,546.698 L 341.677,546.596 L 341.473,546.598 L 341.271,546.596 L 341.271,546.495 L 340.967,546.495 L 340.967,546.393 L 340.761,546.398 L 340.561,546.393 L 340.561,546.292 L 340.155,546.292 L 340.155,546.19 L 340.063,546.207 L 340.055,546.252 L 340.056,546.275 L 340.046,546.292 L 339.952,546.292 L 339.952,546.19 L 339.596,546.188 L 339.242,546.19 L 339.242,546.089 L 338.025,546.089 L 338.025,546.19 L 337.92,546.182 L 337.914,546.164 L 337.922,546.142 L 337.929,546.12 L 337.924,546.101 L 337.822,546.089 L 337.822,546.19 L 336.908,546.19 L 336.908,546.292 L 336.704,546.289 L 336.503,546.292 L 336.503,546.393 L 336.193,546.439 L 335.894,546.495 L 335.894,546.596 L 335.742,546.592 L 335.59,546.596 L 335.59,546.698 L 335.385,546.75 L 335.183,546.799 L 335.082,547.002 L 334.879,547.002 L 334.879,547.103 L 334.676,547.103 L 334.676,547.205 L 334.466,547.252 L 334.27,547.306 L 334.27,547.408 L 334.067,547.408 L 333.965,547.561 L 333.865,547.712 L 333.715,547.765 L 333.56,547.814 L 333.56,547.915 L 333.357,547.915 L 333.357,548.118 L 333.154,548.118 L 333.053,548.321 L 332.951,548.321 L 332.951,548.423 L 332.747,548.576 L 332.545,548.727 L 332.545,548.828 L 332.444,548.828 L 332.444,549.031 L 332.347,549.082 L 332.241,549.133 L 332.038,549.437 L 331.937,549.437 L 331.937,549.64 L 331.835,549.64 L 331.789,549.694 L 331.772,549.774 L 331.734,549.945 L 331.642,550.004 L 331.531,550.046 L 331.531,550.249 L 331.429,550.249 L 331.429,550.452 L 331.226,550.553 L 331.174,550.694 L 331.167,550.796 L 331.165,550.903 L 331.125,551.061 L 331.024,551.061 L 331.024,551.264 L 330.922,551.264 L 330.925,551.416 L 330.922,551.568 L 330.821,551.568 L 330.823,551.72 L 330.821,551.872 L 330.719,551.872 L 330.673,552.181 L 330.618,552.481 L 330.516,552.481 L 330.508,552.735 L 330.516,552.989 L 330.415,552.989 L 330.415,553.8 L 330.313,553.8 L 330.313,553.902 L 330.387,553.936 L 330.418,553.958 L 330.415,554.104 L 330.313,554.104 L 330.313,554.713 L 330.415,554.713 L 330.415,555.829 L 330.516,555.829 L 330.508,556.086 L 330.516,556.337 L 330.618,556.337 L 330.618,556.641 L 330.719,556.641 L 330.722,556.797 L 330.719,556.946 L 330.821,556.946 L 330.864,557.257 L 330.922,557.554 L 331.024,557.554 L 331.02,557.709 L 331.024,557.859 L 331.125,557.859 L 331.166,558.066 L 331.226,558.265 L 331.328,558.265 L 331.328,558.468 L 331.531,558.569 L 331.531,558.772 L 331.632,558.772 L 331.632,558.975 L 331.734,558.975 L 331.734,559.178 L 331.883,559.281 L 332.038,559.381 L 332.038,559.584 L 332.14,559.584 L 332.444,559.99 L 332.545,559.99 L 332.545,560.193 L 332.647,560.193 L 332.647,560.294 L 332.849,560.447 L 333.053,560.598 L 333.053,560.7 L 333.256,560.7 L 333.256,560.801 L 333.458,560.955 L 333.662,561.106 L 333.662,561.207 L 333.823,561.255 L 333.895,561.269 L 333.966,561.309 L 334.067,561.511 L 334.217,561.516 L 334.372,561.511 L 334.473,561.714 L 334.669,561.772 L 334.879,561.816 L 334.879,561.917 L 335.084,561.961 L 335.285,562.019 L 335.285,562.12 L 335.437,562.127 L 335.59,562.12 L 335.59,562.222 L 335.792,562.222 L 335.792,562.323 L 335.943,562.328 L 336.097,562.323 L 336.097,562.425 L 336.401,562.425 L 336.401,562.526 L 336.79,562.592 L 337.213,562.628 L 337.213,562.729 L 337.521,562.715 L 337.675,562.706 L 337.822,562.729 L 337.906,562.766 L 337.919,562.779 L 337.917,562.79 L 337.826,562.808 L 337.776,562.811 L 337.758,562.813 L 337.923,562.831"
         id="path13098" /></clipPath><clipPath
       id="clipPath13108"><path
         d="M 399.685,468.15 L 467.716,468.15 L 467.716,398.15 L 399.685,398.15 L 399.685,468.15 z"
         id="path13110" /></clipPath><clipPath
       id="clipPath13114"><path
         d="M 0,841 L 595,841 L 595,0 L 0,0 L 0,841 z"
         id="path13116" /></clipPath><clipPath
       id="clipPath13120"><path
         d="M 0.36,841.68 L 595.8,841.68 L 595.8,0 L 0.36,0 L 0.36,841.68 z"
         id="path13122" /></clipPath><clipPath
       id="clipPath13176"><path
         d="M 457.87,446.123 C 457.422,442.625 456.655,438.31 455.342,433.732 C 453.482,427.243 450.905,421.506 447.682,416.677 C 443.819,410.886 439.006,406.397 433.373,403.315 C 431.568,404.548 425.634,408.885 420.025,416.094 C 416.117,421.117 413.128,426.535 411.142,432.197 C 409.564,436.69 408.62,441.35 408.312,446.123 L 457.87,446.123"
         id="path13178" /></clipPath><clipPath
       id="clipPath13196"><path
         d="M 399.685,468.15 L 467.716,468.15 L 467.716,398.15 L 399.685,398.15 L 399.685,468.15 z"
         id="path13198" /></clipPath><clipPath
       id="clipPath13202"><path
         d="M 0,841 L 595,841 L 595,0 L 0,0 L 0,841 z"
         id="path13204" /></clipPath><clipPath
       id="clipPath13208"><path
         d="M 0.36,841.68 L 595.8,841.68 L 595.8,0 L 0.36,0 L 0.36,841.68 z"
         id="path13210" /></clipPath><clipPath
       id="clipPath13220"><path
         d="M 484.724,468.15 L 552.756,468.15 L 552.756,398.15 L 484.724,398.15 L 484.724,468.15 z"
         id="path13222" /></clipPath><clipPath
       id="clipPath13226"><path
         d="M 0,841 L 595,841 L 595,0 L 0,0 L 0,841 z"
         id="path13228" /></clipPath><clipPath
       id="clipPath13232"><path
         d="M 0.36,841.68 L 595.8,841.68 L 595.8,0 L 0.36,0 L 0.36,841.68 z"
         id="path13234" /></clipPath><clipPath
       id="clipPath13348"><path
         d="M 149.105,468.15 L 215.598,468.15 L 215.598,398.15 L 149.105,398.15 L 149.105,468.15 z"
         id="path13350" /></clipPath><clipPath
       id="clipPath13354"><path
         d="M 0,841 L 595,841 L 595,0 L 0,0 L 0,841 z"
         id="path13356" /></clipPath><clipPath
       id="clipPath13360"><path
         d="M 0.36,841.68 L 595.8,841.68 L 595.8,0 L 0.36,0 L 0.36,841.68 z"
         id="path13362" /></clipPath><clipPath
       id="clipPath13440"><path
         d="M 229.606,468.15 L 297.638,468.15 L 297.638,398.15 L 229.606,398.15 L 229.606,468.15 z"
         id="path13442" /></clipPath><clipPath
       id="clipPath13446"><path
         d="M 0,841 L 595,841 L 595,0 L 0,0 L 0,841 z"
         id="path13448" /></clipPath><clipPath
       id="clipPath13452"><path
         d="M 0.36,841.68 L 595.8,841.68 L 595.8,0 L 0.36,0 L 0.36,841.68 z"
         id="path13454" /></clipPath><linearGradient
       x1="0"
       y1="0"
       x2="1"
       y2="0"
       id="linearGradient13554"
       gradientUnits="userSpaceOnUse"
       gradientTransform="matrix(0,-31.3668,-55.4292,0,377.1228,452.6494)"
       spreadMethod="pad"><stop
         id="stop13556"
         style="stop-color:#ffffff;stop-opacity:1"
         offset="0" /><stop
         id="stop13558"
         style="stop-color:#231f20;stop-opacity:1"
         offset="1" /></linearGradient><clipPath
       id="clipPath13566"><path
         d="M 314.646,468.15 L 382.677,468.15 L 382.677,398.15 L 314.646,398.15 L 314.646,468.15 z"
         id="path13568" /></clipPath><clipPath
       id="clipPath13572"><path
         d="M 0,841 L 595,841 L 595,0 L 0,0 L 0,841 z"
         id="path13574" /></clipPath><clipPath
       id="clipPath13578"><path
         d="M 0.36,841.68 L 595.8,841.68 L 595.8,0 L 0.36,0 L 0.36,841.68 z"
         id="path13580" /></clipPath><clipPath
       id="clipPath13656"><path
         d="M 399.685,361.567 L 467.716,361.567 L 467.716,291.567 L 399.685,291.567 L 399.685,361.567 z"
         id="path13658" /></clipPath><clipPath
       id="clipPath13662"><path
         d="M 0,841 L 595,841 L 595,0 L 0,0 L 0,841 z"
         id="path13664" /></clipPath><clipPath
       id="clipPath13668"><path
         d="M 0.36,841.68 L 595.8,841.68 L 595.8,0 L 0.36,0 L 0.36,841.68 z"
         id="path13670" /></clipPath><clipPath
       id="clipPath13738"><path
         d="M 484.724,361.567 L 552.756,361.567 L 552.756,291.567 L 484.724,291.567 L 484.724,361.567 z"
         id="path13740" /></clipPath><clipPath
       id="clipPath13744"><path
         d="M 0,841 L 595,841 L 595,0 L 0,0 L 0,841 z"
         id="path13746" /></clipPath><clipPath
       id="clipPath13750"><path
         d="M 0.36,841.68 L 595.8,841.68 L 595.8,0 L 0.36,0 L 0.36,841.68 z"
         id="path13752" /></clipPath><radialGradient
       cx="0"
       cy="0"
       r="1"
       fx="0"
       fy="0"
       id="radialGradient13766"
       gradientUnits="userSpaceOnUse"
       gradientTransform="matrix(16.8629,0,0,-16.8629,518.789,332.9843)"
       spreadMethod="pad"><stop
         id="stop13768"
         style="stop-color:#ffffff;stop-opacity:1"
         offset="0" /><stop
         id="stop13770"
         style="stop-color:#231f20;stop-opacity:1"
         offset="1" /></radialGradient><clipPath
       id="clipPath13778"><path
         d="M 484.724,361.567 L 552.756,361.567 L 552.756,291.567 L 484.724,291.567 L 484.724,361.567 z"
         id="path13780" /></clipPath><clipPath
       id="clipPath13784"><path
         d="M 0,841 L 595,841 L 595,0 L 0,0 L 0,841 z"
         id="path13786" /></clipPath><clipPath
       id="clipPath13790"><path
         d="M 0.36,841.68 L 595.8,841.68 L 595.8,0 L 0.36,0 L 0.36,841.68 z"
         id="path13792" /></clipPath><clipPath
       id="clipPath13876"><path
         d="M 147.567,361.567 L 215.598,361.567 L 215.598,291.567 L 147.567,291.567 L 147.567,361.567 z"
         id="path13878" /></clipPath><clipPath
       id="clipPath13882"><path
         d="M 0,841 L 595,841 L 595,0 L 0,0 L 0,841 z"
         id="path13884" /></clipPath><clipPath
       id="clipPath13888"><path
         d="M 0.36,841.68 L 595.8,841.68 L 595.8,0 L 0.36,0 L 0.36,841.68 z"
         id="path13890" /></clipPath><clipPath
       id="clipPath14086"><path
         d="M 229.606,361.567 L 297.638,361.567 L 297.638,291.567 L 229.606,291.567 L 229.606,361.567 z"
         id="path14088" /></clipPath><clipPath
       id="clipPath14092"><path
         d="M 0,841 L 595,841 L 595,0 L 0,0 L 0,841 z"
         id="path14094" /></clipPath><clipPath
       id="clipPath14098"><path
         d="M 0.36,841.68 L 595.8,841.68 L 595.8,0 L 0.36,0 L 0.36,841.68 z"
         id="path14100" /></clipPath><clipPath
       id="clipPath14192"><path
         d="M 314.646,361.567 L 382.677,361.567 L 382.677,291.567 L 314.646,291.567 L 314.646,361.567 z"
         id="path14194" /></clipPath><clipPath
       id="clipPath14198"><path
         d="M 0,841 L 595,841 L 595,0 L 0,0 L 0,841 z"
         id="path14200" /></clipPath><clipPath
       id="clipPath14204"><path
         d="M 0.36,841.68 L 595.8,841.68 L 595.8,0 L 0.36,0 L 0.36,841.68 z"
         id="path14206" /></clipPath><clipPath
       id="clipPath14342"><path
         d="M 0,841 L 595,841 L 595,0 L 0,0 L 0,841 z"
         id="path14344" /></clipPath><clipPath
       id="clipPath14348"><path
         d="M 0.36,841.68 L 595.8,841.68 L 595.8,0 L 0.36,0 L 0.36,841.68 z"
         id="path14350" /></clipPath></defs><g
     transform="matrix(1.3121621,0,0,-1.3121621,-23.754784,1075.699)"
     id="g10580"><g
       transform="matrix(9.6908116,0,0,9.6908116,-1439.7746,-3682.0999)"
       id="g13344"><g
         clip-path="url(#clipPath13348)"
         id="g13346"><g
           clip-path="url(#clipPath13354)"
           id="g13352"><g
             clip-path="url(#clipPath13360)"
             id="g13358"><path
               d="m 150.733,433.534 c 0,16.818 13.633,30.451 30.451,30.451 16.818,0 30.452,-13.633 30.452,-30.451 0,-16.818 -13.634,-30.452 -30.452,-30.452 -16.818,0 -30.451,13.634 -30.451,30.452 z m 57.128,11.448 c 1.509,-3.512 2.345,-7.383 2.345,-11.448 0,-16.029 -12.993,-29.022 -29.022,-29.022 -16.028,0 -29.021,12.993 -29.021,29.022 0,4.111 0.855,8.023 2.397,11.567 m 48.973,-1.563 c 1.369,-3.054 2.131,-6.44 2.131,-10.004 0,-13.52 -10.96,-24.479 -24.48,-24.479 -13.519,0 -24.479,10.959 -24.479,24.479 0,3.466 0.721,6.765 2.02,9.753"
               id="path13364"
               style="fill:#ffffff;stroke:#d2232a;stroke-width:0.31531926999999998;stroke-linecap:butt;stroke-linejoin:miter;stroke-miterlimit:4;stroke-opacity:1;stroke-dasharray:none;fill-opacity:1"
               inkscape:connector-curvature="0" /><path
               d="m 158.153,433.534 c 0,12.72 10.311,23.032 23.031,23.032 12.721,0 23.032,-10.312 23.032,-23.032 0,-12.72 -10.311,-23.032 -23.032,-23.032 -12.72,0 -23.031,10.312 -23.031,23.032 z"
               id="path13366"
               style="fill:#d2232a;fill-opacity:1;fill-rule:nonzero;stroke:#d2232a;stroke-width:0.31531927;stroke-linecap:butt;stroke-linejoin:miter;stroke-miterlimit:4;stroke-opacity:1;stroke-dasharray:none"
               inkscape:connector-curvature="0" /><path
               d="m 158.41,445.577 0.01,0.085 c 0.091,-0.014 0.175,-0.024 0.264,-0.027 0.401,-0.003 0.729,0.145 0.917,0.361 0.201,0.224 0.266,0.482 0.226,0.703 -0.106,0.534 -0.586,0.708 -1.197,0.376 -0.083,-0.041 -0.176,-0.1 -0.56,-0.354 -0.595,-0.4 -1.178,-0.411 -1.711,-0.081 -0.788,0.483 -0.981,1.529 -0.229,2.517 0.205,0.272 0.461,0.48 0.77,0.623 0.036,0.019 0.073,0.039 0.111,0.048 0.04,-0.057 0.07,-0.116 0.11,-0.173 0.128,-0.184 0.275,-0.363 0.43,-0.53 l -0.038,-0.077 c -0.065,0.015 -0.132,0.014 -0.198,0.013 -0.675,-0.013 -1.091,-0.512 -0.98,-0.957 0.119,-0.459 0.538,-0.596 1.067,-0.306 l 0.05,0.028 0.479,0.304 c 1.115,0.703 2.222,0.34 2.52,-0.86 0.125,-0.503 0.009,-1.051 -0.41,-1.638 -0.199,-0.275 -0.462,-0.52 -0.811,-0.73 -0.036,-0.019 -0.076,-0.045 -0.112,-0.064 -0.207,0.273 -0.447,0.516 -0.708,0.739"
               id="path13368"
               style="fill:#d2232a;fill-opacity:1;fill-rule:nonzero;stroke:none"
               inkscape:connector-curvature="0" /><path
               d="m 157.624,450.317 -0.142,0.127 c -0.11,0.099 -0.208,0.18 -0.332,0.273 0.221,0.247 0.437,0.499 0.648,0.745 0.653,0.76 1.274,1.537 1.879,2.317 0.149,-0.141 0.307,-0.271 0.469,-0.395 0.054,-0.035 0.103,-0.075 0.156,-0.11 -0.34,-0.314 -0.662,-0.661 -0.958,-1.02 0.356,-0.311 0.717,-0.617 1.077,-0.922 0.757,-0.623 1.538,-1.228 2.325,-1.803 -0.295,-0.314 -0.568,-0.647 -0.828,-1.008 -0.376,0.355 -0.749,0.689 -1.143,1.031 -0.711,0.612 -1.43,1.204 -2.173,1.788 -0.31,-0.366 -0.589,-0.749 -0.835,-1.149 l -0.143,0.126"
               id="path13370"
               style="fill:#d2232a;fill-opacity:1;fill-rule:nonzero;stroke:none"
               inkscape:connector-curvature="0" /><path
               d="m 162.797,452.756 -0.638,1.749 1.584,-0.902 c -0.074,-0.076 -0.154,-0.156 -0.233,-0.227 -0.231,-0.217 -0.467,-0.418 -0.713,-0.62 z m 0.281,-2.682 c 0.176,0.195 0.376,0.374 0.583,0.522 l -0.23,0.532 c -0.142,0.328 -0.277,0.68 -0.403,1.011 0.311,0.298 0.616,0.58 0.931,0.853 0.105,0.094 0.214,0.183 0.32,0.277 0.299,-0.177 0.608,-0.373 0.898,-0.559 l 0.24,-0.163 0.246,-0.159 c 0.334,0.346 0.696,0.671 1.088,0.974 -0.844,0.371 -1.659,0.796 -3.653,1.955 -0.237,0.138 -0.474,0.276 -0.706,0.418 l -0.13,0.082 -0.217,0.137 c -0.123,-0.138 -0.25,-0.271 -0.392,-0.398 -0.137,-0.122 -0.272,-0.225 -0.423,-0.331 l 0.084,-0.199 0.04,-0.097 c 0.11,-0.261 0.215,-0.527 0.316,-0.787 0.636,-1.683 1.075,-2.956 1.249,-3.52 l 0.063,-0.208 0.096,-0.34"
               id="path13372"
               style="fill:#d2232a;fill-opacity:1;fill-rule:nonzero;stroke:none"
               inkscape:connector-curvature="0" /><path
               d="m 165.847,458.069 0.091,0.069 0.11,0.063 c 0.063,0.045 0.137,0.088 0.204,0.126 0.973,0.514 1.791,0.27 2.431,-0.867 0.7,-1.224 0.446,-2.137 -0.584,-2.708 l -0.157,-0.082 -0.095,-0.047 c -0.665,1.122 -1.35,2.307 -2,3.446 z m 1.178,-4.532 c 0.371,0.247 0.597,0.377 1.166,0.674 0.065,0.029 0.132,0.068 0.199,0.107 1.407,0.764 1.93,1.791 1.643,3.034 -0.457,2.017 -2.258,2.638 -4.251,1.323 -0.553,-0.368 -0.852,-0.541 -1.294,-0.748 0.773,-1.141 1.474,-2.325 2.2,-3.722 0.111,-0.22 0.226,-0.447 0.337,-0.668"
               id="path13374"
               style="fill:#d2232a;fill-opacity:1;fill-rule:nonzero;stroke:none"
               inkscape:connector-curvature="0" /><path
               d="m 170.324,460.179 c -0.089,0.231 -0.185,0.458 -0.281,0.686 0.916,0.266 1.813,0.584 2.685,0.954 0.069,-0.215 0.142,-0.421 0.231,-0.629 -0.404,-0.106 -0.803,-0.225 -1.2,-0.374 l -0.172,-0.061 -0.164,-0.066 c 0.081,-0.248 0.17,-0.501 0.26,-0.753 l 0.123,-0.346 0.129,-0.343 0.155,0.048 0.153,0.054 c 0.386,0.137 0.757,0.292 1.119,0.473 0.054,-0.214 0.132,-0.433 0.225,-0.632 -0.386,-0.114 -0.756,-0.231 -1.135,-0.365 l -0.166,-0.059 -0.166,-0.059 0.151,-0.426 0.146,-0.434 0.146,-0.39 0.14,-0.392 0.153,0.055 0.143,0.058 c 0.403,0.151 0.812,0.326 1.204,0.51 0.019,-0.098 0.055,-0.198 0.084,-0.3 0.042,-0.119 0.091,-0.237 0.14,-0.354 -0.685,-0.221 -1.351,-0.45 -2.027,-0.697 l -0.336,-0.127 -0.328,-0.132 c -0.371,1.32 -0.8,2.567 -1.412,4.101"
               id="path13376"
               style="fill:#d2232a;fill-opacity:1;fill-rule:nonzero;stroke:none"
               inkscape:connector-curvature="0" /><path
               d="m 178.361,462.329 0.112,0.021 0.127,0.008 c 0.077,0.011 0.161,0.017 0.238,0.021 1.101,0.026 1.724,-0.557 1.79,-1.861 0.079,-1.408 -0.556,-2.111 -1.732,-2.162 l -0.177,-0.004 -0.106,0 c -0.094,1.302 -0.178,2.667 -0.252,3.977 z m -0.968,-4.582 c 0.442,0.056 0.702,0.072 1.344,0.083 0.071,-0.003 0.149,0.002 0.226,0.007 1.6,0.056 2.526,0.742 2.824,1.983 0.491,2.008 -0.843,3.368 -3.214,3.08 -0.659,-0.083 -1.004,-0.104 -1.492,-0.092 0.183,-1.367 0.282,-2.738 0.308,-4.312 10e-4,-0.247 0.003,-0.502 0.004,-0.749"
               id="path13378"
               style="fill:#d2232a;fill-opacity:1;fill-rule:nonzero;stroke:none"
               inkscape:connector-curvature="0" /><path
               d="m 183.31,462.223 c 0.023,0.246 0.038,0.493 0.053,0.74 0.939,-0.169 1.884,-0.282 2.829,-0.338 -0.034,-0.223 -0.059,-0.44 -0.072,-0.666 -0.409,0.085 -0.82,0.155 -1.241,0.198 l -0.182,0.022 -0.176,0.013 c -0.038,-0.258 -0.07,-0.524 -0.101,-0.79 l -0.043,-0.364 -0.037,-0.365 0.16,-0.026 0.161,-0.019 c 0.407,-0.049 0.808,-0.075 1.213,-0.074 -0.047,-0.214 -0.075,-0.446 -0.079,-0.665 -0.397,0.068 -0.78,0.128 -1.179,0.176 l -0.175,0.021 -0.175,0.021 -0.054,-0.448 -0.061,-0.455 -0.042,-0.414 -0.05,-0.413 0.161,-0.019 0.155,-0.012 c 0.428,-0.043 0.873,-0.068 1.305,-0.077 -0.026,-0.096 -0.038,-0.201 -0.058,-0.306 -0.015,-0.126 -0.023,-0.252 -0.031,-0.379 -0.712,0.106 -1.411,0.196 -2.126,0.274 l -0.358,0.036 -0.352,0.028 c 0.253,1.347 0.423,2.655 0.555,4.301"
               id="path13380"
               style="fill:#d2232a;fill-opacity:1;fill-rule:nonzero;stroke:none"
               inkscape:connector-curvature="0" /><path
               d="m 190.747,458.919 0.667,1.654 c 0.026,-0.01 0.049,-0.011 0.077,-0.015 0.621,-0.156 0.802,-0.502 0.577,-1.125 -0.231,-0.637 -0.664,-0.829 -1.189,-0.582 l -0.075,0.038 -0.057,0.03 z m -2.158,-2.063 c 0.316,-0.103 0.62,-0.217 0.91,-0.347 0.104,-0.042 0.207,-0.09 0.302,-0.136 0.155,0.485 0.329,0.977 0.514,1.442 l 0.114,0.304 0.126,0.299 c 0.141,-0.58 0.257,-1.165 0.329,-1.748 0.028,-0.254 0.056,-0.508 0.077,-0.759 0.495,-0.167 0.973,-0.358 1.448,-0.577 -0.092,0.265 -0.175,0.533 -0.249,0.805 -0.2,0.717 -0.353,1.401 -0.439,1.891 l -0.01,0.087 -0.024,0.131 0.087,-0.011 0.093,-0.015 c 0.584,-0.058 1.106,0.243 1.339,0.772 0.367,0.825 -0.091,1.638 -1.525,2.096 -0.608,0.189 -0.825,0.275 -1.208,0.473 -0.081,-0.241 -0.16,-0.475 -0.247,-0.713 -0.505,-1.439 -1.035,-2.731 -1.637,-3.994"
               id="path13382"
               style="fill:#d2232a;fill-opacity:1;fill-rule:nonzero;stroke:none"
               inkscape:connector-curvature="0" /><path
               d="m 194.871,458.842 c 0.121,0.215 0.236,0.434 0.352,0.652 0.786,-0.539 1.601,-1.031 2.44,-1.47 -0.123,-0.19 -0.236,-0.377 -0.34,-0.577 -0.338,0.245 -0.684,0.477 -1.05,0.69 l -0.157,0.094 -0.154,0.085 c -0.141,-0.22 -0.279,-0.449 -0.417,-0.679 l -0.19,-0.314 -0.183,-0.318 0.135,-0.089 0.139,-0.084 c 0.351,-0.211 0.706,-0.4 1.076,-0.566 -0.131,-0.176 -0.251,-0.375 -0.346,-0.573 -0.334,0.225 -0.659,0.437 -1.003,0.645 l -0.151,0.091 -0.151,0.091 -0.233,-0.387 -0.242,-0.389 -0.209,-0.36 -0.215,-0.356 0.139,-0.084 0.137,-0.074 c 0.372,-0.216 0.767,-0.421 1.157,-0.607 -0.063,-0.077 -0.117,-0.168 -0.178,-0.255 -0.066,-0.108 -0.125,-0.221 -0.184,-0.333 -0.606,0.389 -1.206,0.759 -1.826,1.125 l -0.312,0.179 -0.309,0.17 c 0.785,1.124 1.477,2.247 2.275,3.693"
               id="path13384"
               style="fill:#d2232a;fill-opacity:1;fill-rule:nonzero;stroke:none"
               inkscape:connector-curvature="0" /><path
               d="m 198.337,456.565 c 0.151,0.205 0.29,0.418 0.435,0.627 0.32,-0.312 0.671,-0.586 1.046,-0.816 -0.168,-0.191 -0.336,-0.373 -0.498,-0.569 -1.015,-1.175 -1.85,-2.268 -2.626,-3.424 -0.328,0.291 -0.678,0.564 -1.04,0.811 0.941,1.046 1.819,2.149 2.683,3.371"
               id="path13386"
               style="fill:#d2232a;fill-opacity:1;fill-rule:nonzero;stroke:none"
               inkscape:connector-curvature="0" /><path
               d="m 198.04,452.607 c 1.371,0.817 2.453,1.555 3.504,2.368 0.154,-0.212 0.338,-0.417 0.533,-0.592 -0.431,-0.891 -0.728,-1.604 -1.157,-2.74 l -0.173,-0.451 -0.088,-0.25 0.172,0.051 0.537,0.152 c 1.222,0.34 1.887,0.56 2.799,0.907 0.08,-0.099 0.169,-0.209 0.254,-0.303 0.09,-0.1 0.18,-0.189 0.28,-0.279 -0.923,-0.946 -1.778,-1.925 -2.778,-3.185 -0.187,-0.235 -0.369,-0.466 -0.551,-0.706 -0.281,0.365 -0.588,0.705 -0.921,1.022 0.751,0.705 1.46,1.467 2.111,2.261 -0.227,-0.052 -0.455,-0.115 -0.683,-0.178 -0.861,-0.225 -1.719,-0.505 -2.56,-0.815 -0.093,0.115 -0.193,0.225 -0.302,0.325 0.479,1.049 0.914,2.105 1.319,3.172 -0.18,-0.115 -0.357,-0.236 -0.538,-0.361 -0.683,-0.464 -1.338,-0.959 -1.97,-1.49 -0.168,0.238 -0.361,0.443 -0.571,0.634 0.262,0.151 0.525,0.302 0.783,0.458"
               id="path13388"
               style="fill:#d2232a;fill-opacity:1;fill-rule:nonzero;stroke:none"
               inkscape:connector-curvature="0" /><path
               d="m 202.722,447.666 0.069,-0.049 c -0.055,-0.073 -0.104,-0.142 -0.15,-0.218 -0.196,-0.35 -0.224,-0.709 -0.125,-0.978 0.1,-0.285 0.295,-0.465 0.508,-0.537 0.519,-0.163 0.902,0.174 0.906,0.87 0.004,0.091 -0.003,0.202 -0.042,0.661 -0.064,0.713 0.207,1.229 0.753,1.539 0.802,0.458 1.812,0.124 2.317,-1.011 0.14,-0.31 0.198,-0.635 0.175,-0.975 0,-0.041 -0.001,-0.082 -0.011,-0.12 -0.069,-0.008 -0.136,-0.006 -0.205,-0.013 -0.223,-0.024 -0.451,-0.067 -0.671,-0.122 l -0.049,0.07 c 0.044,0.05 0.075,0.109 0.106,0.168 0.313,0.598 0.076,1.202 -0.368,1.32 -0.459,0.116 -0.781,-0.186 -0.781,-0.789 l 0.001,-0.057 0.035,-0.566 c 0.08,-1.316 -0.77,-2.113 -1.965,-1.796 -0.502,0.132 -0.926,0.497 -1.239,1.148 -0.146,0.306 -0.234,0.655 -0.25,1.061 0,0.042 -0.003,0.089 -0.002,0.13 0.338,0.05 0.667,0.143 0.988,0.264"
               id="path13390"
               style="fill:#d2232a;fill-opacity:1;fill-rule:nonzero;stroke:none"
               inkscape:connector-curvature="0" /><path
               d="m 167.097,439.955 0.201,0.077 c 0.091,-0.184 0.183,-0.353 0.292,-0.522 0.53,-0.752 1.296,-1.197 2.026,-1.305 0.767,-0.122 1.424,0.046 1.862,0.369 1.04,0.798 0.785,1.888 -0.767,2.655 -0.2,0.107 -0.456,0.215 -1.533,0.645 -1.679,0.66 -2.482,1.734 -2.464,3.1 0.018,2.011 2.081,3.546 5.275,3.254 0.876,-0.077 1.679,-0.322 2.409,-0.737 0.092,-0.046 0.183,-0.092 0.256,-0.153 -0.073,-0.138 -0.164,-0.261 -0.237,-0.399 -0.237,-0.445 -0.438,-0.921 -0.603,-1.397 l -0.219,-0.015 c -0.054,0.138 -0.146,0.261 -0.237,0.383 -0.931,1.244 -2.592,1.459 -3.431,0.752 -0.858,-0.736 -0.603,-1.672 0.748,-2.333 l 0.128,-0.061 1.314,-0.553 c 3.048,-1.289 3.723,-3.76 1.46,-5.663 -0.949,-0.798 -2.318,-1.197 -4.18,-1.075 -0.876,0.062 -1.77,0.277 -2.701,0.691 -0.091,0.046 -0.201,0.092 -0.292,0.138 0.328,0.691 0.547,1.412 0.693,2.149"
               id="path13392"
               style="fill:#ffffff;fill-opacity:1;fill-rule:nonzero;stroke:none"
               inkscape:connector-curvature="0" /><path
               d="m 190.144,442.994 0.015,3.883 c 0.062,0 0.108,0.016 0.169,0.031 1.382,0.184 2.026,-0.368 2.073,-1.811 0.046,-1.474 -0.676,-2.21 -1.934,-2.134 l -0.185,0.016 -0.138,0.015 z m -2.701,-5.909 c 0.721,0.046 1.427,0.061 2.118,0.031 0.245,0 0.491,-0.016 0.721,-0.031 -0.076,1.105 -0.123,2.241 -0.123,3.33 l -0.015,0.707 0.015,0.706 c 0.753,-1.06 1.459,-2.149 2.073,-3.27 0.261,-0.491 0.522,-0.982 0.767,-1.473 1.136,0.061 2.257,0.061 3.392,0 -0.399,0.46 -0.782,0.936 -1.151,1.427 -0.982,1.29 -1.842,2.548 -2.41,3.469 l -0.092,0.169 -0.153,0.245 0.184,0.047 0.199,0.046 c 1.228,0.353 2.042,1.381 2.088,2.64 0.076,1.964 -1.504,3.238 -4.774,3.008 -1.381,-0.107 -1.888,-0.107 -2.824,-0.015 0.031,-0.553 0.062,-1.09 0.077,-1.643 0.138,-3.315 0.107,-6.354 -0.092,-9.393"
               id="path13394"
               style="fill:#ffffff;fill-opacity:1;fill-rule:nonzero;stroke:none"
               inkscape:connector-curvature="0" /><path
               d="m 187.235,419.47 c 0,-3.341 -2.708,-6.049 -6.049,-6.049 -3.341,0 -6.05,2.708 -6.05,6.049 0,3.341 2.709,6.05 6.05,6.05 3.341,0 6.049,-2.709 6.049,-6.05 z"
               id="path13396"
               style="fill:none;stroke:#ffffff;stroke-width:0.32484552;stroke-linecap:butt;stroke-linejoin:miter;stroke-miterlimit:4;stroke-opacity:1;stroke-dasharray:none"
               inkscape:connector-curvature="0" /><path
               d="m 182.674,423.022 -3.044,0 c 0,0 -0.778,-1.995 -0.744,-2.604 0,0 1.809,-1.517 2.24,-1.537 0.432,-0.019 2.326,1.435 2.292,1.571 0,0 0.102,0.744 -0.744,2.57"
               id="path13398"
               style="fill:#ffffff;fill-opacity:1;fill-rule:nonzero;stroke:none"
               inkscape:connector-curvature="0" /><path
               d="m 175.334,420.722 1.252,-1.488 c 0,0 -0.102,-1.827 0.033,-2.571 0,0 -0.541,-0.169 -0.676,-0.067 -0.135,0.101 -1.15,1.522 -0.609,4.126"
               id="path13400"
               style="fill:#ffffff;fill-opacity:1;fill-rule:nonzero;stroke:none"
               inkscape:connector-curvature="0" /><path
               d="m 187.088,420.722 -1.251,-1.488 c 0,0 0.101,-1.827 -0.034,-2.571 0,0 0.541,-0.169 0.676,-0.067 0.135,0.101 1.15,1.522 0.609,4.126"
               id="path13402"
               style="fill:#ffffff;fill-opacity:1;fill-rule:nonzero;stroke:none"
               inkscape:connector-curvature="0" /><path
               d="m 179.799,422.921 c 0,0 -0.677,1.218 -1.59,1.758 m 4.294,-1.758 c 0,0 0.676,1.218 1.59,1.758 m -7.676,-5.547 c 0,0 1.352,1.083 2.705,1.32 m 6.828,-1.32 c 0,0 -1.353,1.083 -2.707,1.32 m -6.793,-3.485 c 0,0 0.643,-1.184 2.842,-2.097 m 6.593,2.097 c 0,0 -0.642,-1.184 -2.841,-2.097 m -3.076,-1.319 c 0,0 -0.643,0.677 -0.846,1.421 0,0 1.534,0.575 2.004,1.035 0,0 1.548,-1.001 2.055,-1.103 0,0 -0.203,-1.015 -0.913,-1.353 0,0 -1.15,-0.44 -2.3,0 z"
               id="path13404"
               style="fill:none;stroke:#ffffff;stroke-width:0.16004121;stroke-linecap:butt;stroke-linejoin:miter;stroke-miterlimit:4;stroke-opacity:1;stroke-dasharray:none"
               inkscape:connector-curvature="0" /><path
               d="m 163.97628,439.129 c 0,0 -1.567,-1.448 -1.606,-3.453 -0.039,-2.005 2.088,-6.103 7.95,-5.942 0,0 5.9,-0.265 10.798,5.115 l -0.4,0.605 0.4,0.626 c 0,0 -2.358,2.196 -2.429,5.804 0,0 0.035,4.041 2.429,4.165 l 0,1.143 c 0,0 -2.894,0.159 -2.894,-5.236 0,0 -0.25,-2.894 2.322,-6.503 0,0 -4.144,-4.466 -10.111,-4.216 0,0 -2.715,-0.179 -4.859,1.429 0,0 -4.629,2.886 -1.6,6.463"
               id="path13406"
               style="fill:#ffffff;fill-opacity:1;fill-rule:nonzero;stroke:none"
               inkscape:connector-curvature="0" /><path
               d="m 198.101,439.129 c 0,0 1.567,-1.448 1.607,-3.453 0.039,-2.005 -2.088,-6.103 -7.95,-5.942 0,0 -5.901,-0.265 -10.8,5.115 l 0.4,0.605 -0.4,0.626 c 0,0 2.358,2.196 2.429,5.804 0,0 -0.035,4.041 -2.429,4.165 l 0,1.143 c 0,0 2.894,0.159 2.894,-5.236 0,0 0.25,-2.894 -2.323,-6.503 0,0 4.146,-4.466 10.113,-4.216 0,0 2.716,-0.179 4.86,1.429 0,0 4.629,2.886 1.599,6.463"
               id="path13408"
               style="fill:#ffffff;fill-opacity:1;fill-rule:nonzero;stroke:none"
               inkscape:connector-curvature="0" /><path
               d="m 168.762,434.123 c 0,0 1.107,1.607 4.18,1.607 3.073,0 6.998,-2.174 8.019,-7.019 l 0,-1.18 c 0,0 -1.123,6.912 -8.591,7.376 0,0 -2.215,0.071 -3.394,-0.929 0,0 -0.357,-0.175 -0.214,0.145"
               id="path13410"
               style="fill:#ffffff;fill-opacity:1;fill-rule:nonzero;stroke:none"
               inkscape:connector-curvature="0" /><path
               d="m 193.18,434.123 c 0,0 -1.107,1.607 -4.18,1.607 -3.073,0 -6.998,-2.174 -8.019,-7.019 l 0,-1.18 c 0,0 1.123,6.912 8.591,7.376 0,0 2.215,0.071 3.394,-0.929 0,0 0.357,-0.175 0.214,0.145"
               id="path13412"
               style="fill:#ffffff;fill-opacity:1;fill-rule:nonzero;stroke:none"
               inkscape:connector-curvature="0" /><path
               d="m 174.174,408.42 0.041,-0.005 0.046,-0.011 c 0.028,-0.005 0.058,-0.013 0.086,-0.02 0.39,-0.114 0.543,-0.389 0.42,-0.855 -0.129,-0.504 -0.432,-0.68 -0.851,-0.566 l -0.063,0.019 -0.037,0.012 c 0.113,0.468 0.237,0.958 0.358,1.426 z m -0.855,-1.502 c 0.162,-0.03 0.255,-0.054 0.482,-0.122 0.025,-0.009 0.053,-0.016 0.08,-0.023 0.569,-0.159 0.972,-0.022 1.216,0.381 0.398,0.651 0.081,1.278 -0.785,1.443 -0.241,0.045 -0.364,0.076 -0.535,0.135 -0.088,-0.501 -0.208,-0.994 -0.375,-1.55 -0.027,-0.087 -0.055,-0.177 -0.083,-0.264"
               id="path13414"
               style="fill:#d2232a;fill-opacity:1;fill-rule:nonzero;stroke:none"
               inkscape:connector-curvature="0" /><path
               d="m 175.714,407.989 c 0.014,0.09 0.025,0.181 0.037,0.271 0.341,-0.084 0.687,-0.147 1.034,-0.19 -0.018,-0.081 -0.033,-0.161 -0.043,-0.243 -0.148,0.04 -0.298,0.076 -0.452,0.101 l -0.066,0.012 -0.065,0.01 c -0.02,-0.095 -0.038,-0.192 -0.056,-0.289 l -0.024,-0.133 -0.022,-0.134 0.058,-0.013 0.059,-0.011 c 0.149,-0.027 0.296,-0.046 0.445,-0.055 -0.022,-0.078 -0.037,-0.163 -0.044,-0.243 -0.145,0.034 -0.285,0.065 -0.431,0.092 l -0.064,0.012 -0.064,0.011 -0.03,-0.163 -0.033,-0.166 -0.025,-0.152 -0.028,-0.151 0.059,-0.011 0.057,-0.007 c 0.156,-0.027 0.32,-0.046 0.479,-0.059 -0.012,-0.035 -0.019,-0.074 -0.029,-0.112 -0.008,-0.046 -0.014,-0.092 -0.02,-0.139 -0.26,0.056 -0.515,0.106 -0.777,0.151 l -0.131,0.021 -0.129,0.019 c 0.125,0.49 0.218,0.968 0.305,1.571"
               id="path13416"
               style="fill:#d2232a;fill-opacity:1;fill-rule:nonzero;stroke:none"
               inkscape:connector-curvature="0" /><path
               d="m 177.432,407.089 0.089,0.684 0.023,-0.003 0.044,-0.005 c 0.103,-0.016 0.158,-0.044 0.196,-0.088 0.049,-0.056 0.067,-0.134 0.05,-0.274 -0.031,-0.245 -0.154,-0.345 -0.358,-0.322 -0.016,0.002 -0.029,0.004 -0.044,0.008 z m -0.579,-0.926 c 0.164,-0.01 0.324,-0.03 0.483,-0.061 0.008,0.188 0.024,0.38 0.043,0.566 l 0.013,0.106 0.013,0.104 0.029,-0.004 0.059,-0.01 c 0.376,-0.05 0.628,0.07 0.734,0.293 0.198,0.397 -0.028,0.746 -0.531,0.794 -0.034,0.004 -0.07,0.006 -0.107,0.008 -0.229,0.013 -0.335,0.026 -0.498,0.06 -0.004,-0.094 -0.013,-0.184 -0.019,-0.275 -0.051,-0.582 -0.119,-1.082 -0.219,-1.581"
               id="path13418"
               style="fill:#d2232a;fill-opacity:1;fill-rule:nonzero;stroke:none"
               inkscape:connector-curvature="0" /><path
               d="m 178.957,407.807 c 0.039,0 0.08,0 0.12,0 -0.03,-0.188 -0.049,-0.375 -0.063,-0.564 l -0.029,-0.491 c -0.027,-0.468 0.158,-0.682 0.547,-0.619 0.227,0.038 0.363,0.226 0.388,0.641 l 0.017,0.281 0.007,0.133 c 0.01,0.161 0.016,0.348 0.013,0.567 0.065,-0.014 0.13,-0.018 0.195,-0.017 0.021,-10e-4 0.041,0 0.063,0.002 -0.025,-0.184 -0.046,-0.376 -0.057,-0.565 l -0.002,-0.031 -0.017,-0.284 -0.013,-0.262 c -0.015,-0.338 -0.229,-0.599 -0.593,-0.684 -0.157,-0.038 -0.32,-0.028 -0.476,0.028 -0.373,0.134 -0.504,0.332 -0.519,0.659 l 0.026,0.34 0.011,0.189 0.008,0.138 c 0.01,0.161 0.013,0.346 0.01,0.568 0.122,-0.018 0.241,-0.027 0.364,-0.029"
               id="path13420"
               style="fill:#d2232a;fill-opacity:1;fill-rule:nonzero;stroke:none"
               inkscape:connector-curvature="0" /><path
               d="m 180.569,407.46 c -0.002,0.094 -0.009,0.188 -0.014,0.281 0.164,-0.019 0.328,-0.02 0.489,-0.003 -0.005,-0.093 -0.014,-0.184 -0.017,-0.278 -0.032,-0.572 -0.03,-1.08 0.003,-1.593 -0.161,0.012 -0.325,0.013 -0.486,0.003 0.039,0.518 0.048,1.038 0.025,1.59"
               id="path13422"
               style="fill:#d2232a;fill-opacity:1;fill-rule:nonzero;stroke:none"
               inkscape:connector-curvature="0" /><path
               d="m 181.488,406.355 0.028,0.014 c 0.014,-0.031 0.028,-0.059 0.045,-0.087 0.08,-0.125 0.192,-0.196 0.297,-0.21 0.11,-0.017 0.202,0.015 0.263,0.072 0.143,0.141 0.099,0.324 -0.127,0.446 -0.029,0.017 -0.066,0.034 -0.222,0.101 -0.244,0.103 -0.365,0.281 -0.371,0.512 -0.01,0.341 0.274,0.612 0.731,0.58 0.125,-0.008 0.241,-0.046 0.348,-0.112 0.013,-0.007 0.026,-0.015 0.037,-0.025 -0.009,-0.023 -0.022,-0.045 -0.031,-0.069 -0.031,-0.076 -0.057,-0.158 -0.077,-0.239 l -0.031,-0.004 c -0.009,0.023 -0.023,0.043 -0.036,0.064 -0.141,0.205 -0.379,0.233 -0.494,0.108 -0.118,-0.129 -0.075,-0.286 0.121,-0.391 l 0.019,-0.01 0.191,-0.086 c 0.442,-0.202 0.554,-0.617 0.244,-0.952 -0.13,-0.14 -0.323,-0.215 -0.589,-0.204 -0.125,0.005 -0.254,0.037 -0.389,0.102 -0.013,0.007 -0.029,0.015 -0.043,0.022 0.043,0.119 0.07,0.242 0.086,0.368"
               id="path13424"
               style="fill:#d2232a;fill-opacity:1;fill-rule:nonzero;stroke:none"
               inkscape:connector-curvature="0" /><path
               d="m 184.467,407.948 c 0.06,0.042 0.117,0.083 0.174,0.13 0.037,-0.538 0.099,-1.066 0.201,-1.661 0.015,-0.093 0.032,-0.182 0.05,-0.274 -0.162,-0.006 -0.325,-0.028 -0.483,-0.064 -0.007,0.096 -0.014,0.189 -0.022,0.286 -0.031,0.392 -0.082,0.779 -0.146,1.167 l -0.186,-0.143 -0.031,0.054 -0.034,0.056 c -0.024,0.046 -0.048,0.09 -0.073,0.14 0.193,0.086 0.376,0.189 0.55,0.309"
               id="path13426"
               style="fill:#d2232a;fill-opacity:1;fill-rule:nonzero;stroke:none"
               inkscape:connector-curvature="0" /><path
               d="m 185.51,407.562 c -0.026,0.146 -0.022,0.24 -0.001,0.312 0.029,0.093 0.128,0.142 0.216,0.111 0.074,-0.029 0.146,-0.122 0.186,-0.342 0.027,-0.151 0.015,-0.257 -0.022,-0.332 -0.046,-0.096 -0.182,-0.12 -0.254,-0.043 -0.052,0.051 -0.093,0.134 -0.125,0.294 z m 0.044,-1.309 c 0.051,-0.006 0.102,-0.008 0.152,-0.004 0.301,0.028 0.543,0.244 0.645,0.64 0.031,0.122 0.045,0.249 0.038,0.378 -0.036,0.681 -0.364,0.976 -0.797,0.908 -0.267,-0.043 -0.46,-0.234 -0.497,-0.479 -0.055,-0.354 0.153,-0.657 0.411,-0.711 0.212,-0.046 0.401,0.036 0.493,0.187 0.012,-0.082 0.016,-0.164 0.007,-0.245 -0.029,-0.322 -0.174,-0.47 -0.38,-0.473 -0.056,10e-4 -0.11,0.012 -0.161,0.04 l -0.016,-0.024 c 0.044,-0.069 0.081,-0.142 0.105,-0.217"
               id="path13428"
               style="fill:#d2232a;fill-opacity:1;fill-rule:nonzero;stroke:none"
               inkscape:connector-curvature="0" /><path
               d="m 187.145,407.094 0.031,0.002 c 0.002,-0.007 0.003,-0.012 0.008,-0.019 0.053,-0.129 0.099,-0.182 0.153,-0.217 0.117,-0.07 0.286,-0.02 0.349,0.106 0.033,0.072 0.042,0.166 0.013,0.282 -0.063,0.242 -0.22,0.326 -0.419,0.239 -0.019,-0.007 -0.038,-0.018 -0.054,-0.029 -0.011,0.075 -0.029,0.15 -0.058,0.221 0.016,-10e-4 0.035,0.001 0.053,0.003 0.15,0.021 0.24,0.134 0.226,0.289 -0.022,0.273 -0.144,0.372 -0.268,0.344 -0.112,-0.025 -0.174,-0.132 -0.134,-0.355 0.002,-0.011 0.005,-0.021 0.007,-0.028 l -0.029,-0.015 c -0.017,0.014 -0.037,0.031 -0.059,0.044 -0.072,0.052 -0.149,0.094 -0.233,0.127 0.035,0.196 0.191,0.364 0.458,0.436 0.131,0.035 0.246,0.034 0.345,0.005 0.282,-0.08 0.407,-0.411 0.255,-0.653 -0.029,-0.044 -0.064,-0.085 -0.109,-0.118 -0.019,-0.013 -0.04,-0.026 -0.064,-0.037 0.053,0.002 0.108,0 0.164,-0.013 0.26,-0.062 0.415,-0.31 0.343,-0.601 -0.053,-0.22 -0.257,-0.413 -0.547,-0.474 -0.237,-0.051 -0.419,-0.011 -0.556,0.098 0.061,0.114 0.102,0.237 0.125,0.363"
               id="path13430"
               style="fill:#d2232a;fill-opacity:1;fill-rule:nonzero;stroke:none"
               inkscape:connector-curvature="0" /><path
               d="m 188.526,408.832 c 0.052,0.051 0.102,0.102 0.151,0.157 0.123,-0.525 0.269,-1.036 0.465,-1.607 0.03,-0.089 0.061,-0.175 0.093,-0.263 -0.159,-0.032 -0.316,-0.079 -0.466,-0.141 -0.023,0.094 -0.045,0.185 -0.068,0.279 -0.093,0.382 -0.206,0.756 -0.332,1.128 l -0.16,-0.17 -0.039,0.048 -0.042,0.05 c -0.032,0.042 -0.063,0.081 -0.095,0.126 0.177,0.116 0.341,0.247 0.493,0.393"
               id="path13432"
               style="fill:#d2232a;fill-opacity:1;fill-rule:nonzero;stroke:none"
               inkscape:connector-curvature="0" /><path
               d="m 181.197,419.136 0,-3.259"
               id="path13434"
               style="fill:none;stroke:#ffffff;stroke-width:0.16004121;stroke-linecap:butt;stroke-linejoin:miter;stroke-miterlimit:4;stroke-opacity:1;stroke-dasharray:none"
               inkscape:connector-curvature="0" /></g></g></g></g></g><rect
     style="opacity:0;fill:#ffffff;fill-opacity:1;fill-rule:evenodd;stroke:#b3b3b3;stroke-width:2;stroke-miterlimit:4;stroke-opacity:1;stroke-dasharray:none"
     id="rect3200"
     width="1016.0286"
     height="1039.5012"
     x="-140.83565"
     y="-144.18887" /></svg>